<svg xmlns="http://www.w3.org/2000/svg" xmlns:v="https://svgstorm.com"
viewBox = "0 0 984 253"
width="984"
height="253">
<g fill="None" fill-opacity="0.0" stroke="#000000" stroke-opacity="0.00" stroke-width="0.3"><path d="
M 0.00 108.00 
C 2.82 96.05 7.94 77.13 21.00 71.00
C 21.27 70.80 21.68 70.20 22.00 70.00
C 47.25 54.34 80.69 63.46 110.00 61.00
C 110.00 72.67 110.00 84.33 110.00 96.00
C 94.07 93.99 75.68 98.68 60.00 96.00 C 44.32 93.32 33.88 103.87 35.00 119.00 C 36.12 134.13 29.57 152.11 44.00 160.00
C 54.53 162.14 69.44 159.72 80.00 160.00 C 90.56 160.28 104.30 162.73 113.00 157.00
C 123.26 144.26 118.18 127.30 119.00 110.00 C 119.82 92.70 118.57 72.80 119.00 55.00 C 119.43 37.20 118.68 17.93 119.00 0.00
L 0.00 0.00
L 0.00 108.00 Z"/>
</g>
<g fill="None" fill-opacity="0.0" stroke="#1B1B1B" stroke-opacity="0.97" stroke-width="0.3"><path d="
M 113.00 157.00 
C 106.82 164.67 92.39 162.28 81.00 162.00 C 69.61 161.72 54.14 164.22 44.00 160.00
C 29.57 152.11 36.12 134.13 35.00 119.00 C 33.88 103.87 44.32 93.32 60.00 96.00 C 75.68 98.68 94.07 93.99 110.00 96.00
C 110.00 84.33 110.00 72.67 110.00 61.00
C 80.69 63.46 47.25 54.34 22.00 70.00
C 23.86 70.87 20.14 75.51 18.00 74.00
C 18.24 72.12 20.55 72.54 21.00 71.00
C 7.94 77.13 2.82 96.05 0.00 108.00
L 0.00 154.00
C 3.64 153.12 0.98 157.55 1.00 158.00
C 3.38 178.13 19.81 192.12 40.00 195.00
C 49.25 194.46 60.05 194.13 70.00 194.00 C 79.95 193.87 91.61 195.61 101.00 193.00
C 107.47 189.43 111.63 177.13 119.00 175.00
C 119.61 174.82 120.77 173.24 122.00 174.00
C 122.99 180.85 118.27 194.64 128.00 194.00 C 137.74 193.36 144.53 194.48 154.00 194.00
C 154.00 129.33 154.00 64.67 154.00 0.00
L 119.00 0.00
C 118.68 17.93 119.43 37.20 119.00 55.00 C 118.57 72.80 119.82 92.70 119.00 110.00 C 118.18 127.30 123.26 144.26 113.00 157.00 Z"/>
</g>
<g fill="None" fill-opacity="0.0" stroke="#191919" stroke-opacity="0.43" stroke-width="0.3"><path d="
M 119.00 175.00 
C 115.77 179.52 106.69 191.42 101.00 193.00
C 91.61 195.61 79.95 193.87 70.00 194.00 C 60.05 194.13 49.25 194.46 40.00 195.00
C 55.04 197.15 73.49 194.45 89.00 196.00 C 104.51 197.55 109.62 185.48 120.00 177.00
C 116.67 188.30 121.21 198.54 132.00 196.00 C 142.79 193.46 155.58 200.99 156.00 189.00 C 156.42 177.01 155.80 168.18 156.00 157.00 C 156.20 145.82 155.91 136.76 156.00 126.00 C 156.09 115.24 155.96 105.62 156.00 95.00 C 156.04 84.38 155.98 73.57 156.00 63.00 C 156.02 52.43 155.99 42.56 156.00 32.00 C 156.01 21.44 155.99 10.59 156.00 0.00
L 154.00 0.00
C 154.00 64.67 154.00 129.33 154.00 194.00
C 144.53 194.48 137.74 193.36 128.00 194.00 C 118.27 194.64 122.99 180.85 122.00 174.00
C 120.77 173.24 119.61 174.82 119.00 175.00 Z"/>
</g>
<g fill="None" fill-opacity="0.0" stroke="#000000" stroke-opacity="0.00" stroke-width="0.3"><path d="
M 40.00 195.00 
C 19.81 192.12 3.38 178.13 1.00 158.00
C 0.99 157.94 0.00 158.00 0.00 158.00
L 0.00 253.00
L 837.00 253.00
C 839.12 243.74 831.23 223.99 844.00 224.00 C 856.77 224.01 868.57 224.25 881.00 224.00 C 893.43 223.75 904.75 224.72 917.00 224.00 C 929.25 223.28 941.87 225.62 954.00 224.00
C 970.97 217.42 961.59 195.12 964.00 180.00
C 960.05 182.47 958.01 186.70 955.00 190.00
C 948.78 197.28 942.30 196.26 933.00 196.00 C 923.70 195.74 914.46 196.37 906.00 195.00
C 898.99 193.86 891.74 191.68 886.00 188.00
C 884.62 187.11 884.03 186.05 883.00 185.00
C 874.79 176.63 869.11 169.58 867.00 158.00
C 865.06 147.37 866.59 136.01 866.00 125.00 C 865.41 113.99 866.16 100.75 868.00 92.00
C 868.19 82.72 871.67 77.45 872.00 68.00 C 872.33 58.55 884.63 60.16 893.00 61.00 C 901.37 61.84 897.53 77.05 898.00 85.00 C 898.48 92.95 898.00 104.44 898.00 113.00 C 898.00 121.56 898.48 132.33 898.00 141.00 C 897.52 149.67 899.19 157.22 908.00 160.00
C 926.09 163.24 945.77 157.57 964.00 160.00
C 963.71 150.29 964.39 141.84 964.00 132.00 C 963.61 122.16 964.72 113.16 964.00 103.00 C 963.28 92.84 965.54 84.82 964.00 74.00 C 962.46 63.18 967.80 57.69 980.00 61.00
C 985.33 58.83 981.34 49.74 982.99 43.99 C 984.64 38.24 981.92 26.59 983.00 20.00 C 984.08 13.41 981.40 5.98 983.00 0.00
L 875.00 0.00
C 874.37 9.28 875.84 18.74 875.00 28.00
C 874.14 32.02 858.41 29.90 855.00 30.00
C 838.91 30.49 837.09 45.67 839.00 61.00
C 846.93 61.61 855.51 59.75 863.00 62.00
C 859.20 72.93 857.17 82.21 855.00 93.00
C 854.58 93.77 855.34 95.19 855.00 96.00
C 849.67 96.00 844.33 96.00 839.00 96.00
C 841.38 106.71 838.09 121.78 839.00 133.00 C 839.91 144.22 838.41 152.42 838.80 161.25 C 839.19 170.07 839.10 179.80 839.00 189.00
C 838.86 201.53 822.03 194.62 811.00 196.00 C 799.97 197.38 802.62 178.28 803.00 168.00 C 803.38 157.72 802.26 143.02 803.00 132.00 C 803.74 120.98 801.40 107.12 803.00 96.00
C 798.77 96.94 784.87 97.78 781.00 96.00
C 780.10 96.75 777.92 88.29 779.00 86.00 C 780.08 83.71 778.03 76.94 779.00 74.00 C 779.97 71.06 777.35 65.14 779.33 62.33 C 781.31 59.52 786.53 61.44 790.00 61.00 C 793.47 60.56 799.32 61.33 803.00 61.00
C 800.62 36.10 808.14 9.84 833.00 0.00
L 764.00 0.00
C 760.64 9.51 768.93 26.98 763.00 35.00
C 759.91 38.09 748.38 35.62 744.00 36.00 C 739.62 36.38 728.80 37.95 727.00 33.00
C 725.98 30.19 727.00 25.03 727.00 22.00
C 727.00 18.00 727.00 14.00 727.00 10.00
C 727.00 6.67 727.00 3.33 727.00 0.00
L 214.00 0.00
C 214.00 3.00 214.00 6.00 214.00 9.00
C 214.19 10.93 214.03 14.25 214.00 16.00
C 214.89 27.83 214.00 39.69 214.00 52.00
C 214.44 56.57 217.14 66.74 214.00 71.00
C 214.00 71.50 214.00 72.00 214.00 72.00
C 216.20 74.97 216.15 89.09 214.00 92.00
C 214.00 92.50 214.00 93.00 214.00 93.00
C 215.90 95.56 214.22 97.72 214.00 100.00
C 214.00 115.25 215.36 131.89 214.00 147.00 C 212.64 162.11 217.64 179.40 214.00 194.00
C 212.38 200.50 199.40 192.89 191.00 196.00 C 182.60 199.11 175.32 191.62 178.00 182.00 C 180.68 172.38 176.83 164.13 178.00 155.00 C 179.17 145.87 177.56 136.74 178.00 128.00 C 178.44 119.26 178.00 109.17 178.00 101.00 C 178.00 92.83 179.46 91.94 178.93 84.92 C 178.41 77.89 178.80 70.28 179.00 62.00 C 179.20 53.72 179.00 43.46 179.00 35.00
C 178.59 30.78 176.05 21.98 179.00 18.00
C 179.00 17.50 179.00 17.00 179.00 17.00
C 176.87 14.12 178.74 10.67 179.00 8.00
C 179.00 5.33 179.00 2.67 179.00 0.00
L 156.00 0.00
C 155.99 10.59 156.01 21.44 156.00 32.00 C 155.99 42.56 156.02 52.43 156.00 63.00 C 155.98 73.57 156.04 84.38 156.00 95.00 C 155.96 105.62 156.09 115.24 156.00 126.00 C 155.91 136.76 156.20 145.82 156.00 157.00 C 155.80 168.18 156.42 177.01 156.00 189.00 C 155.58 200.99 142.79 193.46 132.00 196.00 C 121.21 198.54 116.67 188.30 120.00 177.00
C 109.62 185.48 104.51 197.55 89.00 196.00 C 73.49 194.45 55.04 197.15 40.00 195.00
M 334.00 114.00 
C 335.02 119.72 336.98 126.27 336.00 133.00 C 335.02 139.73 336.90 148.44 336.00 155.00 C 335.10 161.56 337.44 170.09 336.00 176.00 C 334.56 181.91 339.77 192.87 333.92 195.92 C 328.06 198.96 320.08 193.87 313.00 196.00 C 305.92 198.13 298.01 195.25 300.00 187.00 C 301.99 178.75 299.07 173.68 300.00 166.00 C 300.93 158.32 299.42 151.49 300.00 144.00 C 300.59 136.51 299.18 130.30 299.00 123.00
C 298.79 114.84 296.68 106.64 288.92 101.08 C 281.16 95.53 273.28 96.20 263.00 96.00 C 252.72 95.80 238.76 97.02 228.00 96.00 C 217.24 94.98 222.97 77.21 222.00 67.00 C 221.03 56.79 240.80 59.90 250.00 60.00 C 259.20 60.10 274.85 59.16 284.00 61.00 C 293.15 62.84 300.45 67.45 308.69 71.31 C 316.94 75.16 320.97 82.23 325.90 89.10 C 330.83 95.97 334.15 105.23 334.00 114.00
M 602.00 61.00 
C 611.77 56.83 628.25 61.27 639.00 60.00 C 649.75 58.73 662.17 61.77 671.08 65.92 C 679.99 70.07 684.59 74.34 690.75 82.25 C 696.92 90.15 700.00 101.78 700.00 112.00
C 700.59 118.10 702.38 124.16 701.00 131.00 C 699.62 137.84 702.86 146.47 702.00 153.00 C 701.14 159.53 703.30 169.38 702.00 175.00 C 700.70 180.62 705.40 193.45 700.00 196.00
C 690.11 196.89 681.06 195.90 671.00 196.00 C 660.94 196.10 665.56 180.53 665.00 172.00 C 664.44 163.47 664.96 151.21 665.00 142.00 C 665.04 132.79 664.68 121.88 664.22 112.78 C 663.77 103.68 659.12 99.22 651.00 96.00
C 642.45 94.70 632.70 95.77 624.00 96.00 C 615.30 96.23 604.53 94.23 596.00 96.00
C 588.24 99.53 583.35 103.74 583.00 113.00
C 582.67 121.70 583.43 131.65 583.00 140.00 C 582.57 148.35 584.28 161.67 583.00 169.00 C 581.72 176.33 587.24 193.97 579.97 195.97 C 572.71 197.98 558.76 196.74 551.00 196.00 C 543.24 195.26 547.90 177.43 547.00 170.00 C 546.10 162.57 547.34 149.54 547.00 141.00 C 546.66 132.46 547.00 120.91 547.00 112.00 C 547.00 103.09 546.70 90.65 547.00 82.00 C 547.30 73.35 543.35 59.22 554.00 60.00 C 564.66 60.78 573.06 58.60 583.00 61.00
C 582.58 67.19 582.66 72.58 582.00 79.00
C 589.95 75.05 594.74 65.71 602.00 61.00
M 520.00 113.00 
C 520.58 119.19 521.58 126.49 521.00 133.00 C 520.42 139.51 521.69 147.77 521.00 154.00 C 520.31 160.23 522.27 169.56 521.00 175.00 C 519.73 180.44 524.16 192.09 520.00 195.00
C 516.20 197.66 507.69 193.61 503.00 195.00 C 498.31 196.39 490.94 193.96 486.00 195.00
C 486.00 188.67 486.00 182.33 486.00 176.00
C 484.20 179.26 478.91 182.31 476.25 185.25 C 473.59 188.19 469.56 193.34 466.00 195.00
C 456.77 199.32 441.63 195.13 431.00 196.00 C 420.37 196.87 405.85 197.01 396.00 195.00
C 388.11 193.39 381.35 191.92 374.75 187.25 C 368.15 182.57 364.50 177.26 362.80 170.75 C 361.11 164.25 353.49 154.45 359.00 147.00
C 359.24 146.68 359.00 146.00 359.00 146.00
C 360.01 132.39 377.10 119.62 389.01 117.01 C 400.91 114.40 406.35 114.27 417.00 115.00 C 427.65 115.73 437.68 113.29 447.00 115.00 C 456.32 116.71 469.15 110.70 476.00 116.00
C 481.38 120.16 476.81 129.99 477.67 136.67 C 478.53 143.35 467.40 142.22 461.00 142.00 C 454.60 141.78 443.72 142.00 437.00 142.00 C 430.28 142.00 419.20 141.77 413.00 142.00 C 406.80 142.23 396.54 140.12 394.00 147.00
C 390.12 164.52 414.00 160.78 427.00 160.00 C 440.00 159.22 458.61 161.78 472.74 160.60 C 486.88 159.42 485.18 138.10 485.00 127.00 C 484.82 115.90 485.12 97.88 471.00 96.00
C 463.63 95.02 455.44 96.00 448.00 96.00
C 442.67 96.00 437.33 96.00 432.00 96.00
C 414.00 96.00 396.00 96.00 378.00 96.00
C 378.67 84.50 376.67 71.68 379.00 61.00
C 383.80 57.64 393.72 62.32 400.00 61.00 C 406.28 59.68 414.99 61.37 422.00 61.00 C 429.01 60.63 436.48 60.67 444.00 61.00 C 451.52 61.33 457.84 59.74 466.00 61.00 C 474.16 62.26 475.01 59.37 484.00 63.00 C 493.00 66.62 502.21 73.00 508.75 80.25 C 515.30 87.50 511.81 88.11 516.32 94.68 C 520.83 101.25 519.29 105.40 520.00 113.00
M 728.00 194.00 
C 724.20 188.56 729.52 179.04 728.00 172.00 C 726.48 164.96 728.67 155.55 728.00 148.00 C 727.34 140.45 728.25 131.77 728.00 124.00 C 727.75 116.23 728.00 107.82 728.00 100.00
C 727.60 95.91 727.61 91.02 728.00 87.00
C 728.00 85.00 728.00 83.00 728.00 81.00
C 727.69 77.78 724.48 64.46 728.00 62.00
C 730.67 60.13 741.58 62.00 745.00 62.00 C 748.42 62.00 759.33 60.13 762.00 62.00
C 765.64 64.55 762.46 77.93 763.60 82.74 C 764.73 87.55 762.53 93.88 763.80 99.25 C 765.08 104.61 763.19 113.82 763.40 119.74 C 763.62 125.67 763.68 131.48 764.00 139.00 C 764.32 146.52 763.04 153.85 764.00 162.00 C 764.96 170.15 761.88 177.09 764.00 186.00 C 766.12 194.91 757.81 198.40 750.00 196.00 C 742.19 193.60 732.24 200.05 728.00 194.00 Z"/>
</g>
<g fill="None" fill-opacity="0.0" stroke="#1D1D1D" stroke-opacity="0.43" stroke-width="0.3"><path d="
M 179.00 8.00 
C 179.00 11.00 179.00 14.00 179.00 17.00
C 179.00 17.00 179.00 17.50 179.00 18.00
C 179.00 23.67 179.00 29.33 179.00 35.00
C 179.00 43.46 179.20 53.72 179.00 62.00 C 178.80 70.28 178.41 77.89 178.93 84.92 C 179.46 91.94 178.00 92.83 178.00 101.00 C 178.00 109.17 178.44 119.26 178.00 128.00 C 177.56 136.74 179.17 145.87 178.00 155.00 C 176.83 164.13 180.68 172.38 178.00 182.00 C 175.32 191.62 182.60 199.11 191.00 196.00 C 199.40 192.89 212.38 200.50 214.00 194.00
C 211.41 197.66 202.22 193.85 198.00 195.00 C 193.78 196.15 185.58 194.14 181.00 195.00
C 181.00 130.00 181.00 65.00 181.00 0.00
L 179.00 0.00
C 179.00 2.67 179.00 5.33 179.00 8.00 Z"/>
</g>
<g fill="None" fill-opacity="0.0" stroke="#1B1B1B" stroke-opacity="0.97" stroke-width="0.3"><path d="
M 214.00 194.00 
C 217.64 179.40 212.64 162.11 214.00 147.00 C 215.36 131.89 214.00 115.25 214.00 100.00
C 214.00 97.67 214.00 95.33 214.00 93.00
C 214.00 93.00 214.00 92.50 214.00 92.00
C 214.00 85.33 214.00 78.67 214.00 72.00
C 214.00 72.00 214.00 71.50 214.00 71.00
C 214.00 64.67 214.00 58.33 214.00 52.00
C 214.00 39.69 214.89 27.83 214.00 16.00
C 213.83 13.70 214.00 11.31 214.00 9.00
C 214.00 6.00 214.00 3.00 214.00 0.00
L 181.00 0.00
C 181.00 65.00 181.00 130.00 181.00 195.00
C 185.58 194.14 193.78 196.15 198.00 195.00 C 202.22 193.85 211.41 197.66 214.00 194.00 Z"/>
</g>
<g fill="None" fill-opacity="0.0" stroke="#52A45E" stroke-opacity="0.20" stroke-width="0.3"><path d="
M 727.00 10.00 
C 727.33 13.40 728.00 17.92 728.00 22.00
C 728.00 24.48 726.63 31.68 727.00 33.00
C 728.80 37.95 739.62 36.38 744.00 36.00 C 748.38 35.62 759.91 38.09 763.00 35.00
C 763.99 33.66 762.34 33.00 761.00 33.00
C 753.72 33.00 748.44 33.61 740.00 34.00 C 731.56 34.39 727.37 32.29 729.00 23.00 C 730.63 13.71 727.78 8.88 729.00 0.00
L 727.00 0.00
C 727.00 3.33 727.00 6.67 727.00 10.00 Z"/>
</g>
<g fill="None" fill-opacity="0.0" stroke="#3DCB4D" stroke-opacity="1.00" stroke-width="0.3"><path d="
M 761.00 33.00 
C 758.57 22.57 762.83 10.57 761.00 0.00
L 729.00 0.00
C 727.78 8.88 730.63 13.71 729.00 23.00 C 727.37 32.29 731.56 34.39 740.00 34.00 C 748.44 33.61 753.72 33.00 761.00 33.00 Z"/>
</g>
<g fill="None" fill-opacity="0.0" stroke="#4FB55B" stroke-opacity="0.39" stroke-width="0.3"><path d="
M 761.00 33.00 
C 762.34 33.00 763.99 33.66 763.00 35.00
C 768.93 26.98 760.64 9.51 764.00 0.00
L 761.00 0.00
C 762.83 10.57 758.57 22.57 761.00 33.00 Z"/>
</g>
<g fill="None" fill-opacity="0.0" stroke="#1B1B1B" stroke-opacity="0.97" stroke-width="0.3"><path d="
M 781.00 96.00 
C 780.64 95.84 780.08 94.35 780.00 94.00
C 777.90 84.11 781.58 73.00 780.00 63.00
C 782.31 72.42 780.35 83.82 781.00 94.00
C 784.21 94.00 790.05 93.57 793.00 94.00 C 795.95 94.43 802.69 92.39 804.00 95.00
C 808.66 99.66 803.55 112.06 805.00 119.00 C 806.45 125.94 804.32 136.31 805.00 144.00 C 805.68 151.69 804.65 161.00 805.00 169.00 C 805.35 177.00 804.74 185.92 805.00 194.00
C 815.67 194.00 826.33 194.00 837.00 194.00
C 837.01 187.48 836.92 180.46 837.00 174.00 C 837.08 167.54 836.79 160.28 837.00 154.00 C 837.21 147.72 836.52 139.84 837.00 134.00 C 837.48 128.16 835.93 118.84 837.00 114.00 C 838.07 109.16 834.16 96.92 838.00 95.00
C 843.01 93.40 851.14 97.70 855.00 93.00
C 857.17 82.21 859.20 72.93 863.00 62.00
C 855.51 59.75 846.93 61.61 839.00 61.00
C 837.09 45.67 838.91 30.49 855.00 30.00
C 855.14 30.01 855.70 29.22 856.00 29.00
C 859.63 26.32 869.25 28.00 874.00 28.00
C 874.50 28.00 875.00 28.00 875.00 28.00
C 875.84 18.74 874.37 9.28 875.00 0.00
L 833.00 0.00
C 808.14 9.84 800.62 36.10 803.00 61.00
C 799.32 61.33 793.47 60.56 790.00 61.00 C 786.53 61.44 781.31 59.52 779.33 62.33 C 777.35 65.14 779.97 71.06 779.00 74.00 C 778.03 76.94 780.08 83.71 779.00 86.00 C 777.92 88.29 780.10 96.75 781.00 96.00
M 805.00 40.00 
C 806.29 48.37 802.03 46.06 805.00 40.00 Z"/>
</g>
<g fill="None" fill-opacity="0.0" stroke="#212023" stroke-opacity="0.13" stroke-width="0.3"><path d="
M 980.00 61.00 
C 980.79 61.14 982.55 62.88 984.00 62.00
L 984.00 0.00
L 983.00 0.00
C 981.40 5.98 984.08 13.41 983.00 20.00 C 981.92 26.59 984.64 38.24 982.99 43.99 C 981.34 49.74 985.33 58.83 980.00 61.00 Z"/>
</g>
<g fill="None" fill-opacity="0.0" stroke="#333333" stroke-opacity="0.02" stroke-width="0.3"><path d="
M 179.00 17.00 
C 179.00 14.00 179.00 11.00 179.00 8.00
C 178.74 10.67 176.87 14.12 179.00 17.00 Z"/>
</g>
<g fill="None" fill-opacity="0.0" stroke="#303030" stroke-opacity="0.02" stroke-width="0.3"><path d="
M 214.00 16.00 
C 214.03 14.25 214.19 10.93 214.00 9.00
C 214.00 11.31 213.83 13.70 214.00 16.00 Z"/>
</g>
<g fill="None" fill-opacity="0.0" stroke="#6CB975" stroke-opacity="0.02" stroke-width="0.3"><path d="
M 727.00 22.00 
C 727.00 21.96 728.00 22.00 728.00 22.00
C 728.00 17.92 727.33 13.40 727.00 10.00
C 727.00 14.00 727.00 18.00 727.00 22.00 Z"/>
</g>
<g fill="None" fill-opacity="0.0" stroke="#333333" stroke-opacity="0.02" stroke-width="0.3"><path d="
M 179.00 35.00 
C 179.00 29.33 179.00 23.67 179.00 18.00
C 176.05 21.98 178.59 30.78 179.00 35.00 Z"/>
</g>
<g fill="None" fill-opacity="0.0" stroke="#808080" stroke-opacity="0.01" stroke-width="0.3"><path d="
M 727.00 33.00 
C 726.63 31.68 728.00 24.48 728.00 22.00
C 728.00 22.00 727.00 21.96 727.00 22.00
C 727.00 25.03 725.98 30.19 727.00 33.00 Z"/>
</g>
<g fill="None" fill-opacity="0.0" stroke="#191919" stroke-opacity="0.76" stroke-width="0.3"><path d="
M 856.00 29.00 
C 861.19 28.25 869.93 31.01 874.00 28.00
C 869.25 28.00 859.63 26.32 856.00 29.00 Z"/>
</g>
<g fill="None" fill-opacity="0.0" stroke="#151515" stroke-opacity="0.15" stroke-width="0.3"><path d="
M 856.00 29.00 
C 855.70 29.22 855.14 30.01 855.00 30.00
C 858.41 29.90 874.14 32.02 875.00 28.00
C 875.00 28.00 874.50 28.00 874.00 28.00
C 869.93 31.01 861.19 28.25 856.00 29.00 Z"/>
</g>
<g fill="None" fill-opacity="0.0" stroke="#191919" stroke-opacity="0.55" stroke-width="0.3"><path d="
M 805.00 40.00 
C 802.03 46.06 806.29 48.37 805.00 40.00 Z"/>
</g>
<g fill="None" fill-opacity="0.0" stroke="#333333" stroke-opacity="0.02" stroke-width="0.3"><path d="
M 214.00 71.00 
C 217.14 66.74 214.44 56.57 214.00 52.00
C 214.00 58.33 214.00 64.67 214.00 71.00 Z"/>
</g>
<g fill="None" fill-opacity="0.0" stroke="#1B1B1B" stroke-opacity="0.96" stroke-width="0.3"><path d="
M 299.00 123.00 
C 299.25 123.98 300.69 126.05 301.00 127.00
C 304.18 136.58 301.72 149.32 302.00 160.00 C 302.28 170.68 302.97 183.27 302.00 194.00
C 312.67 194.00 323.33 194.00 334.00 194.00
C 334.00 170.00 334.00 146.00 334.00 122.00
C 333.89 119.20 333.97 115.82 334.00 114.00
C 334.15 105.23 330.83 95.97 325.90 89.10 C 320.97 82.23 316.94 75.16 308.69 71.31 C 300.45 67.45 293.15 62.84 284.00 61.00 C 274.85 59.16 259.20 60.10 250.00 60.00 C 240.80 59.90 221.03 56.79 222.00 67.00 C 222.97 77.21 217.24 94.98 228.00 96.00 C 238.76 97.02 252.72 95.80 263.00 96.00 C 273.28 96.20 281.16 95.53 288.92 101.08 C 296.68 106.64 298.79 114.84 299.00 123.00
M 274.00 61.00 
C 257.91 63.33 239.85 61.34 223.00 62.00
C 239.09 59.67 257.15 61.66 274.00 61.00 Z"/>
</g>
<g fill="None" fill-opacity="0.0" stroke="#1E1E1E" stroke-opacity="0.38" stroke-width="0.3"><path d="
M 583.00 113.00 
C 576.79 138.08 583.49 167.55 581.00 194.00
C 570.33 194.00 559.67 194.00 549.00 194.00
C 549.00 150.00 549.00 106.00 549.00 62.00
C 559.67 62.00 570.33 62.00 581.00 62.00
C 581.00 68.67 581.00 75.33 581.00 82.00
C 588.47 76.96 598.00 67.55 602.00 61.00
C 594.74 65.71 589.95 75.05 582.00 79.00
C 582.66 72.58 582.58 67.19 583.00 61.00
C 573.06 58.60 564.66 60.78 554.00 60.00 C 543.35 59.22 547.30 73.35 547.00 82.00 C 546.70 90.65 547.00 103.09 547.00 112.00 C 547.00 120.91 546.66 132.46 547.00 141.00 C 547.34 149.54 546.10 162.57 547.00 170.00 C 547.90 177.43 543.24 195.26 551.00 196.00 C 558.76 196.74 572.71 197.98 579.97 195.97 C 587.24 193.97 581.72 176.33 583.00 169.00 C 584.28 161.67 582.57 148.35 583.00 140.00 C 583.43 131.65 582.67 121.70 583.00 113.00 Z"/>
</g>
<g fill="None" fill-opacity="0.0" stroke="#1B1B1B" stroke-opacity="0.97" stroke-width="0.3"><path d="
M 602.00 61.00 
C 598.00 67.55 588.47 76.96 581.00 82.00
C 581.00 75.33 581.00 68.67 581.00 62.00
C 570.33 62.00 559.67 62.00 549.00 62.00
C 549.00 106.00 549.00 150.00 549.00 194.00
C 559.67 194.00 570.33 194.00 581.00 194.00
C 583.49 167.55 576.79 138.08 583.00 113.00
C 583.35 103.74 588.24 99.53 596.00 96.00
C 601.62 93.44 612.92 93.81 622.00 94.00 C 631.08 94.19 642.90 92.78 651.00 96.00
C 659.12 99.22 663.77 103.68 664.22 112.78 C 664.68 121.88 665.04 132.79 665.00 142.00 C 664.96 151.21 664.44 163.47 665.00 172.00 C 665.56 180.53 660.94 196.10 671.00 196.00 C 681.06 195.90 690.11 196.89 700.00 196.00
C 700.04 196.00 700.00 195.00 700.00 195.00
C 688.76 196.00 677.27 194.25 666.00 195.00
C 676.42 192.68 688.82 194.66 700.00 194.00
C 699.98 166.67 700.00 139.33 700.00 112.00
C 700.00 101.78 696.92 90.15 690.75 82.25 C 684.59 74.34 679.99 70.07 671.08 65.92 C 662.17 61.77 649.75 58.73 639.00 60.00 C 628.25 61.27 611.77 56.83 602.00 61.00 Z"/>
</g>
<g fill="None" fill-opacity="0.0" stroke="#1D1D1D" stroke-opacity="0.63" stroke-width="0.3"><path d="
M 274.00 61.00 
C 257.15 61.66 239.09 59.67 223.00 62.00
C 239.85 61.34 257.91 63.33 274.00 61.00 Z"/>
</g>
<g fill="None" fill-opacity="0.0" stroke="#1D1D1D" stroke-opacity="0.33" stroke-width="0.3"><path d="
M 432.00 96.00 
C 437.04 95.51 443.03 95.52 448.00 96.00
C 455.44 96.00 463.63 95.02 471.00 96.00
C 458.01 90.61 440.91 95.30 426.00 94.00 C 411.09 92.70 394.10 94.97 379.00 94.00
C 379.00 83.00 379.00 72.00 379.00 61.00
C 376.67 71.68 378.67 84.50 378.00 96.00
C 396.00 96.00 414.00 96.00 432.00 96.00 Z"/>
</g>
<g fill="None" fill-opacity="0.0" stroke="#1B1B1B" stroke-opacity="0.97" stroke-width="0.3"><path d="
M 471.00 96.00 
C 485.12 97.88 484.82 115.90 485.00 127.00 C 485.18 138.10 486.88 159.42 472.74 160.60 C 458.61 161.78 440.00 159.22 427.00 160.00 C 414.00 160.78 390.12 164.52 394.00 147.00
C 396.52 135.61 413.57 141.42 422.00 140.00 C 430.43 138.58 434.24 140.60 441.00 140.00 C 447.76 139.40 455.52 140.26 461.00 140.00 C 466.48 139.74 476.89 141.69 475.99 135.99 C 475.09 130.29 479.02 120.31 476.00 116.00
C 469.15 110.70 456.32 116.71 447.00 115.00 C 437.68 113.29 427.65 115.73 417.00 115.00 C 406.35 114.27 400.91 114.40 389.01 117.01 C 377.10 119.62 360.01 132.39 359.00 146.00
C 361.60 146.60 361.45 148.90 359.00 150.00
C 359.00 149.00 359.00 148.00 359.00 147.00
C 353.49 154.45 361.11 164.25 362.80 170.75 C 364.50 177.26 368.15 182.57 374.75 187.25 C 381.35 191.92 388.11 193.39 396.00 195.00
C 396.49 194.94 397.95 194.09 399.00 194.00
C 407.63 193.26 417.38 193.72 426.00 194.00 C 434.62 194.28 445.75 192.62 454.00 194.00 C 462.25 195.38 469.77 191.41 473.75 185.75 C 477.73 180.10 485.72 174.11 486.00 176.00
C 486.00 182.33 486.00 188.67 486.00 195.00
C 490.94 193.96 498.31 196.39 503.00 195.00 C 507.69 193.61 516.20 197.66 520.00 195.00
C 518.99 168.40 517.47 139.18 520.00 113.00
C 519.29 105.40 520.83 101.25 516.32 94.68 C 511.81 88.11 515.30 87.50 508.75 80.25 C 502.21 73.00 493.00 66.62 484.00 63.00 C 475.01 59.37 474.16 62.26 466.00 61.00 C 457.84 59.74 451.52 61.33 444.00 61.00 C 436.48 60.67 429.01 60.63 422.00 61.00 C 414.99 61.37 406.28 59.68 400.00 61.00 C 393.72 62.32 383.80 57.64 379.00 61.00
C 379.00 72.00 379.00 83.00 379.00 94.00
C 394.10 94.97 411.09 92.70 426.00 94.00 C 440.91 95.30 458.01 90.61 471.00 96.00 Z"/>
</g>
<g fill="None" fill-opacity="0.0" stroke="#1B1B1B" stroke-opacity="0.97" stroke-width="0.3"><path d="
M 868.00 92.00 
C 867.59 112.63 866.23 138.31 867.00 158.00
C 869.11 169.58 874.79 176.63 883.00 185.00
C 883.20 185.13 886.26 188.24 886.00 188.00
C 891.74 191.68 898.99 193.86 906.00 195.00
C 918.89 194.65 944.39 197.49 955.00 190.00
C 958.01 186.70 960.05 182.47 964.00 180.00
C 961.59 195.12 970.97 217.42 954.00 224.00
C 937.12 230.54 915.72 224.10 897.00 226.00 C 878.28 227.90 856.96 224.58 838.00 226.00
C 838.00 235.00 838.00 244.00 838.00 253.00
L 975.00 253.00
C 977.41 249.87 981.07 247.70 984.00 245.00
L 984.00 63.00
C 978.00 63.00 972.00 63.00 966.00 63.00
C 966.00 95.67 966.00 128.33 966.00 161.00
C 946.83 160.33 926.34 162.33 908.00 160.00
C 899.19 157.22 897.52 149.67 898.00 141.00 C 898.48 132.33 898.00 121.56 898.00 113.00 C 898.00 104.44 898.48 92.95 898.00 85.00 C 897.53 77.05 901.37 61.84 893.00 61.00 C 884.63 60.16 872.33 58.55 872.00 68.00 C 871.67 77.45 868.19 82.72 868.00 92.00
M 973.00 241.00 
C 971.24 249.13 964.64 239.62 973.00 241.00 Z"/>
</g>
<g fill="None" fill-opacity="0.0" stroke="#1F1F1F" stroke-opacity="0.36" stroke-width="0.3"><path d="
M 908.00 160.00 
C 926.34 162.33 946.83 160.33 966.00 161.00
C 966.00 128.33 966.00 95.67 966.00 63.00
C 972.00 63.00 978.00 63.00 984.00 63.00
L 984.00 62.00
C 982.55 62.88 980.79 61.14 980.00 61.00
C 967.80 57.69 962.46 63.18 964.00 74.00 C 965.54 84.82 963.28 92.84 964.00 103.00 C 964.72 113.16 963.61 122.16 964.00 132.00 C 964.39 141.84 963.71 150.29 964.00 160.00
C 945.77 157.57 926.09 163.24 908.00 160.00 Z"/>
</g>
<g fill="None" fill-opacity="0.0" stroke="#393939" stroke-opacity="0.02" stroke-width="0.3"><path d="
M 728.00 81.00 
C 728.00 74.67 728.00 68.33 728.00 62.00
C 724.48 64.46 727.69 77.78 728.00 81.00 Z"/>
</g>
<g fill="None" fill-opacity="0.0" stroke="#1B1B1B" stroke-opacity="0.96" stroke-width="0.3"><path d="
M 728.00 81.00 
C 728.00 83.00 728.00 85.00 728.00 87.00
C 728.00 91.33 728.00 95.67 728.00 100.00
C 728.00 107.82 727.75 116.23 728.00 124.00 C 728.25 131.77 727.34 140.45 728.00 148.00 C 728.67 155.55 726.48 164.96 728.00 172.00 C 729.52 179.04 724.20 188.56 728.00 194.00
C 731.54 197.54 739.12 193.97 744.00 195.00 C 748.88 196.03 756.84 194.23 762.00 195.00
C 760.34 151.26 760.33 105.72 762.00 62.00
C 759.33 60.13 748.42 62.00 745.00 62.00 C 741.58 62.00 730.67 60.13 728.00 62.00
C 728.00 68.33 728.00 74.67 728.00 81.00 Z"/>
</g>
<g fill="None" fill-opacity="0.0" stroke="#1D1D1D" stroke-opacity="0.41" stroke-width="0.3"><path d="
M 728.00 194.00 
C 732.24 200.05 742.19 193.60 750.00 196.00 C 757.81 198.40 766.12 194.91 764.00 186.00 C 761.88 177.09 764.96 170.15 764.00 162.00 C 763.04 153.85 764.32 146.52 764.00 139.00 C 763.68 131.48 763.62 125.67 763.40 119.74 C 763.19 113.82 765.08 104.61 763.80 99.25 C 762.53 93.88 764.73 87.55 763.60 82.74 C 762.46 77.93 765.64 64.55 762.00 62.00
C 760.33 105.72 760.34 151.26 762.00 195.00
C 756.84 194.23 748.88 196.03 744.00 195.00 C 739.12 193.97 731.54 197.54 728.00 194.00 Z"/>
</g>
<g fill="None" fill-opacity="0.0" stroke="#1B1B19" stroke-opacity="0.76" stroke-width="0.3"><path d="
M 780.00 94.00 
C 780.00 94.05 781.00 94.00 781.00 94.00
C 780.35 83.82 782.31 72.42 780.00 63.00
C 781.58 73.00 777.90 84.11 780.00 94.00 Z"/>
</g>
<g fill="None" fill-opacity="0.0" stroke="#161616" stroke-opacity="0.51" stroke-width="0.3"><path d="
M 21.00 71.00 
C 20.55 72.54 18.24 72.12 18.00 74.00
C 20.14 75.51 23.86 70.87 22.00 70.00
C 21.68 70.20 21.27 70.80 21.00 71.00 Z"/>
</g>
<g fill="None" fill-opacity="0.0" stroke="#333333" stroke-opacity="0.02" stroke-width="0.3"><path d="
M 214.00 92.00 
C 216.15 89.09 216.20 74.97 214.00 72.00
C 214.00 78.67 214.00 85.33 214.00 92.00 Z"/>
</g>
<g fill="None" fill-opacity="0.0" stroke="#313131" stroke-opacity="0.02" stroke-width="0.3"><path d="
M 728.00 100.00 
C 728.00 95.67 728.00 91.33 728.00 87.00
C 727.61 91.02 727.60 95.91 728.00 100.00 Z"/>
</g>
<g fill="None" fill-opacity="0.0" stroke="#1D1D1D" stroke-opacity="0.40" stroke-width="0.3"><path d="
M 867.00 158.00 
C 866.23 138.31 867.59 112.63 868.00 92.00
C 866.16 100.75 865.41 113.99 866.00 125.00 C 866.59 136.01 865.06 147.37 867.00 158.00 Z"/>
</g>
<g fill="None" fill-opacity="0.0" stroke="#303030" stroke-opacity="0.02" stroke-width="0.3"><path d="
M 214.00 100.00 
C 214.22 97.72 215.90 95.56 214.00 93.00
C 214.00 95.33 214.00 97.67 214.00 100.00 Z"/>
</g>
<g fill="None" fill-opacity="0.0" stroke="#191919" stroke-opacity="0.20" stroke-width="0.3"><path d="
M 838.00 95.00 
C 838.00 95.00 838.65 95.95 839.00 96.00
C 844.33 96.00 849.67 96.00 855.00 96.00
C 855.34 95.19 854.58 93.77 855.00 93.00
C 851.14 97.70 843.01 93.40 838.00 95.00 Z"/>
</g>
<g fill="None" fill-opacity="0.0" stroke="#1A1A19" stroke-opacity="0.29" stroke-width="0.3"><path d="
M 596.00 96.00 
C 604.53 94.23 615.30 96.23 624.00 96.00 C 632.70 95.77 642.45 94.70 651.00 96.00
C 642.90 92.78 631.08 94.19 622.00 94.00 C 612.92 93.81 601.62 93.44 596.00 96.00 Z"/>
</g>
<g fill="None" fill-opacity="0.0" stroke="#1A1A19" stroke-opacity="0.53" stroke-width="0.3"><path d="
M 781.00 96.00 
C 784.87 97.78 798.77 96.94 803.00 96.00
C 803.05 95.65 804.00 95.00 804.00 95.00
C 802.69 92.39 795.95 94.43 793.00 94.00 C 790.05 93.57 784.21 94.00 781.00 94.00
C 781.00 94.00 780.00 94.05 780.00 94.00
C 780.08 94.35 780.64 95.84 781.00 96.00 Z"/>
</g>
<g fill="None" fill-opacity="0.0" stroke="#252519" stroke-opacity="0.08" stroke-width="0.3"><path d="
M 432.00 96.00 
C 437.33 96.00 442.67 96.00 448.00 96.00
C 443.03 95.52 437.04 95.51 432.00 96.00 Z"/>
</g>
<g fill="None" fill-opacity="0.0" stroke="#1C1C1C" stroke-opacity="0.11" stroke-width="0.3"><path d="
M 803.00 96.00 
C 801.40 107.12 803.74 120.98 803.00 132.00 C 802.26 143.02 803.38 157.72 803.00 168.00 C 802.62 178.28 799.97 197.38 811.00 196.00 C 822.03 194.62 838.86 201.53 839.00 189.00
C 838.87 190.31 837.76 193.79 837.00 195.00
C 826.09 195.98 814.93 194.27 804.00 195.00
C 804.00 161.67 804.00 128.33 804.00 95.00
C 804.00 95.00 803.05 95.65 803.00 96.00 Z"/>
</g>
<g fill="None" fill-opacity="0.0" stroke="#1D1D1D" stroke-opacity="0.68" stroke-width="0.3"><path d="
M 837.00 195.00 
C 837.04 195.00 837.00 194.00 837.00 194.00
C 826.33 194.00 815.67 194.00 805.00 194.00
C 804.74 185.92 805.35 177.00 805.00 169.00 C 804.65 161.00 805.68 151.69 805.00 144.00 C 804.32 136.31 806.45 125.94 805.00 119.00 C 803.55 112.06 808.66 99.66 804.00 95.00
C 804.00 128.33 804.00 161.67 804.00 195.00
C 814.93 194.27 826.09 195.98 837.00 195.00 Z"/>
</g>
<g fill="None" fill-opacity="0.0" stroke="#1F1F20" stroke-opacity="0.35" stroke-width="0.3"><path d="
M 837.00 194.00 
C 837.00 194.00 837.04 195.00 837.00 195.00
C 837.76 193.79 838.87 190.31 839.00 189.00
C 839.10 179.80 839.19 170.07 838.80 161.25 C 838.41 152.42 839.91 144.22 839.00 133.00 C 838.09 121.78 841.38 106.71 839.00 96.00
C 838.65 95.95 838.00 95.00 838.00 95.00
C 834.16 96.92 838.07 109.16 837.00 114.00 C 835.93 118.84 837.48 128.16 837.00 134.00 C 836.52 139.84 837.21 147.72 837.00 154.00 C 836.79 160.28 837.08 167.54 837.00 174.00 C 836.92 180.46 837.01 187.48 837.00 194.00 Z"/>
</g>
<g fill="None" fill-opacity="0.0" stroke="#222222" stroke-opacity="0.16" stroke-width="0.3"><path d="
M 700.00 194.00 
C 700.00 194.50 700.00 195.00 700.00 195.00
C 700.00 195.00 700.04 196.00 700.00 196.00
C 705.40 193.45 700.70 180.62 702.00 175.00 C 703.30 169.38 701.14 159.53 702.00 153.00 C 702.86 146.47 699.62 137.84 701.00 131.00 C 702.38 124.16 700.59 118.10 700.00 112.00
C 700.00 139.33 699.98 166.67 700.00 194.00 Z"/>
</g>
<g fill="None" fill-opacity="0.0" stroke="#191919" stroke-opacity="0.53" stroke-width="0.3"><path d="
M 520.00 195.00 
C 524.16 192.09 519.73 180.44 521.00 175.00 C 522.27 169.56 520.31 160.23 521.00 154.00 C 521.69 147.77 520.42 139.51 521.00 133.00 C 521.58 126.49 520.58 119.19 520.00 113.00
C 517.47 139.18 518.99 168.40 520.00 195.00 Z"/>
</g>
<g fill="None" fill-opacity="0.0" stroke="#191919" stroke-opacity="0.15" stroke-width="0.3"><path d="
M 334.00 122.00 
C 337.33 145.29 333.59 170.93 335.00 195.00
C 323.83 194.33 311.34 196.33 301.00 194.00
C 299.03 172.30 305.10 148.35 301.00 127.00
C 300.69 126.05 299.25 123.98 299.00 123.00
C 299.18 130.30 300.59 136.51 300.00 144.00 C 299.42 151.49 300.93 158.32 300.00 166.00 C 299.07 173.68 301.99 178.75 300.00 187.00 C 298.01 195.25 305.92 198.13 313.00 196.00 C 320.08 193.87 328.06 198.96 333.92 195.92 C 339.77 192.87 334.56 181.91 336.00 176.00 C 337.44 170.09 335.10 161.56 336.00 155.00 C 336.90 148.44 335.02 139.73 336.00 133.00 C 336.98 126.27 335.02 119.72 334.00 114.00
C 333.97 115.82 333.89 119.20 334.00 122.00 Z"/>
</g>
<g fill="None" fill-opacity="0.0" stroke="#1D1D1D" stroke-opacity="0.18" stroke-width="0.3"><path d="
M 394.00 147.00 
C 396.54 140.12 406.80 142.23 413.00 142.00 C 419.20 141.77 430.28 142.00 437.00 142.00 C 443.72 142.00 454.60 141.78 461.00 142.00 C 467.40 142.22 478.53 143.35 477.67 136.67 C 476.81 129.99 481.38 120.16 476.00 116.00
C 479.02 120.31 475.09 130.29 475.99 135.99 C 476.89 141.69 466.48 139.74 461.00 140.00 C 455.52 140.26 447.76 139.40 441.00 140.00 C 434.24 140.60 430.43 138.58 422.00 140.00 C 413.57 141.42 396.52 135.61 394.00 147.00 Z"/>
</g>
<g fill="None" fill-opacity="0.0" stroke="#1A1A1A" stroke-opacity="0.60" stroke-width="0.3"><path d="
M 302.00 194.00 
C 301.50 194.00 301.00 194.00 301.00 194.00
C 311.34 196.33 323.83 194.33 335.00 195.00
C 333.59 170.93 337.33 145.29 334.00 122.00
C 334.00 146.00 334.00 170.00 334.00 194.00
C 323.33 194.00 312.67 194.00 302.00 194.00 Z"/>
</g>
<g fill="None" fill-opacity="0.0" stroke="#191919" stroke-opacity="0.84" stroke-width="0.3"><path d="
M 301.00 194.00 
C 301.00 194.00 301.50 194.00 302.00 194.00
C 302.97 183.27 302.28 170.68 302.00 160.00 C 301.72 149.32 304.18 136.58 301.00 127.00
C 305.10 148.35 299.03 172.30 301.00 194.00 Z"/>
</g>
<g fill="None" fill-opacity="0.0" stroke="#151515" stroke-opacity="0.58" stroke-width="0.3"><path d="
M 359.00 147.00 
C 359.00 148.00 359.00 149.00 359.00 150.00
C 361.45 148.90 361.60 146.60 359.00 146.00
C 359.00 146.00 359.24 146.68 359.00 147.00 Z"/>
</g>
<g fill="None" fill-opacity="0.0" stroke="#151515" stroke-opacity="0.62" stroke-width="0.3"><path d="
M 0.00 158.00 
C 0.00 158.00 0.99 157.94 1.00 158.00
C 0.98 157.55 3.64 153.12 0.00 154.00
L 0.00 158.00 Z"/>
</g>
<g fill="None" fill-opacity="0.0" stroke="#1A1A1A" stroke-opacity="0.33" stroke-width="0.3"><path d="
M 44.00 160.00 
C 54.14 164.22 69.61 161.72 81.00 162.00 C 92.39 162.28 106.82 164.67 113.00 157.00
C 104.30 162.73 90.56 160.28 80.00 160.00 C 69.44 159.72 54.53 162.14 44.00 160.00 Z"/>
</g>
<g fill="None" fill-opacity="0.0" stroke="#181818" stroke-opacity="0.59" stroke-width="0.3"><path d="
M 399.00 194.00 
C 408.92 194.51 421.40 196.50 432.00 195.00 C 442.60 193.50 455.79 198.06 466.00 195.00
C 469.56 193.34 473.59 188.19 476.25 185.25 C 478.91 182.31 484.20 179.26 486.00 176.00
C 485.72 174.11 477.73 180.10 473.75 185.75 C 469.77 191.41 462.25 195.38 454.00 194.00 C 445.75 192.62 434.62 194.28 426.00 194.00 C 417.38 193.72 407.63 193.26 399.00 194.00 Z"/>
</g>
<g fill="None" fill-opacity="0.0" stroke="#181819" stroke-opacity="0.74" stroke-width="0.3"><path d="
M 101.00 193.00 
C 106.69 191.42 115.77 179.52 119.00 175.00
C 111.63 177.13 107.47 189.43 101.00 193.00 Z"/>
</g>
<g fill="None" fill-opacity="0.0" stroke="#171717" stroke-opacity="0.33" stroke-width="0.3"><path d="
M 883.00 185.00 
C 884.03 186.05 884.62 187.11 886.00 188.00
C 886.26 188.24 883.20 185.13 883.00 185.00 Z"/>
</g>
<g fill="None" fill-opacity="0.0" stroke="#161616" stroke-opacity="0.36" stroke-width="0.3"><path d="
M 906.00 195.00 
C 914.46 196.37 923.70 195.74 933.00 196.00 C 942.30 196.26 948.78 197.28 955.00 190.00
C 944.39 197.49 918.89 194.65 906.00 195.00 Z"/>
</g>
<g fill="None" fill-opacity="0.0" stroke="#161616" stroke-opacity="0.10" stroke-width="0.3"><path d="
M 396.00 195.00 
C 405.85 197.01 420.37 196.87 431.00 196.00 C 441.63 195.13 456.77 199.32 466.00 195.00
C 455.79 198.06 442.60 193.50 432.00 195.00 C 421.40 196.50 408.92 194.51 399.00 194.00
C 397.95 194.09 396.49 194.94 396.00 195.00 Z"/>
</g>
<g fill="None" fill-opacity="0.0" stroke="#1B1B1B" stroke-opacity="0.65" stroke-width="0.3"><path d="
M 700.00 195.00 
C 700.00 195.00 700.00 194.50 700.00 194.00
C 688.82 194.66 676.42 192.68 666.00 195.00
C 677.27 194.25 688.76 196.00 700.00 195.00 Z"/>
</g>
<g fill="None" fill-opacity="0.0" stroke="#1E1E1E" stroke-opacity="0.39" stroke-width="0.3"><path d="
M 837.00 253.00 
L 838.00 253.00
C 838.00 244.00 838.00 235.00 838.00 226.00
C 856.96 224.58 878.28 227.90 897.00 226.00 C 915.72 224.10 937.12 230.54 954.00 224.00
C 941.87 225.62 929.25 223.28 917.00 224.00 C 904.75 224.72 893.43 223.75 881.00 224.00 C 868.57 224.25 856.77 224.01 844.00 224.00 C 831.23 223.99 839.12 243.74 837.00 253.00 Z"/>
</g>
<g fill="None" fill-opacity="0.0" stroke="#525251" stroke-opacity="1.00" stroke-width="0.3"><path d="
M 973.00 241.00 
C 964.64 239.62 971.24 249.13 973.00 241.00 Z"/>
</g>
<g fill="None" fill-opacity="0.0" stroke="#000000" stroke-opacity="0.03" stroke-width="0.3"><path d="
M 975.00 253.00 
L 984.00 253.00
L 984.00 245.00
C 981.07 247.70 977.41 249.87 975.00 253.00 Z"/>
</g>
<g fill="#000000" fill-opacity="0.00" stroke="None">
<path d="
M 0.00 108.00 
C 2.82 96.05 7.94 77.13 21.00 71.00
C 21.27 70.80 21.68 70.20 22.00 70.00
C 47.25 54.34 80.69 63.46 110.00 61.00
C 110.00 72.67 110.00 84.33 110.00 96.00
C 94.07 93.99 75.68 98.68 60.00 96.00 C 44.32 93.32 33.88 103.87 35.00 119.00 C 36.12 134.13 29.57 152.11 44.00 160.00
C 54.53 162.14 69.44 159.72 80.00 160.00 C 90.56 160.28 104.30 162.73 113.00 157.00
C 123.26 144.26 118.18 127.30 119.00 110.00 C 119.82 92.70 118.57 72.80 119.00 55.00 C 119.43 37.20 118.68 17.93 119.00 0.00
L 0.00 0.00
L 0.00 108.00 Z"/>
</g>
<g fill="#1B1B1B" fill-opacity="0.97" stroke="None">
<path d="
M 113.00 157.00 
C 106.82 164.67 92.39 162.28 81.00 162.00 C 69.61 161.72 54.14 164.22 44.00 160.00
C 29.57 152.11 36.12 134.13 35.00 119.00 C 33.88 103.87 44.32 93.32 60.00 96.00 C 75.68 98.68 94.07 93.99 110.00 96.00
C 110.00 84.33 110.00 72.67 110.00 61.00
C 80.69 63.46 47.25 54.34 22.00 70.00
C 23.86 70.87 20.14 75.51 18.00 74.00
C 18.24 72.12 20.55 72.54 21.00 71.00
C 7.94 77.13 2.82 96.05 0.00 108.00
L 0.00 154.00
C 3.64 153.12 0.98 157.55 1.00 158.00
C 3.38 178.13 19.81 192.12 40.00 195.00
C 49.25 194.46 60.05 194.13 70.00 194.00 C 79.95 193.87 91.61 195.61 101.00 193.00
C 107.47 189.43 111.63 177.13 119.00 175.00
C 119.61 174.82 120.77 173.24 122.00 174.00
C 122.99 180.85 118.27 194.64 128.00 194.00 C 137.74 193.36 144.53 194.48 154.00 194.00
C 154.00 129.33 154.00 64.67 154.00 0.00
L 119.00 0.00
C 118.68 17.93 119.43 37.20 119.00 55.00 C 118.57 72.80 119.82 92.70 119.00 110.00 C 118.18 127.30 123.26 144.26 113.00 157.00 Z"/>
</g>
<g fill="#191919" fill-opacity="0.43" stroke="None">
<path d="
M 119.00 175.00 
C 115.77 179.52 106.69 191.42 101.00 193.00
C 91.61 195.61 79.95 193.87 70.00 194.00 C 60.05 194.13 49.25 194.46 40.00 195.00
C 55.04 197.15 73.49 194.45 89.00 196.00 C 104.51 197.55 109.62 185.48 120.00 177.00
C 116.67 188.30 121.21 198.54 132.00 196.00 C 142.79 193.46 155.58 200.99 156.00 189.00 C 156.42 177.01 155.80 168.18 156.00 157.00 C 156.20 145.82 155.91 136.76 156.00 126.00 C 156.09 115.24 155.96 105.62 156.00 95.00 C 156.04 84.38 155.98 73.57 156.00 63.00 C 156.02 52.43 155.99 42.56 156.00 32.00 C 156.01 21.44 155.99 10.59 156.00 0.00
L 154.00 0.00
C 154.00 64.67 154.00 129.33 154.00 194.00
C 144.53 194.48 137.74 193.36 128.00 194.00 C 118.27 194.64 122.99 180.85 122.00 174.00
C 120.77 173.24 119.61 174.82 119.00 175.00 Z"/>
</g>
<g fill="#000000" fill-opacity="0.00" stroke="None">
<path d="
M 40.00 195.00 
C 19.81 192.12 3.38 178.13 1.00 158.00
C 0.99 157.94 0.00 158.00 0.00 158.00
L 0.00 253.00
L 837.00 253.00
C 839.12 243.74 831.23 223.99 844.00 224.00 C 856.77 224.01 868.57 224.25 881.00 224.00 C 893.43 223.75 904.75 224.72 917.00 224.00 C 929.25 223.28 941.87 225.62 954.00 224.00
C 970.97 217.42 961.59 195.12 964.00 180.00
C 960.05 182.47 958.01 186.70 955.00 190.00
C 948.78 197.28 942.30 196.26 933.00 196.00 C 923.70 195.74 914.46 196.37 906.00 195.00
C 898.99 193.86 891.74 191.68 886.00 188.00
C 884.62 187.11 884.03 186.05 883.00 185.00
C 874.79 176.63 869.11 169.58 867.00 158.00
C 865.06 147.37 866.59 136.01 866.00 125.00 C 865.41 113.99 866.16 100.75 868.00 92.00
C 868.19 82.72 871.67 77.45 872.00 68.00 C 872.33 58.55 884.63 60.16 893.00 61.00 C 901.37 61.84 897.53 77.05 898.00 85.00 C 898.48 92.95 898.00 104.44 898.00 113.00 C 898.00 121.56 898.48 132.33 898.00 141.00 C 897.52 149.67 899.19 157.22 908.00 160.00
C 926.09 163.24 945.77 157.57 964.00 160.00
C 963.71 150.29 964.39 141.84 964.00 132.00 C 963.61 122.16 964.72 113.16 964.00 103.00 C 963.28 92.84 965.54 84.82 964.00 74.00 C 962.46 63.18 967.80 57.69 980.00 61.00
C 985.33 58.83 981.34 49.74 982.99 43.99 C 984.64 38.24 981.92 26.59 983.00 20.00 C 984.08 13.41 981.40 5.98 983.00 0.00
L 875.00 0.00
C 874.37 9.28 875.84 18.74 875.00 28.00
C 874.14 32.02 858.41 29.90 855.00 30.00
C 838.91 30.49 837.09 45.67 839.00 61.00
C 846.93 61.61 855.51 59.75 863.00 62.00
C 859.20 72.93 857.17 82.21 855.00 93.00
C 854.58 93.77 855.34 95.19 855.00 96.00
C 849.67 96.00 844.33 96.00 839.00 96.00
C 841.38 106.71 838.09 121.78 839.00 133.00 C 839.91 144.22 838.41 152.42 838.80 161.25 C 839.19 170.07 839.10 179.80 839.00 189.00
C 838.86 201.53 822.03 194.62 811.00 196.00 C 799.97 197.38 802.62 178.28 803.00 168.00 C 803.38 157.72 802.26 143.02 803.00 132.00 C 803.74 120.98 801.40 107.12 803.00 96.00
C 798.77 96.94 784.87 97.78 781.00 96.00
C 780.10 96.75 777.92 88.29 779.00 86.00 C 780.08 83.71 778.03 76.94 779.00 74.00 C 779.97 71.06 777.35 65.14 779.33 62.33 C 781.31 59.52 786.53 61.44 790.00 61.00 C 793.47 60.56 799.32 61.33 803.00 61.00
C 800.62 36.10 808.14 9.84 833.00 0.00
L 764.00 0.00
C 760.64 9.51 768.93 26.98 763.00 35.00
C 759.91 38.09 748.38 35.62 744.00 36.00 C 739.62 36.38 728.80 37.95 727.00 33.00
C 725.98 30.19 727.00 25.03 727.00 22.00
C 727.00 18.00 727.00 14.00 727.00 10.00
C 727.00 6.67 727.00 3.33 727.00 0.00
L 214.00 0.00
C 214.00 3.00 214.00 6.00 214.00 9.00
C 214.19 10.93 214.03 14.25 214.00 16.00
C 214.89 27.83 214.00 39.69 214.00 52.00
C 214.44 56.57 217.14 66.74 214.00 71.00
C 214.00 71.50 214.00 72.00 214.00 72.00
C 216.20 74.97 216.15 89.09 214.00 92.00
C 214.00 92.50 214.00 93.00 214.00 93.00
C 215.90 95.56 214.22 97.72 214.00 100.00
C 214.00 115.25 215.36 131.89 214.00 147.00 C 212.64 162.11 217.64 179.40 214.00 194.00
C 212.38 200.50 199.40 192.89 191.00 196.00 C 182.60 199.11 175.32 191.62 178.00 182.00 C 180.68 172.38 176.83 164.13 178.00 155.00 C 179.17 145.87 177.56 136.74 178.00 128.00 C 178.44 119.26 178.00 109.17 178.00 101.00 C 178.00 92.83 179.46 91.94 178.93 84.92 C 178.41 77.89 178.80 70.28 179.00 62.00 C 179.20 53.72 179.00 43.46 179.00 35.00
C 178.59 30.78 176.05 21.98 179.00 18.00
C 179.00 17.50 179.00 17.00 179.00 17.00
C 176.87 14.12 178.74 10.67 179.00 8.00
C 179.00 5.33 179.00 2.67 179.00 0.00
L 156.00 0.00
C 155.99 10.59 156.01 21.44 156.00 32.00 C 155.99 42.56 156.02 52.43 156.00 63.00 C 155.98 73.57 156.04 84.38 156.00 95.00 C 155.96 105.62 156.09 115.24 156.00 126.00 C 155.91 136.76 156.20 145.82 156.00 157.00 C 155.80 168.18 156.42 177.01 156.00 189.00 C 155.58 200.99 142.79 193.46 132.00 196.00 C 121.21 198.54 116.67 188.30 120.00 177.00
C 109.62 185.48 104.51 197.55 89.00 196.00 C 73.49 194.45 55.04 197.15 40.00 195.00
M 334.00 114.00 
C 335.02 119.72 336.98 126.27 336.00 133.00 C 335.02 139.73 336.90 148.44 336.00 155.00 C 335.10 161.56 337.44 170.09 336.00 176.00 C 334.56 181.91 339.77 192.87 333.92 195.92 C 328.06 198.96 320.08 193.87 313.00 196.00 C 305.92 198.13 298.01 195.25 300.00 187.00 C 301.99 178.75 299.07 173.68 300.00 166.00 C 300.93 158.32 299.42 151.49 300.00 144.00 C 300.59 136.51 299.18 130.30 299.00 123.00
C 298.79 114.84 296.68 106.64 288.92 101.08 C 281.16 95.53 273.28 96.20 263.00 96.00 C 252.72 95.80 238.76 97.02 228.00 96.00 C 217.24 94.98 222.97 77.21 222.00 67.00 C 221.03 56.79 240.80 59.90 250.00 60.00 C 259.20 60.10 274.85 59.16 284.00 61.00 C 293.15 62.84 300.45 67.45 308.69 71.31 C 316.94 75.16 320.97 82.23 325.90 89.10 C 330.83 95.97 334.15 105.23 334.00 114.00
M 602.00 61.00 
C 611.77 56.83 628.25 61.27 639.00 60.00 C 649.75 58.73 662.17 61.77 671.08 65.92 C 679.99 70.07 684.59 74.34 690.75 82.25 C 696.92 90.15 700.00 101.78 700.00 112.00
C 700.59 118.10 702.38 124.16 701.00 131.00 C 699.62 137.84 702.86 146.47 702.00 153.00 C 701.14 159.53 703.30 169.38 702.00 175.00 C 700.70 180.62 705.40 193.45 700.00 196.00
C 690.11 196.89 681.06 195.90 671.00 196.00 C 660.94 196.10 665.56 180.53 665.00 172.00 C 664.44 163.47 664.96 151.21 665.00 142.00 C 665.04 132.79 664.68 121.88 664.22 112.78 C 663.77 103.68 659.12 99.22 651.00 96.00
C 642.45 94.70 632.70 95.77 624.00 96.00 C 615.30 96.23 604.53 94.23 596.00 96.00
C 588.24 99.53 583.35 103.74 583.00 113.00
C 582.67 121.70 583.43 131.65 583.00 140.00 C 582.57 148.35 584.28 161.67 583.00 169.00 C 581.72 176.33 587.24 193.97 579.97 195.97 C 572.71 197.98 558.76 196.74 551.00 196.00 C 543.24 195.26 547.90 177.43 547.00 170.00 C 546.10 162.57 547.34 149.54 547.00 141.00 C 546.66 132.46 547.00 120.91 547.00 112.00 C 547.00 103.09 546.70 90.65 547.00 82.00 C 547.30 73.35 543.35 59.22 554.00 60.00 C 564.66 60.78 573.06 58.60 583.00 61.00
C 582.58 67.19 582.66 72.58 582.00 79.00
C 589.95 75.05 594.74 65.71 602.00 61.00
M 520.00 113.00 
C 520.58 119.19 521.58 126.49 521.00 133.00 C 520.42 139.51 521.69 147.77 521.00 154.00 C 520.31 160.23 522.27 169.56 521.00 175.00 C 519.73 180.44 524.16 192.09 520.00 195.00
C 516.20 197.66 507.69 193.61 503.00 195.00 C 498.31 196.39 490.94 193.96 486.00 195.00
C 486.00 188.67 486.00 182.33 486.00 176.00
C 484.20 179.26 478.91 182.31 476.25 185.25 C 473.59 188.19 469.56 193.34 466.00 195.00
C 456.77 199.32 441.63 195.13 431.00 196.00 C 420.37 196.87 405.85 197.01 396.00 195.00
C 388.11 193.39 381.35 191.92 374.75 187.25 C 368.15 182.57 364.50 177.26 362.80 170.75 C 361.11 164.25 353.49 154.45 359.00 147.00
C 359.24 146.68 359.00 146.00 359.00 146.00
C 360.01 132.39 377.10 119.62 389.01 117.01 C 400.91 114.40 406.35 114.27 417.00 115.00 C 427.65 115.73 437.68 113.29 447.00 115.00 C 456.32 116.71 469.15 110.70 476.00 116.00
C 481.38 120.16 476.81 129.99 477.67 136.67 C 478.53 143.35 467.40 142.22 461.00 142.00 C 454.60 141.78 443.72 142.00 437.00 142.00 C 430.28 142.00 419.20 141.77 413.00 142.00 C 406.80 142.23 396.54 140.12 394.00 147.00
C 390.12 164.52 414.00 160.78 427.00 160.00 C 440.00 159.22 458.61 161.78 472.74 160.60 C 486.88 159.42 485.18 138.10 485.00 127.00 C 484.82 115.90 485.12 97.88 471.00 96.00
C 463.63 95.02 455.44 96.00 448.00 96.00
C 442.67 96.00 437.33 96.00 432.00 96.00
C 414.00 96.00 396.00 96.00 378.00 96.00
C 378.67 84.50 376.67 71.68 379.00 61.00
C 383.80 57.64 393.72 62.32 400.00 61.00 C 406.28 59.68 414.99 61.37 422.00 61.00 C 429.01 60.63 436.48 60.67 444.00 61.00 C 451.52 61.33 457.84 59.74 466.00 61.00 C 474.16 62.26 475.01 59.37 484.00 63.00 C 493.00 66.62 502.21 73.00 508.75 80.25 C 515.30 87.50 511.81 88.11 516.32 94.68 C 520.83 101.25 519.29 105.40 520.00 113.00
M 728.00 194.00 
C 724.20 188.56 729.52 179.04 728.00 172.00 C 726.48 164.96 728.67 155.55 728.00 148.00 C 727.34 140.45 728.25 131.77 728.00 124.00 C 727.75 116.23 728.00 107.82 728.00 100.00
C 727.60 95.91 727.61 91.02 728.00 87.00
C 728.00 85.00 728.00 83.00 728.00 81.00
C 727.69 77.78 724.48 64.46 728.00 62.00
C 730.67 60.13 741.58 62.00 745.00 62.00 C 748.42 62.00 759.33 60.13 762.00 62.00
C 765.64 64.55 762.46 77.93 763.60 82.74 C 764.73 87.55 762.53 93.88 763.80 99.25 C 765.08 104.61 763.19 113.82 763.40 119.74 C 763.62 125.67 763.68 131.48 764.00 139.00 C 764.32 146.52 763.04 153.85 764.00 162.00 C 764.96 170.15 761.88 177.09 764.00 186.00 C 766.12 194.91 757.81 198.40 750.00 196.00 C 742.19 193.60 732.24 200.05 728.00 194.00 Z"/>
</g>
<g fill="#1D1D1D" fill-opacity="0.43" stroke="None">
<path d="
M 179.00 8.00 
C 179.00 11.00 179.00 14.00 179.00 17.00
C 179.00 17.00 179.00 17.50 179.00 18.00
C 179.00 23.67 179.00 29.33 179.00 35.00
C 179.00 43.46 179.20 53.72 179.00 62.00 C 178.80 70.28 178.41 77.89 178.93 84.92 C 179.46 91.94 178.00 92.83 178.00 101.00 C 178.00 109.17 178.44 119.26 178.00 128.00 C 177.56 136.74 179.17 145.87 178.00 155.00 C 176.83 164.13 180.68 172.38 178.00 182.00 C 175.32 191.62 182.60 199.11 191.00 196.00 C 199.40 192.89 212.38 200.50 214.00 194.00
C 211.41 197.66 202.22 193.85 198.00 195.00 C 193.78 196.15 185.58 194.14 181.00 195.00
C 181.00 130.00 181.00 65.00 181.00 0.00
L 179.00 0.00
C 179.00 2.67 179.00 5.33 179.00 8.00 Z"/>
</g>
<g fill="#1B1B1B" fill-opacity="0.97" stroke="None">
<path d="
M 214.00 194.00 
C 217.64 179.40 212.64 162.11 214.00 147.00 C 215.36 131.89 214.00 115.25 214.00 100.00
C 214.00 97.67 214.00 95.33 214.00 93.00
C 214.00 93.00 214.00 92.50 214.00 92.00
C 214.00 85.33 214.00 78.67 214.00 72.00
C 214.00 72.00 214.00 71.50 214.00 71.00
C 214.00 64.67 214.00 58.33 214.00 52.00
C 214.00 39.69 214.89 27.83 214.00 16.00
C 213.83 13.70 214.00 11.31 214.00 9.00
C 214.00 6.00 214.00 3.00 214.00 0.00
L 181.00 0.00
C 181.00 65.00 181.00 130.00 181.00 195.00
C 185.58 194.14 193.78 196.15 198.00 195.00 C 202.22 193.85 211.41 197.66 214.00 194.00 Z"/>
</g>
<g fill="#52A45E" fill-opacity="0.20" stroke="None">
<path d="
M 727.00 10.00 
C 727.33 13.40 728.00 17.92 728.00 22.00
C 728.00 24.48 726.63 31.68 727.00 33.00
C 728.80 37.95 739.62 36.38 744.00 36.00 C 748.38 35.62 759.91 38.09 763.00 35.00
C 763.99 33.66 762.34 33.00 761.00 33.00
C 753.72 33.00 748.44 33.61 740.00 34.00 C 731.56 34.39 727.37 32.29 729.00 23.00 C 730.63 13.71 727.78 8.88 729.00 0.00
L 727.00 0.00
C 727.00 3.33 727.00 6.67 727.00 10.00 Z"/>
</g>
<g fill="#3DCB4D" fill-opacity="1.00" stroke="None">
<path d="
M 761.00 33.00 
C 758.57 22.57 762.83 10.57 761.00 0.00
L 729.00 0.00
C 727.78 8.88 730.63 13.71 729.00 23.00 C 727.37 32.29 731.56 34.39 740.00 34.00 C 748.44 33.61 753.72 33.00 761.00 33.00 Z"/>
</g>
<g fill="#4FB55B" fill-opacity="0.39" stroke="None">
<path d="
M 761.00 33.00 
C 762.34 33.00 763.99 33.66 763.00 35.00
C 768.93 26.98 760.64 9.51 764.00 0.00
L 761.00 0.00
C 762.83 10.57 758.57 22.57 761.00 33.00 Z"/>
</g>
<g fill="#1B1B1B" fill-opacity="0.97" stroke="None">
<path d="
M 781.00 96.00 
C 780.64 95.84 780.08 94.35 780.00 94.00
C 777.90 84.11 781.58 73.00 780.00 63.00
C 782.31 72.42 780.35 83.82 781.00 94.00
C 784.21 94.00 790.05 93.57 793.00 94.00 C 795.95 94.43 802.69 92.39 804.00 95.00
C 808.66 99.66 803.55 112.06 805.00 119.00 C 806.45 125.94 804.32 136.31 805.00 144.00 C 805.68 151.69 804.65 161.00 805.00 169.00 C 805.35 177.00 804.74 185.92 805.00 194.00
C 815.67 194.00 826.33 194.00 837.00 194.00
C 837.01 187.48 836.92 180.46 837.00 174.00 C 837.08 167.54 836.79 160.28 837.00 154.00 C 837.21 147.72 836.52 139.84 837.00 134.00 C 837.48 128.16 835.93 118.84 837.00 114.00 C 838.07 109.16 834.16 96.92 838.00 95.00
C 843.01 93.40 851.14 97.70 855.00 93.00
C 857.17 82.21 859.20 72.93 863.00 62.00
C 855.51 59.75 846.93 61.61 839.00 61.00
C 837.09 45.67 838.91 30.49 855.00 30.00
C 855.14 30.01 855.70 29.22 856.00 29.00
C 859.63 26.32 869.25 28.00 874.00 28.00
C 874.50 28.00 875.00 28.00 875.00 28.00
C 875.84 18.74 874.37 9.28 875.00 0.00
L 833.00 0.00
C 808.14 9.84 800.62 36.10 803.00 61.00
C 799.32 61.33 793.47 60.56 790.00 61.00 C 786.53 61.44 781.31 59.52 779.33 62.33 C 777.35 65.14 779.97 71.06 779.00 74.00 C 778.03 76.94 780.08 83.71 779.00 86.00 C 777.92 88.29 780.10 96.75 781.00 96.00
M 805.00 40.00 
C 806.29 48.37 802.03 46.06 805.00 40.00 Z"/>
</g>
<g fill="#212023" fill-opacity="0.13" stroke="None">
<path d="
M 980.00 61.00 
C 980.79 61.14 982.55 62.88 984.00 62.00
L 984.00 0.00
L 983.00 0.00
C 981.40 5.98 984.08 13.41 983.00 20.00 C 981.92 26.59 984.64 38.24 982.99 43.99 C 981.34 49.74 985.33 58.83 980.00 61.00 Z"/>
</g>
<g fill="#333333" fill-opacity="0.02" stroke="None">
<path d="
M 179.00 17.00 
C 179.00 14.00 179.00 11.00 179.00 8.00
C 178.74 10.67 176.87 14.12 179.00 17.00 Z"/>
</g>
<g fill="#303030" fill-opacity="0.02" stroke="None">
<path d="
M 214.00 16.00 
C 214.03 14.25 214.19 10.93 214.00 9.00
C 214.00 11.31 213.83 13.70 214.00 16.00 Z"/>
</g>
<g fill="#6CB975" fill-opacity="0.02" stroke="None">
<path d="
M 727.00 22.00 
C 727.00 21.96 728.00 22.00 728.00 22.00
C 728.00 17.92 727.33 13.40 727.00 10.00
C 727.00 14.00 727.00 18.00 727.00 22.00 Z"/>
</g>
<g fill="#333333" fill-opacity="0.02" stroke="None">
<path d="
M 179.00 35.00 
C 179.00 29.33 179.00 23.67 179.00 18.00
C 176.05 21.98 178.59 30.78 179.00 35.00 Z"/>
</g>
<g fill="#808080" fill-opacity="0.01" stroke="None">
<path d="
M 727.00 33.00 
C 726.63 31.68 728.00 24.48 728.00 22.00
C 728.00 22.00 727.00 21.96 727.00 22.00
C 727.00 25.03 725.98 30.19 727.00 33.00 Z"/>
</g>
<g fill="#191919" fill-opacity="0.76" stroke="None">
<path d="
M 856.00 29.00 
C 861.19 28.25 869.93 31.01 874.00 28.00
C 869.25 28.00 859.63 26.32 856.00 29.00 Z"/>
</g>
<g fill="#151515" fill-opacity="0.15" stroke="None">
<path d="
M 856.00 29.00 
C 855.70 29.22 855.14 30.01 855.00 30.00
C 858.41 29.90 874.14 32.02 875.00 28.00
C 875.00 28.00 874.50 28.00 874.00 28.00
C 869.93 31.01 861.19 28.25 856.00 29.00 Z"/>
</g>
<g fill="#191919" fill-opacity="0.55" stroke="None">
<path d="
M 805.00 40.00 
C 802.03 46.06 806.29 48.37 805.00 40.00 Z"/>
</g>
<g fill="#333333" fill-opacity="0.02" stroke="None">
<path d="
M 214.00 71.00 
C 217.14 66.74 214.44 56.57 214.00 52.00
C 214.00 58.33 214.00 64.67 214.00 71.00 Z"/>
</g>
<g fill="#1B1B1B" fill-opacity="0.96" stroke="None">
<path d="
M 299.00 123.00 
C 299.25 123.98 300.69 126.05 301.00 127.00
C 304.18 136.58 301.72 149.32 302.00 160.00 C 302.28 170.68 302.97 183.27 302.00 194.00
C 312.67 194.00 323.33 194.00 334.00 194.00
C 334.00 170.00 334.00 146.00 334.00 122.00
C 333.89 119.20 333.97 115.82 334.00 114.00
C 334.15 105.23 330.83 95.97 325.90 89.10 C 320.97 82.23 316.94 75.16 308.69 71.31 C 300.45 67.45 293.15 62.84 284.00 61.00 C 274.85 59.16 259.20 60.10 250.00 60.00 C 240.80 59.90 221.03 56.79 222.00 67.00 C 222.97 77.21 217.24 94.98 228.00 96.00 C 238.76 97.02 252.72 95.80 263.00 96.00 C 273.28 96.20 281.16 95.53 288.92 101.08 C 296.68 106.64 298.79 114.84 299.00 123.00
M 274.00 61.00 
C 257.91 63.33 239.85 61.34 223.00 62.00
C 239.09 59.67 257.15 61.66 274.00 61.00 Z"/>
</g>
<g fill="#1E1E1E" fill-opacity="0.38" stroke="None">
<path d="
M 583.00 113.00 
C 576.79 138.08 583.49 167.55 581.00 194.00
C 570.33 194.00 559.67 194.00 549.00 194.00
C 549.00 150.00 549.00 106.00 549.00 62.00
C 559.67 62.00 570.33 62.00 581.00 62.00
C 581.00 68.67 581.00 75.33 581.00 82.00
C 588.47 76.96 598.00 67.55 602.00 61.00
C 594.74 65.71 589.95 75.05 582.00 79.00
C 582.66 72.58 582.58 67.19 583.00 61.00
C 573.06 58.60 564.66 60.78 554.00 60.00 C 543.35 59.22 547.30 73.35 547.00 82.00 C 546.70 90.65 547.00 103.09 547.00 112.00 C 547.00 120.91 546.66 132.46 547.00 141.00 C 547.34 149.54 546.10 162.57 547.00 170.00 C 547.90 177.43 543.24 195.26 551.00 196.00 C 558.76 196.74 572.71 197.98 579.97 195.97 C 587.24 193.97 581.72 176.33 583.00 169.00 C 584.28 161.67 582.57 148.35 583.00 140.00 C 583.43 131.65 582.67 121.70 583.00 113.00 Z"/>
</g>
<g fill="#1B1B1B" fill-opacity="0.97" stroke="None">
<path d="
M 602.00 61.00 
C 598.00 67.55 588.47 76.96 581.00 82.00
C 581.00 75.33 581.00 68.67 581.00 62.00
C 570.33 62.00 559.67 62.00 549.00 62.00
C 549.00 106.00 549.00 150.00 549.00 194.00
C 559.67 194.00 570.33 194.00 581.00 194.00
C 583.49 167.55 576.79 138.08 583.00 113.00
C 583.35 103.74 588.24 99.53 596.00 96.00
C 601.62 93.44 612.92 93.81 622.00 94.00 C 631.08 94.19 642.90 92.78 651.00 96.00
C 659.12 99.22 663.77 103.68 664.22 112.78 C 664.68 121.88 665.04 132.79 665.00 142.00 C 664.96 151.21 664.44 163.47 665.00 172.00 C 665.56 180.53 660.94 196.10 671.00 196.00 C 681.06 195.90 690.11 196.89 700.00 196.00
C 700.04 196.00 700.00 195.00 700.00 195.00
C 688.76 196.00 677.27 194.25 666.00 195.00
C 676.42 192.68 688.82 194.66 700.00 194.00
C 699.98 166.67 700.00 139.33 700.00 112.00
C 700.00 101.78 696.92 90.15 690.75 82.25 C 684.59 74.34 679.99 70.07 671.08 65.92 C 662.17 61.77 649.75 58.73 639.00 60.00 C 628.25 61.27 611.77 56.83 602.00 61.00 Z"/>
</g>
<g fill="#1D1D1D" fill-opacity="0.63" stroke="None">
<path d="
M 274.00 61.00 
C 257.15 61.66 239.09 59.67 223.00 62.00
C 239.85 61.34 257.91 63.33 274.00 61.00 Z"/>
</g>
<g fill="#1D1D1D" fill-opacity="0.33" stroke="None">
<path d="
M 432.00 96.00 
C 437.04 95.51 443.03 95.52 448.00 96.00
C 455.44 96.00 463.63 95.02 471.00 96.00
C 458.01 90.61 440.91 95.30 426.00 94.00 C 411.09 92.70 394.10 94.97 379.00 94.00
C 379.00 83.00 379.00 72.00 379.00 61.00
C 376.67 71.68 378.67 84.50 378.00 96.00
C 396.00 96.00 414.00 96.00 432.00 96.00 Z"/>
</g>
<g fill="#1B1B1B" fill-opacity="0.97" stroke="None">
<path d="
M 471.00 96.00 
C 485.12 97.88 484.82 115.90 485.00 127.00 C 485.18 138.10 486.88 159.42 472.74 160.60 C 458.61 161.78 440.00 159.22 427.00 160.00 C 414.00 160.78 390.12 164.52 394.00 147.00
C 396.52 135.61 413.57 141.42 422.00 140.00 C 430.43 138.58 434.24 140.60 441.00 140.00 C 447.76 139.40 455.52 140.26 461.00 140.00 C 466.48 139.74 476.89 141.69 475.99 135.99 C 475.09 130.29 479.02 120.31 476.00 116.00
C 469.15 110.70 456.32 116.71 447.00 115.00 C 437.68 113.29 427.65 115.73 417.00 115.00 C 406.35 114.27 400.91 114.40 389.01 117.01 C 377.10 119.62 360.01 132.39 359.00 146.00
C 361.60 146.60 361.45 148.90 359.00 150.00
C 359.00 149.00 359.00 148.00 359.00 147.00
C 353.49 154.45 361.11 164.25 362.80 170.75 C 364.50 177.26 368.15 182.57 374.75 187.25 C 381.35 191.92 388.11 193.39 396.00 195.00
C 396.49 194.94 397.95 194.09 399.00 194.00
C 407.63 193.26 417.38 193.72 426.00 194.00 C 434.62 194.28 445.75 192.62 454.00 194.00 C 462.25 195.38 469.77 191.41 473.75 185.75 C 477.73 180.10 485.72 174.11 486.00 176.00
C 486.00 182.33 486.00 188.67 486.00 195.00
C 490.94 193.96 498.31 196.39 503.00 195.00 C 507.69 193.61 516.20 197.66 520.00 195.00
C 518.99 168.40 517.47 139.18 520.00 113.00
C 519.29 105.40 520.83 101.25 516.32 94.68 C 511.81 88.11 515.30 87.50 508.75 80.25 C 502.21 73.00 493.00 66.62 484.00 63.00 C 475.01 59.37 474.16 62.26 466.00 61.00 C 457.84 59.74 451.52 61.33 444.00 61.00 C 436.48 60.67 429.01 60.63 422.00 61.00 C 414.99 61.37 406.28 59.68 400.00 61.00 C 393.72 62.32 383.80 57.64 379.00 61.00
C 379.00 72.00 379.00 83.00 379.00 94.00
C 394.10 94.97 411.09 92.70 426.00 94.00 C 440.91 95.30 458.01 90.61 471.00 96.00 Z"/>
</g>
<g fill="#1B1B1B" fill-opacity="0.97" stroke="None">
<path d="
M 868.00 92.00 
C 867.59 112.63 866.23 138.31 867.00 158.00
C 869.11 169.58 874.79 176.63 883.00 185.00
C 883.20 185.13 886.26 188.24 886.00 188.00
C 891.74 191.68 898.99 193.86 906.00 195.00
C 918.89 194.65 944.39 197.49 955.00 190.00
C 958.01 186.70 960.05 182.47 964.00 180.00
C 961.59 195.12 970.97 217.42 954.00 224.00
C 937.12 230.54 915.72 224.10 897.00 226.00 C 878.28 227.90 856.96 224.58 838.00 226.00
C 838.00 235.00 838.00 244.00 838.00 253.00
L 975.00 253.00
C 977.41 249.87 981.07 247.70 984.00 245.00
L 984.00 63.00
C 978.00 63.00 972.00 63.00 966.00 63.00
C 966.00 95.67 966.00 128.33 966.00 161.00
C 946.83 160.33 926.34 162.33 908.00 160.00
C 899.19 157.22 897.52 149.67 898.00 141.00 C 898.48 132.33 898.00 121.56 898.00 113.00 C 898.00 104.44 898.48 92.95 898.00 85.00 C 897.53 77.05 901.37 61.84 893.00 61.00 C 884.63 60.16 872.33 58.55 872.00 68.00 C 871.67 77.45 868.19 82.72 868.00 92.00
M 973.00 241.00 
C 971.24 249.13 964.64 239.62 973.00 241.00 Z"/>
</g>
<g fill="#1F1F1F" fill-opacity="0.36" stroke="None">
<path d="
M 908.00 160.00 
C 926.34 162.33 946.83 160.33 966.00 161.00
C 966.00 128.33 966.00 95.67 966.00 63.00
C 972.00 63.00 978.00 63.00 984.00 63.00
L 984.00 62.00
C 982.55 62.88 980.79 61.14 980.00 61.00
C 967.80 57.69 962.46 63.18 964.00 74.00 C 965.54 84.82 963.28 92.84 964.00 103.00 C 964.72 113.16 963.61 122.16 964.00 132.00 C 964.39 141.84 963.71 150.29 964.00 160.00
C 945.77 157.57 926.09 163.24 908.00 160.00 Z"/>
</g>
<g fill="#393939" fill-opacity="0.02" stroke="None">
<path d="
M 728.00 81.00 
C 728.00 74.67 728.00 68.33 728.00 62.00
C 724.48 64.46 727.69 77.78 728.00 81.00 Z"/>
</g>
<g fill="#1B1B1B" fill-opacity="0.96" stroke="None">
<path d="
M 728.00 81.00 
C 728.00 83.00 728.00 85.00 728.00 87.00
C 728.00 91.33 728.00 95.67 728.00 100.00
C 728.00 107.82 727.75 116.23 728.00 124.00 C 728.25 131.77 727.34 140.45 728.00 148.00 C 728.67 155.55 726.48 164.96 728.00 172.00 C 729.52 179.04 724.20 188.56 728.00 194.00
C 731.54 197.54 739.12 193.97 744.00 195.00 C 748.88 196.03 756.84 194.23 762.00 195.00
C 760.34 151.26 760.33 105.72 762.00 62.00
C 759.33 60.13 748.42 62.00 745.00 62.00 C 741.58 62.00 730.67 60.13 728.00 62.00
C 728.00 68.33 728.00 74.67 728.00 81.00 Z"/>
</g>
<g fill="#1D1D1D" fill-opacity="0.41" stroke="None">
<path d="
M 728.00 194.00 
C 732.24 200.05 742.19 193.60 750.00 196.00 C 757.81 198.40 766.12 194.91 764.00 186.00 C 761.88 177.09 764.96 170.15 764.00 162.00 C 763.04 153.85 764.32 146.52 764.00 139.00 C 763.68 131.48 763.62 125.67 763.40 119.74 C 763.19 113.82 765.08 104.61 763.80 99.25 C 762.53 93.88 764.73 87.55 763.60 82.74 C 762.46 77.93 765.64 64.55 762.00 62.00
C 760.33 105.72 760.34 151.26 762.00 195.00
C 756.84 194.23 748.88 196.03 744.00 195.00 C 739.12 193.97 731.54 197.54 728.00 194.00 Z"/>
</g>
<g fill="#1B1B19" fill-opacity="0.76" stroke="None">
<path d="
M 780.00 94.00 
C 780.00 94.05 781.00 94.00 781.00 94.00
C 780.35 83.82 782.31 72.42 780.00 63.00
C 781.58 73.00 777.90 84.11 780.00 94.00 Z"/>
</g>
<g fill="#161616" fill-opacity="0.51" stroke="None">
<path d="
M 21.00 71.00 
C 20.55 72.54 18.24 72.12 18.00 74.00
C 20.14 75.51 23.86 70.87 22.00 70.00
C 21.68 70.20 21.27 70.80 21.00 71.00 Z"/>
</g>
<g fill="#333333" fill-opacity="0.02" stroke="None">
<path d="
M 214.00 92.00 
C 216.15 89.09 216.20 74.97 214.00 72.00
C 214.00 78.67 214.00 85.33 214.00 92.00 Z"/>
</g>
<g fill="#313131" fill-opacity="0.02" stroke="None">
<path d="
M 728.00 100.00 
C 728.00 95.67 728.00 91.33 728.00 87.00
C 727.61 91.02 727.60 95.91 728.00 100.00 Z"/>
</g>
<g fill="#1D1D1D" fill-opacity="0.40" stroke="None">
<path d="
M 867.00 158.00 
C 866.23 138.31 867.59 112.63 868.00 92.00
C 866.16 100.75 865.41 113.99 866.00 125.00 C 866.59 136.01 865.06 147.37 867.00 158.00 Z"/>
</g>
<g fill="#303030" fill-opacity="0.02" stroke="None">
<path d="
M 214.00 100.00 
C 214.22 97.72 215.90 95.56 214.00 93.00
C 214.00 95.33 214.00 97.67 214.00 100.00 Z"/>
</g>
<g fill="#191919" fill-opacity="0.20" stroke="None">
<path d="
M 838.00 95.00 
C 838.00 95.00 838.65 95.95 839.00 96.00
C 844.33 96.00 849.67 96.00 855.00 96.00
C 855.34 95.19 854.58 93.77 855.00 93.00
C 851.14 97.70 843.01 93.40 838.00 95.00 Z"/>
</g>
<g fill="#1A1A19" fill-opacity="0.29" stroke="None">
<path d="
M 596.00 96.00 
C 604.53 94.23 615.30 96.23 624.00 96.00 C 632.70 95.77 642.45 94.70 651.00 96.00
C 642.90 92.78 631.08 94.19 622.00 94.00 C 612.92 93.81 601.62 93.44 596.00 96.00 Z"/>
</g>
<g fill="#1A1A19" fill-opacity="0.53" stroke="None">
<path d="
M 781.00 96.00 
C 784.87 97.78 798.77 96.94 803.00 96.00
C 803.05 95.65 804.00 95.00 804.00 95.00
C 802.69 92.39 795.95 94.43 793.00 94.00 C 790.05 93.57 784.21 94.00 781.00 94.00
C 781.00 94.00 780.00 94.05 780.00 94.00
C 780.08 94.35 780.64 95.84 781.00 96.00 Z"/>
</g>
<g fill="#252519" fill-opacity="0.08" stroke="None">
<path d="
M 432.00 96.00 
C 437.33 96.00 442.67 96.00 448.00 96.00
C 443.03 95.52 437.04 95.51 432.00 96.00 Z"/>
</g>
<g fill="#1C1C1C" fill-opacity="0.11" stroke="None">
<path d="
M 803.00 96.00 
C 801.40 107.12 803.74 120.98 803.00 132.00 C 802.26 143.02 803.38 157.72 803.00 168.00 C 802.62 178.28 799.97 197.38 811.00 196.00 C 822.03 194.62 838.86 201.53 839.00 189.00
C 838.87 190.31 837.76 193.79 837.00 195.00
C 826.09 195.98 814.93 194.27 804.00 195.00
C 804.00 161.67 804.00 128.33 804.00 95.00
C 804.00 95.00 803.05 95.65 803.00 96.00 Z"/>
</g>
<g fill="#1D1D1D" fill-opacity="0.68" stroke="None">
<path d="
M 837.00 195.00 
C 837.04 195.00 837.00 194.00 837.00 194.00
C 826.33 194.00 815.67 194.00 805.00 194.00
C 804.74 185.92 805.35 177.00 805.00 169.00 C 804.65 161.00 805.68 151.69 805.00 144.00 C 804.32 136.31 806.45 125.94 805.00 119.00 C 803.55 112.06 808.66 99.66 804.00 95.00
C 804.00 128.33 804.00 161.67 804.00 195.00
C 814.93 194.27 826.09 195.98 837.00 195.00 Z"/>
</g>
<g fill="#1F1F20" fill-opacity="0.35" stroke="None">
<path d="
M 837.00 194.00 
C 837.00 194.00 837.04 195.00 837.00 195.00
C 837.76 193.79 838.87 190.31 839.00 189.00
C 839.10 179.80 839.19 170.07 838.80 161.25 C 838.41 152.42 839.91 144.22 839.00 133.00 C 838.09 121.78 841.38 106.71 839.00 96.00
C 838.65 95.95 838.00 95.00 838.00 95.00
C 834.16 96.92 838.07 109.16 837.00 114.00 C 835.93 118.84 837.48 128.16 837.00 134.00 C 836.52 139.84 837.21 147.72 837.00 154.00 C 836.79 160.28 837.08 167.54 837.00 174.00 C 836.92 180.46 837.01 187.48 837.00 194.00 Z"/>
</g>
<g fill="#222222" fill-opacity="0.16" stroke="None">
<path d="
M 700.00 194.00 
C 700.00 194.50 700.00 195.00 700.00 195.00
C 700.00 195.00 700.04 196.00 700.00 196.00
C 705.40 193.45 700.70 180.62 702.00 175.00 C 703.30 169.38 701.14 159.53 702.00 153.00 C 702.86 146.47 699.62 137.84 701.00 131.00 C 702.38 124.16 700.59 118.10 700.00 112.00
C 700.00 139.33 699.98 166.67 700.00 194.00 Z"/>
</g>
<g fill="#191919" fill-opacity="0.53" stroke="None">
<path d="
M 520.00 195.00 
C 524.16 192.09 519.73 180.44 521.00 175.00 C 522.27 169.56 520.31 160.23 521.00 154.00 C 521.69 147.77 520.42 139.51 521.00 133.00 C 521.58 126.49 520.58 119.19 520.00 113.00
C 517.47 139.18 518.99 168.40 520.00 195.00 Z"/>
</g>
<g fill="#191919" fill-opacity="0.15" stroke="None">
<path d="
M 334.00 122.00 
C 337.33 145.29 333.59 170.93 335.00 195.00
C 323.83 194.33 311.34 196.33 301.00 194.00
C 299.03 172.30 305.10 148.35 301.00 127.00
C 300.69 126.05 299.25 123.98 299.00 123.00
C 299.18 130.30 300.59 136.51 300.00 144.00 C 299.42 151.49 300.93 158.32 300.00 166.00 C 299.07 173.68 301.99 178.75 300.00 187.00 C 298.01 195.25 305.92 198.13 313.00 196.00 C 320.08 193.87 328.06 198.96 333.92 195.92 C 339.77 192.87 334.56 181.91 336.00 176.00 C 337.44 170.09 335.10 161.56 336.00 155.00 C 336.90 148.44 335.02 139.73 336.00 133.00 C 336.98 126.27 335.02 119.72 334.00 114.00
C 333.97 115.82 333.89 119.20 334.00 122.00 Z"/>
</g>
<g fill="#1D1D1D" fill-opacity="0.18" stroke="None">
<path d="
M 394.00 147.00 
C 396.54 140.12 406.80 142.23 413.00 142.00 C 419.20 141.77 430.28 142.00 437.00 142.00 C 443.72 142.00 454.60 141.78 461.00 142.00 C 467.40 142.22 478.53 143.35 477.67 136.67 C 476.81 129.99 481.38 120.16 476.00 116.00
C 479.02 120.31 475.09 130.29 475.99 135.99 C 476.89 141.69 466.48 139.74 461.00 140.00 C 455.52 140.26 447.76 139.40 441.00 140.00 C 434.24 140.60 430.43 138.58 422.00 140.00 C 413.57 141.42 396.52 135.61 394.00 147.00 Z"/>
</g>
<g fill="#1A1A1A" fill-opacity="0.60" stroke="None">
<path d="
M 302.00 194.00 
C 301.50 194.00 301.00 194.00 301.00 194.00
C 311.34 196.33 323.83 194.33 335.00 195.00
C 333.59 170.93 337.33 145.29 334.00 122.00
C 334.00 146.00 334.00 170.00 334.00 194.00
C 323.33 194.00 312.67 194.00 302.00 194.00 Z"/>
</g>
<g fill="#191919" fill-opacity="0.84" stroke="None">
<path d="
M 301.00 194.00 
C 301.00 194.00 301.50 194.00 302.00 194.00
C 302.97 183.27 302.28 170.68 302.00 160.00 C 301.72 149.32 304.18 136.58 301.00 127.00
C 305.10 148.35 299.03 172.30 301.00 194.00 Z"/>
</g>
<g fill="#151515" fill-opacity="0.58" stroke="None">
<path d="
M 359.00 147.00 
C 359.00 148.00 359.00 149.00 359.00 150.00
C 361.45 148.90 361.60 146.60 359.00 146.00
C 359.00 146.00 359.24 146.68 359.00 147.00 Z"/>
</g>
<g fill="#151515" fill-opacity="0.62" stroke="None">
<path d="
M 0.00 158.00 
C 0.00 158.00 0.99 157.94 1.00 158.00
C 0.98 157.55 3.64 153.12 0.00 154.00
L 0.00 158.00 Z"/>
</g>
<g fill="#1A1A1A" fill-opacity="0.33" stroke="None">
<path d="
M 44.00 160.00 
C 54.14 164.22 69.61 161.72 81.00 162.00 C 92.39 162.28 106.82 164.67 113.00 157.00
C 104.30 162.73 90.56 160.28 80.00 160.00 C 69.44 159.72 54.53 162.14 44.00 160.00 Z"/>
</g>
<g fill="#181818" fill-opacity="0.59" stroke="None">
<path d="
M 399.00 194.00 
C 408.92 194.51 421.40 196.50 432.00 195.00 C 442.60 193.50 455.79 198.06 466.00 195.00
C 469.56 193.34 473.59 188.19 476.25 185.25 C 478.91 182.31 484.20 179.26 486.00 176.00
C 485.72 174.11 477.73 180.10 473.75 185.75 C 469.77 191.41 462.25 195.38 454.00 194.00 C 445.75 192.62 434.62 194.28 426.00 194.00 C 417.38 193.72 407.63 193.26 399.00 194.00 Z"/>
</g>
<g fill="#181819" fill-opacity="0.74" stroke="None">
<path d="
M 101.00 193.00 
C 106.69 191.42 115.77 179.52 119.00 175.00
C 111.63 177.13 107.47 189.43 101.00 193.00 Z"/>
</g>
<g fill="#171717" fill-opacity="0.33" stroke="None">
<path d="
M 883.00 185.00 
C 884.03 186.05 884.62 187.11 886.00 188.00
C 886.26 188.24 883.20 185.13 883.00 185.00 Z"/>
</g>
<g fill="#161616" fill-opacity="0.36" stroke="None">
<path d="
M 906.00 195.00 
C 914.46 196.37 923.70 195.74 933.00 196.00 C 942.30 196.26 948.78 197.28 955.00 190.00
C 944.39 197.49 918.89 194.65 906.00 195.00 Z"/>
</g>
<g fill="#161616" fill-opacity="0.10" stroke="None">
<path d="
M 396.00 195.00 
C 405.85 197.01 420.37 196.87 431.00 196.00 C 441.63 195.13 456.77 199.32 466.00 195.00
C 455.79 198.06 442.60 193.50 432.00 195.00 C 421.40 196.50 408.92 194.51 399.00 194.00
C 397.95 194.09 396.49 194.94 396.00 195.00 Z"/>
</g>
<g fill="#1B1B1B" fill-opacity="0.65" stroke="None">
<path d="
M 700.00 195.00 
C 700.00 195.00 700.00 194.50 700.00 194.00
C 688.82 194.66 676.42 192.68 666.00 195.00
C 677.27 194.25 688.76 196.00 700.00 195.00 Z"/>
</g>
<g fill="#1E1E1E" fill-opacity="0.39" stroke="None">
<path d="
M 837.00 253.00 
L 838.00 253.00
C 838.00 244.00 838.00 235.00 838.00 226.00
C 856.96 224.58 878.28 227.90 897.00 226.00 C 915.72 224.10 937.12 230.54 954.00 224.00
C 941.87 225.62 929.25 223.28 917.00 224.00 C 904.75 224.72 893.43 223.75 881.00 224.00 C 868.57 224.25 856.77 224.01 844.00 224.00 C 831.23 223.99 839.12 243.74 837.00 253.00 Z"/>
</g>
<g fill="#525251" fill-opacity="1.00" stroke="None">
<path d="
M 973.00 241.00 
C 964.64 239.62 971.24 249.13 973.00 241.00 Z"/>
</g>
<g fill="#000000" fill-opacity="0.03" stroke="None">
<path d="
M 975.00 253.00 
L 984.00 253.00
L 984.00 245.00
C 981.07 247.70 977.41 249.87 975.00 253.00 Z"/>
</g>
</svg>