<svg xmlns="http://www.w3.org/2000/svg" xmlns:v="https://svgstorm.com"
viewBox = "0 0 984 253"
width="984"
height="253">
<g fill="None" fill-opacity="0.0" stroke="#000000" stroke-opacity="0.00" stroke-width="0.3"><path d="
M 0.00 114.00 
C 1.08 113.96 0.83 112.67 1.00 112.00
C 8.27 83.47 23.76 62.59 54.00 56.00
C 64.68 53.67 75.17 53.59 86.00 54.00
C 100.54 54.56 113.32 58.93 125.00 67.00
C 125.00 66.00 125.00 65.00 125.00 64.00
C 127.51 54.13 125.00 40.24 125.00 30.00
C 125.00 19.55 124.39 10.05 125.00 0.00
L 0.00 0.00
L 0.00 114.00 Z"/>
</g>
<g fill="None" fill-opacity="0.0" stroke="#F1F1F4" stroke-opacity="0.42" stroke-width="0.3"><path d="
M 125.00 30.00 
C 125.00 29.96 126.00 30.00 126.00 30.00
C 126.66 20.33 126.75 9.58 128.00 0.00
L 125.00 0.00
C 124.39 10.05 125.00 19.55 125.00 30.00 Z"/>
</g>
<g fill="None" fill-opacity="0.0" stroke="#F0EFF0" stroke-opacity="0.95" stroke-width="0.3"><path d="
M 126.00 30.00 
C 125.31 40.16 128.92 55.10 125.00 64.00
C 125.00 65.00 125.00 66.00 125.00 67.00
C 113.32 58.93 100.54 54.56 86.00 54.00
C 81.20 54.98 72.80 56.42 67.00 56.00 C 61.20 55.58 57.40 55.96 54.00 56.00
C 23.76 62.59 8.27 83.47 1.00 112.00
C 0.72 115.01 3.03 119.25 1.07 123.07 C -0.89 126.90 3.44 133.94 1.00 137.00
C 2.99 141.13 2.44 145.78 4.00 150.00
C 0.85 150.82 3.17 146.51 1.00 146.00
C 5.60 173.69 29.67 202.03 61.00 199.00
C 73.01 197.84 86.68 197.84 99.00 199.00
C 102.60 199.34 105.69 198.70 109.00 198.00
C 107.81 197.65 108.03 196.79 109.26 195.25 C 110.50 193.70 113.55 197.03 113.00 197.00
C 137.41 190.41 157.84 171.96 159.00 145.00
C 157.50 135.49 156.39 122.94 157.00 111.00 C 157.61 99.06 156.72 86.15 157.00 74.00 C 157.28 61.85 156.85 49.24 157.00 37.00 C 157.15 24.76 156.89 12.26 157.00 0.00
L 128.00 0.00
C 126.75 9.58 126.66 20.33 126.00 30.00
M 125.00 71.00 
C 126.07 68.46 125.57 65.45 127.00 63.00
C 128.73 64.83 129.02 71.30 125.00 71.00
M 45.00 158.00 
C 45.12 158.03 39.40 157.71 39.00 153.00
C 40.28 152.47 40.86 153.97 42.00 154.00
C 38.05 148.53 35.53 141.70 35.00 135.00
C 33.69 132.17 31.27 130.70 32.00 126.00 C 32.73 121.30 33.37 120.60 35.00 117.00
C 38.03 95.29 58.66 90.20 77.00 89.00 C 95.34 87.80 117.60 95.14 122.93 113.07 C 128.25 131.00 123.82 156.83 105.98 161.98 C 88.13 167.12 59.73 170.16 45.00 158.00
M 95.00 167.00 
C 85.96 168.50 74.62 168.78 66.00 167.00
C 74.59 165.35 86.48 165.32 95.00 167.00
M 29.00 189.00 
C 27.45 187.45 24.83 187.17 24.00 185.00
C 26.37 184.45 29.14 186.53 29.00 189.00 Z"/>
</g>
<g fill="None" fill-opacity="0.0" stroke="#EEECED" stroke-opacity="0.57" stroke-width="0.3"><path d="
M 159.00 145.00 
C 159.09 143.01 159.00 140.99 159.00 139.00
C 159.00 135.20 157.89 128.85 160.00 126.00
C 160.00 125.50 160.00 125.00 160.00 125.00
C 155.10 118.38 160.55 105.67 159.00 97.00 C 157.45 88.33 159.82 76.23 159.00 67.00 C 158.18 57.77 159.60 47.42 159.00 38.00 C 158.40 28.58 159.33 17.67 160.00 9.00
C 159.94 5.83 159.36 2.63 160.00 0.00
L 157.00 0.00
C 156.89 12.26 157.15 24.76 157.00 37.00 C 156.85 49.24 157.28 61.85 157.00 74.00 C 156.72 86.15 157.61 99.06 157.00 111.00 C 156.39 122.94 157.50 135.49 159.00 145.00 Z"/>
</g>
<g fill="None" fill-opacity="0.0" stroke="#000000" stroke-opacity="0.00" stroke-width="0.3"><path d="
M 160.00 9.00 
C 160.77 47.63 160.00 86.36 160.00 125.00
C 160.00 125.00 160.00 125.50 160.00 126.00
C 160.00 130.41 159.36 135.34 159.00 139.00
C 159.00 140.99 159.09 143.01 159.00 145.00
C 157.84 171.96 137.41 190.41 113.00 197.00
C 111.63 197.37 110.46 197.69 109.00 198.00
C 105.69 198.70 102.60 199.34 99.00 199.00
C 87.06 200.16 72.87 200.15 61.00 199.00
C 29.67 202.03 5.60 173.69 1.00 146.00
C 0.89 145.31 1.17 144.05 0.00 144.00
L 0.00 253.00
L 875.00 253.00
C 877.00 244.66 872.33 234.12 875.00 226.00
C 877.31 218.97 894.33 222.00 900.00 222.00
C 900.50 222.00 901.00 222.00 901.00 222.00
C 912.88 215.78 918.45 204.19 921.00 191.00
C 920.82 190.89 918.17 190.06 918.00 190.00
C 910.16 187.40 902.55 182.51 900.22 173.78 C 897.90 165.05 895.76 154.90 892.68 146.32 C 889.59 137.74 886.56 130.72 882.70 122.31 C 878.83 113.89 876.39 106.47 872.23 97.77 C 868.06 89.07 867.95 82.34 863.07 72.93 C 858.19 63.51 856.07 54.86 870.00 55.00 C 883.93 55.14 889.35 55.09 891.98 67.02 C 894.60 78.96 897.78 82.77 900.98 93.02 C 904.18 103.27 907.11 109.02 910.00 119.00
C 910.21 119.72 910.74 120.28 911.00 121.00
C 913.77 128.49 915.58 136.39 918.00 144.00
C 918.21 144.66 918.71 146.05 919.00 147.00
C 922.82 159.43 931.60 155.20 932.93 144.93 C 934.26 134.66 938.98 128.26 940.78 118.78 C 942.57 109.30 946.64 101.81 948.78 92.78 C 950.92 83.74 956.54 76.92 957.77 67.77 C 959.01 58.62 969.07 48.67 979.00 56.00
C 979.50 56.04 980.00 56.00 980.00 56.00
C 981.33 56.00 982.67 56.00 984.00 56.00
L 984.00 0.00
L 853.00 0.00
C 850.47 7.54 858.07 23.80 849.00 28.00
C 842.35 31.07 834.68 27.50 828.00 28.00
C 814.64 29.01 809.75 42.49 812.00 55.00
C 813.67 55.00 815.33 55.00 817.00 55.00
C 817.49 54.92 818.50 55.00 819.00 55.00
C 827.22 55.00 836.93 53.55 845.00 55.00
C 851.13 56.10 850.25 59.73 850.00 64.00
C 849.59 70.99 851.48 79.18 850.00 86.00
C 849.62 87.73 849.50 88.05 848.00 89.00
C 839.98 94.07 825.20 87.28 816.00 90.00
C 816.00 97.67 816.00 105.33 816.00 113.00
C 816.00 116.33 816.00 119.67 816.00 123.00
C 816.00 125.67 816.00 128.33 816.00 131.00
C 816.00 133.67 816.00 136.33 816.00 139.00
C 816.00 141.00 816.00 143.00 816.00 145.00
C 816.00 150.00 816.00 155.00 816.00 160.00
C 816.00 168.00 816.00 176.00 816.00 184.00
C 816.00 186.63 816.24 189.38 816.00 192.00
C 816.60 200.69 806.82 199.00 801.00 199.00
C 790.01 199.00 779.37 200.00 781.00 187.00 C 782.63 174.00 780.25 166.80 781.00 155.00 C 781.75 143.20 780.62 134.35 781.00 123.00 C 781.38 111.65 780.71 101.26 781.00 90.00
C 779.00 90.00 777.00 90.00 775.00 90.00
C 774.51 90.06 773.50 90.00 773.00 90.00
C 759.74 90.00 753.80 89.03 755.00 76.00 C 756.20 62.97 751.97 52.68 767.00 55.00 C 782.03 57.32 776.26 43.52 778.00 34.00 C 779.74 24.48 782.44 18.48 788.00 11.00
C 789.91 7.79 791.01 7.05 794.00 5.00
C 795.98 3.64 798.34 1.76 800.00 0.00
L 735.00 0.00
C 734.34 8.77 735.88 19.42 735.00 28.00 C 734.12 36.58 718.44 33.00 712.00 33.00
C 711.50 33.00 711.00 33.00 711.00 33.00
C 707.14 33.00 703.16 33.29 700.00 32.00
C 690.41 28.10 698.88 8.32 696.00 0.00
L 217.00 0.00
C 219.20 21.86 217.43 44.73 218.00 67.00
C 221.14 66.82 222.58 62.70 226.00 63.00
C 235.54 57.51 243.55 54.91 255.00 54.00
C 260.02 53.60 263.91 53.65 269.00 54.00
C 288.25 55.31 306.53 60.98 319.00 77.00
C 319.21 77.27 319.75 77.74 320.00 78.00
C 330.18 88.58 332.72 105.92 334.00 120.00
C 334.71 127.84 335.00 135.84 335.00 144.00
C 335.00 154.67 335.00 165.33 335.00 176.00
C 335.00 180.64 335.25 185.36 335.00 190.00
C 334.38 201.34 326.96 198.91 317.00 199.00 C 307.04 199.09 299.24 201.23 299.00 189.00
C 298.94 186.00 299.00 183.00 299.00 180.00
C 299.00 158.99 302.35 134.29 298.00 114.00
C 295.02 100.11 285.02 96.02 274.00 90.00
C 273.62 89.79 273.00 90.00 273.00 90.00
C 265.27 89.82 258.89 87.69 251.00 89.00
C 236.68 91.37 222.47 100.09 219.00 115.00
C 217.14 123.00 218.18 130.44 218.00 139.00 C 217.82 147.56 217.89 156.12 218.00 165.00 C 218.11 173.88 217.52 181.66 218.00 191.00 C 218.48 200.34 208.18 199.44 201.00 199.00 C 193.82 198.56 181.48 201.70 182.00 192.00 C 182.52 182.29 181.80 175.21 182.00 166.00 C 182.20 156.79 182.00 149.07 182.00 140.00
C 182.00 139.50 182.00 138.50 182.00 138.00
C 182.00 115.78 180.83 92.07 182.00 70.00 C 183.17 47.93 178.42 23.86 183.00 3.00
C 182.75 2.07 183.20 0.94 183.00 0.00
L 160.00 0.00
C 159.36 2.63 159.94 5.83 160.00 9.00
M 623.00 55.00 
C 642.95 58.17 657.01 65.78 668.92 83.08 C 680.84 100.37 680.00 123.12 680.00 144.00
C 681.18 156.24 681.00 170.05 681.00 183.00
C 681.00 185.90 681.41 189.13 681.00 192.00
C 679.58 201.91 656.16 201.56 649.00 198.00
C 647.10 197.06 647.98 197.97 647.00 196.00
C 644.95 191.87 646.00 184.96 646.00 180.00
C 646.00 161.14 648.26 140.71 646.00 122.00
C 644.93 113.15 641.49 104.19 634.75 97.25 C 628.01 90.30 615.48 89.86 607.00 88.00
C 606.07 88.03 604.90 87.80 604.00 88.00
C 596.75 89.59 589.60 90.58 582.77 94.77 C 575.94 98.96 574.57 106.89 572.00 113.00
C 570.83 121.21 572.18 129.63 572.00 138.00 C 571.82 146.37 571.31 154.44 572.00 163.00 C 572.69 171.56 569.97 179.11 572.00 188.00 C 574.03 196.89 564.38 201.12 558.00 199.00 C 551.62 196.88 537.25 203.09 537.00 195.00
C 534.65 169.15 536.01 140.95 537.00 115.00
C 537.63 98.40 542.73 82.95 554.75 70.75 C 566.77 58.55 584.53 55.45 601.00 54.00
C 608.61 53.33 615.39 53.79 623.00 55.00
M 460.00 56.00 
C 488.25 58.57 507.97 73.40 513.00 102.00
C 516.84 123.84 517.54 153.22 514.00 175.00
C 511.65 189.46 505.49 195.45 491.00 198.00
C 476.06 200.63 459.43 198.80 444.00 199.00 C 428.57 199.20 411.97 200.09 397.00 198.00
C 392.96 197.44 389.84 197.06 386.00 196.00
C 382.14 194.94 379.36 193.81 376.00 192.00
C 373.62 190.72 372.12 189.62 370.00 188.00
C 367.33 185.95 366.04 184.66 364.00 182.00
C 359.73 176.43 357.35 172.13 356.00 165.00
C 354.63 157.79 354.21 149.21 356.00 142.00
C 360.72 122.95 378.63 116.32 396.00 114.00
C 398.68 113.64 401.08 113.11 404.00 113.00
C 428.96 112.05 454.03 113.71 479.00 113.00
C 479.00 111.67 479.00 110.33 479.00 109.00
C 474.41 98.22 470.58 91.52 458.00 90.00
C 449.09 88.92 441.15 90.09 432.00 90.00 C 422.85 89.91 414.56 89.26 405.00 90.00 C 395.44 90.74 389.53 87.82 379.00 90.00 C 368.47 92.18 366.63 82.52 368.00 74.00 C 369.37 65.48 364.93 55.65 375.01 55.01 C 385.08 54.36 392.44 55.24 402.00 55.00 C 411.56 54.76 419.58 55.00 429.00 55.00
C 435.66 55.00 442.34 54.87 449.00 55.00
C 452.95 55.08 456.18 55.65 460.00 56.00
M 736.00 57.00 
C 741.44 64.32 735.12 78.44 737.00 88.00 C 738.88 97.56 735.95 109.55 737.00 120.00 C 738.05 130.45 736.09 140.80 737.00 152.00 C 737.91 163.20 735.62 171.69 737.00 184.00 C 738.38 196.31 733.44 200.52 720.00 199.00 C 706.56 197.48 702.00 201.04 702.00 185.00
C 702.00 178.67 702.00 172.33 702.00 166.00
C 702.00 144.67 702.00 123.33 702.00 102.00
C 702.00 97.33 702.00 92.67 702.00 88.00
C 702.00 79.91 703.39 73.22 702.00 65.00 C 700.61 56.78 707.81 52.73 715.00 55.00 C 722.19 57.27 731.49 50.93 736.00 57.00 Z"/>
</g>
<g fill="None" fill-opacity="0.0" stroke="#F0EFEF" stroke-opacity="0.97" stroke-width="0.3"><path d="
M 183.00 3.00 
C 183.15 3.53 183.88 4.00 184.00 5.00
C 184.95 12.70 183.58 20.19 184.00 28.00 C 184.42 35.81 183.79 44.11 184.00 52.00 C 184.21 59.89 183.86 68.11 184.00 76.00 C 184.14 83.89 183.83 92.17 184.00 100.00 C 184.17 107.83 183.67 115.25 184.00 123.00 C 184.33 130.75 183.32 139.39 184.00 147.00 C 184.68 154.61 182.52 163.78 184.00 171.00 C 185.48 178.22 180.74 188.70 184.00 195.00
C 189.34 202.11 197.52 193.81 206.00 197.00 C 214.48 200.19 216.40 189.53 215.00 182.00 C 213.60 174.47 215.74 165.58 215.00 158.00 C 214.26 150.42 215.57 141.36 215.00 134.00 C 214.43 126.64 217.32 119.13 219.00 115.00
C 222.47 100.09 236.68 91.37 251.00 89.00
C 258.98 85.27 263.72 85.90 272.00 89.00
C 273.64 87.08 278.00 88.60 274.00 90.00
C 285.02 96.02 295.02 100.11 298.00 114.00
C 299.95 117.57 301.74 127.41 301.00 137.00 C 300.26 146.59 301.05 158.30 301.00 168.00 C 300.95 177.70 299.48 188.44 303.00 197.00
C 298.69 197.14 300.30 191.72 300.00 189.00
C 300.00 189.01 299.00 189.00 299.00 189.00
C 299.24 201.23 307.04 199.09 317.00 199.00 C 326.96 198.91 334.38 201.34 335.00 190.00
C 335.00 190.04 334.00 190.00 334.00 190.00
C 333.94 191.43 334.73 194.42 333.00 195.00
C 332.73 196.59 332.15 198.37 330.00 198.00
C 329.45 196.18 331.75 195.53 332.00 194.00
C 331.46 188.04 332.34 180.87 332.00 175.00 C 331.66 169.13 332.36 161.48 332.00 156.00 C 331.64 150.52 332.61 141.51 332.00 137.00 C 331.39 132.49 332.79 119.86 333.00 120.00
C 333.35 120.23 334.00 120.00 334.00 120.00
C 332.72 105.92 330.18 88.58 320.00 78.00
C 320.13 78.98 319.90 80.01 320.00 81.00
C 317.56 80.80 315.41 74.90 319.00 77.00
C 306.53 60.98 288.25 55.31 269.00 54.00
C 270.21 54.29 272.99 55.08 274.00 56.00
C 266.67 56.00 259.33 56.00 252.00 56.00
C 252.24 54.33 254.85 55.83 255.00 54.00
C 243.55 54.91 235.54 57.51 226.00 63.00
C 224.53 64.45 220.48 70.78 216.00 71.00
C 213.67 47.83 215.66 23.58 215.00 0.00
L 183.00 0.00
C 183.20 0.94 182.75 2.07 183.00 3.00 Z"/>
</g>
<g fill="None" fill-opacity="0.0" stroke="#F0F1F2" stroke-opacity="0.42" stroke-width="0.3"><path d="
M 226.00 63.00 
C 222.58 62.70 221.14 66.82 218.00 67.00
C 217.43 44.73 219.20 21.86 217.00 0.00
L 215.00 0.00
C 215.66 23.58 213.67 47.83 216.00 71.00
C 220.48 70.78 224.53 64.45 226.00 63.00 Z"/>
</g>
<g fill="None" fill-opacity="0.0" stroke="#4FB15E" stroke-opacity="0.20" stroke-width="0.3"><path d="
M 700.00 32.00 
C 696.02 29.81 698.68 21.23 698.00 17.00 C 697.32 12.77 698.51 4.59 698.00 0.00
L 696.00 0.00
C 698.88 8.32 690.41 28.10 700.00 32.00 Z"/>
</g>
<g fill="None" fill-opacity="0.0" stroke="#3BC74B" stroke-opacity="0.96" stroke-width="0.3"><path d="
M 700.00 32.00 
C 703.15 33.74 707.95 30.75 711.00 33.00
C 711.00 33.00 711.50 33.00 712.00 33.00
C 717.11 29.22 731.67 36.58 733.77 27.77 C 735.87 18.96 732.67 8.94 734.00 0.00
L 698.00 0.00
C 698.51 4.59 697.32 12.77 698.00 17.00 C 698.68 21.23 696.02 29.81 700.00 32.00 Z"/>
</g>
<g fill="None" fill-opacity="0.0" stroke="#5DA765" stroke-opacity="0.08" stroke-width="0.3"><path d="
M 712.00 33.00 
C 718.44 33.00 734.12 36.58 735.00 28.00 C 735.88 19.42 734.34 8.77 735.00 0.00
L 734.00 0.00
C 732.67 8.94 735.87 18.96 733.77 27.77 C 731.67 36.58 717.11 29.22 712.00 33.00 Z"/>
</g>
<g fill="None" fill-opacity="0.0" stroke="#F0EFF0" stroke-opacity="0.96" stroke-width="0.3"><path d="
M 794.00 5.00 
C 795.01 4.64 795.76 3.67 797.00 4.00
C 792.01 6.84 789.51 13.51 785.00 16.00
C 786.11 14.33 787.30 12.87 788.00 11.00
C 782.44 18.48 779.74 24.48 778.00 34.00 C 776.26 43.52 782.03 57.32 767.00 55.00 C 751.97 52.68 756.20 62.97 755.00 76.00 C 753.80 89.03 759.74 90.00 773.00 90.00
C 774.41 89.70 779.41 86.06 783.00 88.00
C 783.00 90.00 783.00 92.00 783.00 94.00
C 783.85 103.59 782.36 113.39 783.00 123.00
C 780.69 114.24 782.65 103.51 782.00 94.00
C 782.57 88.67 778.67 88.26 775.00 90.00
C 777.00 90.00 779.00 90.00 781.00 90.00
C 780.71 101.26 781.38 111.65 781.00 123.00 C 780.62 134.35 781.75 143.20 781.00 155.00 C 780.25 166.80 782.63 174.00 781.00 187.00 C 779.37 200.00 790.01 199.00 801.00 199.00
C 800.96 199.00 801.00 198.00 801.00 198.00
C 794.92 198.00 785.88 200.07 782.00 195.00
C 789.30 196.23 800.91 199.92 809.00 197.00 C 817.09 194.08 811.82 178.94 813.00 171.00 C 814.18 163.06 812.19 149.51 813.00 141.00 C 813.81 132.49 812.02 120.21 813.00 112.00 C 813.98 103.79 808.71 87.94 819.00 88.00 C 829.29 88.06 838.33 87.14 848.00 89.00
C 849.50 88.05 849.62 87.73 850.00 86.00
C 850.00 85.71 847.45 82.76 848.00 80.00 C 848.55 77.24 848.69 74.02 848.00 71.00 C 847.31 67.98 849.60 65.26 850.00 64.00
C 850.25 59.73 851.13 56.10 845.00 55.00
C 844.93 55.00 841.39 58.11 839.00 57.00 C 836.61 55.89 833.51 57.22 831.00 57.00
C 824.96 57.58 805.22 62.30 810.00 50.00
C 810.48 53.47 812.46 58.84 817.00 55.00
C 815.33 55.00 813.67 55.00 812.00 55.00
C 809.75 42.49 814.64 29.01 828.00 28.00
C 826.76 27.57 824.44 28.50 825.00 26.00
C 833.26 25.39 842.18 27.26 850.00 25.00
C 851.71 17.41 852.32 6.96 849.00 0.00
L 800.00 0.00
C 798.34 1.76 795.98 3.64 794.00 5.00
M 779.00 47.00 
C 784.48 65.19 762.29 53.12 756.00 61.00
C 756.84 54.92 762.67 54.88 769.00 56.00 C 775.33 57.12 779.70 53.75 779.00 47.00 Z"/>
</g>
<g fill="None" fill-opacity="0.0" stroke="#EEEEEF" stroke-opacity="0.31" stroke-width="0.3"><path d="
M 850.00 25.00 
C 849.92 25.35 850.34 27.05 849.00 28.00
C 858.07 23.80 850.47 7.54 853.00 0.00
L 849.00 0.00
C 852.32 6.96 851.71 17.41 850.00 25.00 Z"/>
</g>
<g fill="None" fill-opacity="0.0" stroke="#EEEEEE" stroke-opacity="0.07" stroke-width="0.3"><path d="
M 182.00 138.00 
C 187.30 125.54 181.34 108.05 183.00 94.00 C 184.66 79.95 182.41 63.40 183.00 49.00 C 183.59 34.60 182.64 18.69 184.00 5.00
C 183.88 4.00 183.15 3.53 183.00 3.00
C 178.42 23.86 183.17 47.93 182.00 70.00 C 180.83 92.07 182.00 115.78 182.00 138.00 Z"/>
</g>
<g fill="None" fill-opacity="0.0" stroke="#EFEFEF" stroke-opacity="0.37" stroke-width="0.3"><path d="
M 794.00 5.00 
C 791.01 7.05 789.91 7.79 788.00 11.00
C 787.30 12.87 786.11 14.33 785.00 16.00
C 789.51 13.51 792.01 6.84 797.00 4.00
C 795.76 3.67 795.01 4.64 794.00 5.00 Z"/>
</g>
<g fill="None" fill-opacity="0.0" stroke="#ECEDED" stroke-opacity="0.55" stroke-width="0.3"><path d="
M 182.00 138.00 
C 182.00 138.50 182.00 139.50 182.00 140.00
C 185.19 147.51 181.06 158.97 183.00 167.00 C 184.94 175.03 179.22 188.63 184.00 195.00
C 180.74 188.70 185.48 178.22 184.00 171.00 C 182.52 163.78 184.68 154.61 184.00 147.00 C 183.32 139.39 184.33 130.75 184.00 123.00 C 183.67 115.25 184.17 107.83 184.00 100.00 C 183.83 92.17 184.14 83.89 184.00 76.00 C 183.86 68.11 184.21 59.89 184.00 52.00 C 183.79 44.11 184.42 35.81 184.00 28.00 C 183.58 20.19 184.95 12.70 184.00 5.00
C 182.64 18.69 183.59 34.60 183.00 49.00 C 182.41 63.40 184.66 79.95 183.00 94.00 C 181.34 108.05 187.30 125.54 182.00 138.00 Z"/>
</g>
<g fill="None" fill-opacity="0.0" stroke="#FFFFFF" stroke-opacity="0.02" stroke-width="0.3"><path d="
M 160.00 125.00 
C 160.00 86.36 160.77 47.63 160.00 9.00
C 159.33 17.67 158.40 28.58 159.00 38.00 C 159.60 47.42 158.18 57.77 159.00 67.00 C 159.82 76.23 157.45 88.33 159.00 97.00 C 160.55 105.67 155.10 118.38 160.00 125.00 Z"/>
</g>
<g fill="None" fill-opacity="0.0" stroke="#F0F0F0" stroke-opacity="0.44" stroke-width="0.3"><path d="
M 828.00 28.00 
C 834.68 27.50 842.35 31.07 849.00 28.00
C 850.34 27.05 849.92 25.35 850.00 25.00
C 842.18 27.26 833.26 25.39 825.00 26.00
C 824.44 28.50 826.76 27.57 828.00 28.00 Z"/>
</g>
<g fill="None" fill-opacity="0.0" stroke="#EFEFF1" stroke-opacity="0.07" stroke-width="0.3"><path d="
M 125.00 64.00 
C 128.92 55.10 125.31 40.16 126.00 30.00
C 126.00 30.00 125.00 29.96 125.00 30.00
C 125.00 40.24 127.51 54.13 125.00 64.00 Z"/>
</g>
<g fill="None" fill-opacity="0.0" stroke="#62A16F" stroke-opacity="0.02" stroke-width="0.3"><path d="
M 711.00 33.00 
C 707.95 30.75 703.15 33.74 700.00 32.00
C 703.16 33.29 707.14 33.00 711.00 33.00 Z"/>
</g>
<g fill="None" fill-opacity="0.0" stroke="#EFEFF0" stroke-opacity="0.67" stroke-width="0.3"><path d="
M 779.00 47.00 
C 779.70 53.75 775.33 57.12 769.00 56.00 C 762.67 54.88 756.84 54.92 756.00 61.00
C 762.29 53.12 784.48 65.19 779.00 47.00 Z"/>
</g>
<g fill="None" fill-opacity="0.0" stroke="#EEEFF0" stroke-opacity="0.65" stroke-width="0.3"><path d="
M 831.00 57.00 
C 827.44 56.69 821.98 56.27 819.00 55.00
C 818.50 55.00 817.49 54.92 817.00 55.00
C 812.46 58.84 810.48 53.47 810.00 50.00
C 805.22 62.30 824.96 57.58 831.00 57.00 Z"/>
</g>
<g fill="None" fill-opacity="0.0" stroke="#F1F2F3" stroke-opacity="0.32" stroke-width="0.3"><path d="
M 54.00 56.00 
C 57.40 55.96 61.20 55.58 67.00 56.00 C 72.80 56.42 81.20 54.98 86.00 54.00
C 75.17 53.59 64.68 53.67 54.00 56.00 Z"/>
</g>
<g fill="None" fill-opacity="0.0" stroke="#F3F4F4" stroke-opacity="0.39" stroke-width="0.3"><path d="
M 255.00 54.00 
C 254.85 55.83 252.24 54.33 252.00 56.00
C 259.33 56.00 266.67 56.00 274.00 56.00
C 272.99 55.08 270.21 54.29 269.00 54.00
C 263.91 53.65 260.02 53.60 255.00 54.00 Z"/>
</g>
<g fill="None" fill-opacity="0.0" stroke="#F3F4F3" stroke-opacity="0.34" stroke-width="0.3"><path d="
M 601.00 54.00 
C 608.62 55.47 615.77 56.01 623.00 55.00
C 615.39 53.79 608.61 53.33 601.00 54.00 Z"/>
</g>
<g fill="None" fill-opacity="0.0" stroke="#F0EFF0" stroke-opacity="0.95" stroke-width="0.3"><path d="
M 537.00 115.00 
C 538.48 140.21 540.34 169.12 538.00 195.00
C 544.22 201.35 551.33 194.42 560.00 197.00 C 568.67 199.58 570.24 189.50 569.00 182.00 C 567.76 174.50 569.76 165.74 569.00 158.00 C 568.24 150.26 569.78 141.80 569.00 134.00 C 568.22 126.20 569.27 119.47 572.00 113.00
C 574.57 106.89 575.94 98.96 582.77 94.77 C 589.60 90.58 596.75 89.59 604.00 88.00
C 603.01 87.92 602.00 88.06 601.00 88.00
C 603.43 85.87 607.82 87.53 611.00 87.00
C 610.47 88.60 608.25 87.72 607.00 88.00
C 615.48 89.86 628.01 90.30 634.75 97.25 C 641.49 104.19 644.93 113.15 646.00 122.00
C 646.23 120.43 645.25 117.55 648.00 118.00
C 648.07 143.54 647.11 173.43 649.00 198.00
C 656.16 201.56 679.58 201.91 681.00 192.00
C 680.85 192.61 679.73 194.58 679.00 195.00
C 679.67 183.83 677.67 171.34 680.00 161.00
C 680.00 155.33 680.00 149.67 680.00 144.00
C 680.00 123.12 680.84 100.37 668.92 83.08 C 657.01 65.78 642.95 58.17 623.00 55.00
C 615.77 56.01 608.62 55.47 601.00 54.00
C 584.53 55.45 566.77 58.55 554.75 70.75 C 542.73 82.95 537.63 98.40 537.00 115.00 Z"/>
</g>
<g fill="None" fill-opacity="0.0" stroke="#EEF0F1" stroke-opacity="0.32" stroke-width="0.3"><path d="
M 458.00 90.00 
C 458.87 89.72 459.84 88.93 460.00 88.00
C 430.42 88.66 400.13 86.67 371.00 89.00
C 368.98 79.29 363.25 56.31 378.00 57.00 C 392.75 57.69 406.53 56.61 421.00 57.00 C 435.47 57.39 448.98 56.28 463.00 58.00
C 462.76 56.33 460.15 57.83 460.00 56.00
C 456.18 55.65 452.95 55.08 449.00 55.00
C 442.75 55.48 435.20 55.60 429.00 55.00
C 419.58 55.00 411.56 54.76 402.00 55.00 C 392.44 55.24 385.08 54.36 375.01 55.01 C 364.93 55.65 369.37 65.48 368.00 74.00 C 366.63 82.52 368.47 92.18 379.00 90.00 C 389.53 87.82 395.44 90.74 405.00 90.00 C 414.56 89.26 422.85 89.91 432.00 90.00 C 441.15 90.09 449.09 88.92 458.00 90.00 Z"/>
</g>
<g fill="None" fill-opacity="0.0" stroke="#E0FFFF" stroke-opacity="0.03" stroke-width="0.3"><path d="
M 449.00 55.00 
C 442.34 54.87 435.66 55.00 429.00 55.00
C 435.20 55.60 442.75 55.48 449.00 55.00 Z"/>
</g>
<g fill="None" fill-opacity="0.0" stroke="#F2F2F3" stroke-opacity="0.25" stroke-width="0.3"><path d="
M 702.00 88.00 
C 702.43 92.40 702.42 97.66 702.00 102.00
C 702.00 123.33 702.00 144.67 702.00 166.00
C 702.55 171.70 703.00 178.62 703.00 185.00
C 703.00 188.67 703.00 192.33 703.00 196.00
C 704.97 182.25 703.81 167.62 704.00 153.00 C 704.19 138.38 704.02 123.85 704.00 109.00 C 703.98 94.15 704.25 80.21 704.00 65.00 C 703.75 49.79 729.35 60.37 736.00 57.00
C 731.49 50.93 722.19 57.27 715.00 55.00 C 707.81 52.73 700.61 56.78 702.00 65.00 C 703.39 73.22 702.00 79.91 702.00 88.00 Z"/>
</g>
<g fill="None" fill-opacity="0.0" stroke="#EDEEEF" stroke-opacity="0.25" stroke-width="0.3"><path d="
M 831.00 57.00 
C 833.51 57.22 836.61 55.89 839.00 57.00 C 841.39 58.11 844.93 55.00 845.00 55.00
C 836.93 53.55 827.22 55.00 819.00 55.00
C 821.98 56.27 827.44 56.69 831.00 57.00 Z"/>
</g>
<g fill="None" fill-opacity="0.0" stroke="#F0EFEF" stroke-opacity="0.91" stroke-width="0.3"><path d="
M 918.00 190.00 
C 921.22 190.25 926.09 188.58 923.00 195.00
C 921.02 194.53 923.11 191.40 921.00 191.00
C 918.45 204.19 912.88 215.78 901.00 222.00
C 902.00 222.05 903.00 221.96 904.00 222.00
C 902.79 225.29 898.63 223.56 896.00 224.00
C 896.47 222.02 899.60 224.11 900.00 222.00
C 894.33 222.00 877.31 218.97 875.00 226.00
C 875.42 225.01 878.01 223.95 879.00 224.00
C 873.92 232.65 878.32 242.99 877.00 253.00
L 924.00 253.00
C 937.24 243.87 940.02 232.60 944.32 218.32 C 948.62 204.04 956.00 189.32 957.98 173.98 C 959.95 158.63 963.64 141.31 968.78 126.78 C 973.92 112.25 977.49 97.55 984.00 84.00
L 984.00 60.00
C 982.38 59.25 980.90 58.42 980.00 57.00
C 978.01 58.05 975.31 57.99 973.00 58.00
C 974.26 56.20 976.79 55.79 979.00 56.00
C 969.07 48.67 959.01 58.62 957.77 67.77 C 956.54 76.92 950.92 83.74 948.78 92.78 C 946.64 101.81 942.57 109.30 940.78 118.78 C 938.98 128.26 934.26 134.66 932.93 144.93 C 931.60 155.20 922.82 159.43 919.00 147.00
C 918.80 146.71 917.43 148.61 917.08 146.87 C 916.74 145.13 918.07 144.64 918.00 144.00
C 915.58 136.39 913.77 128.49 911.00 121.00
C 910.60 122.14 909.72 122.06 908.25 120.74 C 906.78 119.41 910.11 117.48 910.00 119.00
C 907.11 109.02 904.18 103.27 900.98 93.02 C 897.78 82.77 894.60 78.96 891.98 67.02 C 889.35 55.09 883.93 55.14 870.00 55.00 C 856.07 54.86 858.19 63.51 863.07 72.93 C 867.95 82.34 868.06 89.07 872.23 97.77 C 876.39 106.47 878.83 113.89 882.70 122.31 C 886.56 130.72 889.59 137.74 892.68 146.32 C 895.76 154.90 897.90 165.05 900.22 173.78 C 902.55 182.51 910.16 187.40 918.00 190.00
M 889.00 60.00 
C 885.96 59.82 884.61 55.64 881.00 57.00
C 883.19 54.61 889.22 56.08 889.00 60.00 Z"/>
</g>
<g fill="None" fill-opacity="0.0" stroke="#F0EFEF" stroke-opacity="0.96" stroke-width="0.3"><path d="
M 458.00 90.00 
C 470.58 91.52 474.41 98.22 479.00 109.00
C 482.93 118.23 469.44 114.79 461.00 115.00 C 452.56 115.21 440.97 115.34 432.00 115.00 C 423.03 114.66 412.04 116.11 403.00 115.00
C 400.90 115.20 398.20 117.28 396.00 115.00
C 395.75 114.74 396.00 114.00 396.00 114.00
C 378.63 116.32 360.72 122.95 356.00 142.00
C 356.00 141.34 357.67 147.32 357.07 151.07 C 356.48 154.83 356.11 163.42 356.00 165.00
C 357.35 172.13 359.73 176.43 364.00 182.00
C 366.09 183.47 370.12 188.19 370.00 188.00
C 372.12 189.62 373.62 190.72 376.00 192.00
C 378.93 192.73 382.63 192.59 385.00 195.00
C 386.64 192.15 395.54 195.62 397.00 197.00
C 427.85 194.22 461.77 199.46 491.00 198.00
C 505.49 195.45 511.65 189.46 514.00 175.00
C 513.01 151.74 514.10 124.00 513.00 102.00
C 507.97 73.40 488.25 58.57 460.00 56.00
C 460.15 57.83 462.76 56.33 463.00 58.00
C 448.98 56.28 435.47 57.39 421.00 57.00 C 406.53 56.61 392.75 57.69 378.00 57.00 C 363.25 56.31 368.98 79.29 371.00 89.00
C 400.13 86.67 430.42 88.66 460.00 88.00
C 459.84 88.93 458.87 89.72 458.00 90.00
M 424.00 137.00 
C 417.91 139.29 409.84 137.37 403.00 138.00
C 409.09 135.71 417.16 137.63 424.00 137.00
M 480.00 137.00 
C 477.57 139.13 473.18 137.47 470.00 138.00
C 472.43 135.87 476.82 137.53 480.00 137.00
M 479.00 159.00 
C 478.86 168.11 465.98 167.11 457.00 167.00 C 448.02 166.89 433.25 167.22 424.00 167.00 C 414.75 166.78 401.34 168.46 396.00 164.00
C 387.93 157.25 387.62 141.71 400.01 140.01 C 412.39 138.31 426.01 139.13 439.00 139.00 C 451.99 138.87 465.92 139.10 479.00 139.00
C 479.00 145.67 479.00 152.33 479.00 159.00 Z"/>
</g>
<g fill="None" fill-opacity="0.0" stroke="#EEEEEE" stroke-opacity="0.54" stroke-width="0.3"><path d="
M 889.00 60.00 
C 889.22 56.08 883.19 54.61 881.00 57.00
C 884.61 55.64 885.96 59.82 889.00 60.00 Z"/>
</g>
<g fill="None" fill-opacity="0.0" stroke="#EEEDEE" stroke-opacity="0.63" stroke-width="0.3"><path d="
M 980.00 57.00 
C 979.77 56.64 980.00 56.00 980.00 56.00
C 980.00 56.00 979.50 56.04 979.00 56.00
C 976.79 55.79 974.26 56.20 973.00 58.00
C 975.31 57.99 978.01 58.05 980.00 57.00 Z"/>
</g>
<g fill="None" fill-opacity="0.0" stroke="#E8E5E6" stroke-opacity="0.44" stroke-width="0.3"><path d="
M 980.00 57.00 
C 980.90 58.42 982.38 59.25 984.00 60.00
L 984.00 56.00
C 982.67 56.00 981.33 56.00 980.00 56.00
C 980.00 56.00 979.77 56.64 980.00 57.00 Z"/>
</g>
<g fill="None" fill-opacity="0.0" stroke="#F0EEEF" stroke-opacity="0.95" stroke-width="0.3"><path d="
M 703.00 185.00 
C 703.00 185.04 702.00 185.00 702.00 185.00
C 702.00 201.04 706.56 197.48 720.00 199.00 C 733.44 200.52 738.38 196.31 737.00 184.00 C 735.62 171.69 737.91 163.20 737.00 152.00 C 736.09 140.80 738.05 130.45 737.00 120.00 C 735.95 109.55 738.88 97.56 737.00 88.00 C 735.12 78.44 741.44 64.32 736.00 57.00
C 729.35 60.37 703.75 49.79 704.00 65.00 C 704.25 80.21 703.98 94.15 704.00 109.00 C 704.02 123.85 704.19 138.38 704.00 153.00 C 703.81 167.62 704.97 182.25 703.00 196.00
C 703.00 192.33 703.00 188.67 703.00 185.00 Z"/>
</g>
<g fill="None" fill-opacity="0.0" stroke="#EFEFEF" stroke-opacity="0.66" stroke-width="0.3"><path d="
M 125.00 71.00 
C 129.02 71.30 128.73 64.83 127.00 63.00
C 125.57 65.45 126.07 68.46 125.00 71.00 Z"/>
</g>
<g fill="None" fill-opacity="0.0" stroke="#F0F0F2" stroke-opacity="0.42" stroke-width="0.3"><path d="
M 850.00 86.00 
C 851.48 79.18 849.59 70.99 850.00 64.00
C 849.60 65.26 847.31 67.98 848.00 71.00 C 848.69 74.02 848.55 77.24 848.00 80.00 C 847.45 82.76 850.00 85.71 850.00 86.00 Z"/>
</g>
<g fill="None" fill-opacity="0.0" stroke="#EBEEF1" stroke-opacity="0.51" stroke-width="0.3"><path d="
M 320.00 78.00 
C 319.75 77.74 319.21 77.27 319.00 77.00
C 315.41 74.90 317.56 80.80 320.00 81.00
C 319.90 80.01 320.13 78.98 320.00 78.00 Z"/>
</g>
<g fill="None" fill-opacity="0.0" stroke="#000000" stroke-opacity="0.00" stroke-width="0.3"><path d="
M 924.00 253.00 
L 984.00 253.00
L 984.00 84.00
C 977.49 97.55 973.92 112.25 968.78 126.78 C 963.64 141.31 959.95 158.63 957.98 173.98 C 956.00 189.32 948.62 204.04 944.32 218.32 C 940.02 232.60 937.24 243.87 924.00 253.00 Z"/>
</g>
<g fill="None" fill-opacity="0.0" stroke="#F1F2F4" stroke-opacity="0.41" stroke-width="0.3"><path d="
M 251.00 89.00 
C 258.89 87.69 265.27 89.82 273.00 90.00
C 272.74 89.88 272.35 89.13 272.00 89.00
C 263.72 85.90 258.98 85.27 251.00 89.00 Z"/>
</g>
<g fill="None" fill-opacity="0.0" stroke="#F0F0F3" stroke-opacity="0.30" stroke-width="0.3"><path d="
M 604.00 88.00 
C 604.90 87.80 606.07 88.03 607.00 88.00
C 608.25 87.72 610.47 88.60 611.00 87.00
C 607.82 87.53 603.43 85.87 601.00 88.00
C 602.00 88.06 603.01 87.92 604.00 88.00 Z"/>
</g>
<g fill="None" fill-opacity="0.0" stroke="#EEEEEE" stroke-opacity="0.60" stroke-width="0.3"><path d="
M 272.00 89.00 
C 272.35 89.13 272.74 89.88 273.00 90.00
C 273.00 90.00 273.62 89.79 274.00 90.00
C 278.00 88.60 273.64 87.08 272.00 89.00 Z"/>
</g>
<g fill="None" fill-opacity="0.0" stroke="#E3E3FB" stroke-opacity="0.04" stroke-width="0.3"><path d="
M 702.00 102.00 
C 702.42 97.66 702.43 92.40 702.00 88.00
C 702.00 92.67 702.00 97.33 702.00 102.00 Z"/>
</g>
<g fill="None" fill-opacity="0.0" stroke="#EEEEF1" stroke-opacity="0.40" stroke-width="0.3"><path d="
M 773.00 90.00 
C 773.50 90.00 774.51 90.06 775.00 90.00
C 778.67 88.26 782.57 88.67 782.00 94.00
C 782.01 93.95 783.00 94.00 783.00 94.00
C 783.00 92.00 783.00 90.00 783.00 88.00
C 779.41 86.06 774.41 89.70 773.00 90.00 Z"/>
</g>
<g fill="None" fill-opacity="0.0" stroke="#EFEFF0" stroke-opacity="0.50" stroke-width="0.3"><path d="
M 801.00 198.00 
C 805.08 198.00 809.53 197.51 813.00 198.00
C 813.97 196.09 814.59 194.10 815.00 192.00
C 814.74 189.12 815.80 186.10 816.00 184.00
C 816.00 176.00 816.00 168.00 816.00 160.00
C 815.54 155.28 815.55 149.65 816.00 145.00
C 816.00 143.00 816.00 141.00 816.00 139.00
C 815.80 136.90 815.00 133.77 815.00 131.00
C 815.00 128.33 815.00 125.67 815.00 123.00
C 815.00 119.57 815.74 115.69 816.00 113.00
C 816.00 105.33 816.00 97.67 816.00 90.00
C 825.20 87.28 839.98 94.07 848.00 89.00
C 838.33 87.14 829.29 88.06 819.00 88.00 C 808.71 87.94 813.98 103.79 813.00 112.00 C 812.02 120.21 813.81 132.49 813.00 141.00 C 812.19 149.51 814.18 163.06 813.00 171.00 C 811.82 178.94 817.09 194.08 809.00 197.00 C 800.91 199.92 789.30 196.23 782.00 195.00
C 785.88 200.07 794.92 198.00 801.00 198.00 Z"/>
</g>
<g fill="None" fill-opacity="0.0" stroke="#000000" stroke-opacity="0.00" stroke-width="0.3"><path d="
M 35.00 117.00 
C 34.23 122.51 34.56 129.45 35.00 135.00
C 35.53 141.70 38.05 148.53 42.00 154.00
C 42.83 155.14 43.98 157.16 45.00 158.00
C 59.73 170.16 88.13 167.12 105.98 161.98 C 123.82 156.83 128.25 131.00 122.93 113.07 C 117.60 95.14 95.34 87.80 77.00 89.00 C 58.66 90.20 38.03 95.29 35.00 117.00 Z"/>
</g>
<g fill="None" fill-opacity="0.0" stroke="#EFEFEF" stroke-opacity="0.62" stroke-width="0.3"><path d="
M 783.00 94.00 
C 783.00 94.00 782.01 93.95 782.00 94.00
C 782.65 103.51 780.69 114.24 783.00 123.00
C 782.36 113.39 783.85 103.59 783.00 94.00 Z"/>
</g>
<g fill="None" fill-opacity="0.0" stroke="#EDEDF0" stroke-opacity="0.36" stroke-width="0.3"><path d="
M 514.00 175.00 
C 517.54 153.22 516.84 123.84 513.00 102.00
C 514.10 124.00 513.01 151.74 514.00 175.00 Z"/>
</g>
<g fill="None" fill-opacity="0.0" stroke="#ECECED" stroke-opacity="0.30" stroke-width="0.3"><path d="
M 404.00 113.00 
C 403.43 113.13 402.00 113.80 401.00 114.00
C 401.39 114.08 402.13 114.89 403.00 115.00
C 412.04 116.11 423.03 114.66 432.00 115.00 C 440.97 115.34 452.56 115.21 461.00 115.00 C 469.44 114.79 482.93 118.23 479.00 109.00
C 479.00 110.33 479.00 111.67 479.00 113.00
C 454.03 113.71 428.96 112.05 404.00 113.00 Z"/>
</g>
<g fill="None" fill-opacity="0.0" stroke="#E9E6E8" stroke-opacity="0.57" stroke-width="0.3"><path d="
M 0.00 114.00 
L 0.00 137.00
C 0.50 137.00 1.00 137.00 1.00 137.00
C 3.44 133.94 -0.89 126.90 1.07 123.07 C 3.03 119.25 0.72 115.01 1.00 112.00
C 0.83 112.67 1.08 113.96 0.00 114.00 Z"/>
</g>
<g fill="None" fill-opacity="0.0" stroke="#F4F4F5" stroke-opacity="0.41" stroke-width="0.3"><path d="
M 298.00 114.00 
C 302.35 134.29 299.00 158.99 299.00 180.00
C 299.23 182.40 299.94 185.94 300.00 189.00
C 300.30 191.72 298.69 197.14 303.00 197.00
C 299.48 188.44 300.95 177.70 301.00 168.00 C 301.05 158.30 300.26 146.59 301.00 137.00 C 301.74 127.41 299.95 117.57 298.00 114.00 Z"/>
</g>
<g fill="None" fill-opacity="0.0" stroke="#F2F2FA" stroke-opacity="0.08" stroke-width="0.3"><path d="
M 396.00 114.00 
C 396.00 114.00 395.75 114.74 396.00 115.00
C 397.74 115.33 399.35 114.33 401.00 114.00
C 402.00 113.80 403.43 113.13 404.00 113.00
C 401.08 113.11 398.68 113.64 396.00 114.00 Z"/>
</g>
<g fill="None" fill-opacity="0.0" stroke="#F2F1F3" stroke-opacity="0.38" stroke-width="0.3"><path d="
M 538.00 195.00 
C 537.75 194.75 537.00 195.00 537.00 195.00
C 537.25 203.09 551.62 196.88 558.00 199.00 C 564.38 201.12 574.03 196.89 572.00 188.00 C 569.97 179.11 572.69 171.56 572.00 163.00 C 571.31 154.44 571.82 146.37 572.00 138.00 C 572.18 129.63 570.83 121.21 572.00 113.00
C 569.27 119.47 568.22 126.20 569.00 134.00 C 569.78 141.80 568.24 150.26 569.00 158.00 C 569.76 165.74 567.76 174.50 569.00 182.00 C 570.24 189.50 568.67 199.58 560.00 197.00 C 551.33 194.42 544.22 201.35 538.00 195.00 Z"/>
</g>
<g fill="None" fill-opacity="0.0" stroke="#DFDFFF" stroke-opacity="0.03" stroke-width="0.3"><path d="
M 815.00 123.00 
C 815.00 122.96 816.00 123.00 816.00 123.00
C 816.00 119.67 816.00 116.33 816.00 113.00
C 815.74 115.69 815.00 119.57 815.00 123.00 Z"/>
</g>
<g fill="None" fill-opacity="0.0" stroke="#F0F1F1" stroke-opacity="0.33" stroke-width="0.3"><path d="
M 184.00 195.00 
C 179.22 188.63 184.94 175.03 183.00 167.00 C 181.06 158.97 185.19 147.51 182.00 140.00
C 182.00 149.07 182.20 156.79 182.00 166.00 C 181.80 175.21 182.52 182.29 182.00 192.00 C 181.48 201.70 193.82 198.56 201.00 199.00 C 208.18 199.44 218.48 200.34 218.00 191.00 C 217.52 181.66 218.11 173.88 218.00 165.00 C 217.89 156.12 217.82 147.56 218.00 139.00 C 218.18 130.44 217.14 123.00 219.00 115.00
C 217.32 119.13 214.43 126.64 215.00 134.00 C 215.57 141.36 214.26 150.42 215.00 158.00 C 215.74 165.58 213.60 174.47 215.00 182.00 C 216.40 189.53 214.48 200.19 206.00 197.00 C 197.52 193.81 189.34 202.11 184.00 195.00 Z"/>
</g>
<g fill="None" fill-opacity="0.0" stroke="#EEEFF1" stroke-opacity="0.70" stroke-width="0.3"><path d="
M 396.00 115.00 
C 398.20 117.28 400.90 115.20 403.00 115.00
C 402.13 114.89 401.39 114.08 401.00 114.00
C 399.35 114.33 397.74 115.33 396.00 115.00 Z"/>
</g>
<g fill="None" fill-opacity="0.0" stroke="#F2F3F3" stroke-opacity="0.20" stroke-width="0.3"><path d="
M 537.00 195.00 
C 537.00 195.00 537.75 194.75 538.00 195.00
C 540.34 169.12 538.48 140.21 537.00 115.00
C 536.01 140.95 534.65 169.15 537.00 195.00 Z"/>
</g>
<g fill="None" fill-opacity="0.0" stroke="#ECECED" stroke-opacity="0.43" stroke-width="0.3"><path d="
M 35.00 135.00 
C 34.56 129.45 34.23 122.51 35.00 117.00
C 33.37 120.60 32.73 121.30 32.00 126.00 C 31.27 130.70 33.69 132.17 35.00 135.00 Z"/>
</g>
<g fill="None" fill-opacity="0.0" stroke="#EDEFEE" stroke-opacity="0.27" stroke-width="0.3"><path d="
M 646.00 122.00 
C 648.26 140.71 646.00 161.14 646.00 180.00
C 646.39 184.03 645.83 191.64 647.00 196.00
C 647.98 197.97 647.10 197.06 649.00 198.00
C 647.11 173.43 648.07 143.54 648.00 118.00
C 645.25 117.55 646.23 120.43 646.00 122.00 Z"/>
</g>
<g fill="None" fill-opacity="0.0" stroke="#EBEBF0" stroke-opacity="0.50" stroke-width="0.3"><path d="
M 911.00 121.00 
C 910.74 120.28 910.21 119.72 910.00 119.00
C 910.11 117.48 906.78 119.41 908.25 120.74 C 909.72 122.06 910.60 122.14 911.00 121.00 Z"/>
</g>
<g fill="None" fill-opacity="0.0" stroke="#EDEDEF" stroke-opacity="0.82" stroke-width="0.3"><path d="
M 332.00 194.00 
C 332.31 193.76 333.00 194.00 333.00 194.00
C 332.99 172.10 333.39 149.09 334.00 128.00
C 333.81 125.20 332.81 122.84 333.00 120.00
C 332.79 119.86 331.39 132.49 332.00 137.00 C 332.61 141.51 331.64 150.52 332.00 156.00 C 332.36 161.48 331.66 169.13 332.00 175.00 C 332.34 180.87 331.46 188.04 332.00 194.00 Z"/>
</g>
<g fill="None" fill-opacity="0.0" stroke="#FBFBFC" stroke-opacity="0.05" stroke-width="0.3"><path d="
M 334.00 128.00 
C 334.36 133.28 334.00 138.71 334.00 144.00
C 334.00 143.96 335.00 144.00 335.00 144.00
C 335.00 135.84 334.71 127.84 334.00 120.00
C 334.00 120.00 333.35 120.23 333.00 120.00
C 332.81 122.84 333.81 125.20 334.00 128.00 Z"/>
</g>
<g fill="None" fill-opacity="0.0" stroke="#FFFFFF" stroke-opacity="0.03" stroke-width="0.3"><path d="
M 815.00 131.00 
C 815.00 130.96 816.00 131.00 816.00 131.00
C 816.00 128.33 816.00 125.67 816.00 123.00
C 816.00 123.00 815.00 122.96 815.00 123.00
C 815.00 125.67 815.00 128.33 815.00 131.00 Z"/>
</g>
<g fill="None" fill-opacity="0.0" stroke="#FFFFFF" stroke-opacity="0.02" stroke-width="0.3"><path d="
M 159.00 139.00 
C 159.36 135.34 160.00 130.41 160.00 126.00
C 157.89 128.85 159.00 135.20 159.00 139.00 Z"/>
</g>
<g fill="None" fill-opacity="0.0" stroke="#EFEFF0" stroke-opacity="0.33" stroke-width="0.3"><path d="
M 333.00 194.00 
C 333.00 194.50 333.00 195.00 333.00 195.00
C 334.73 194.42 333.94 191.43 334.00 190.00
C 334.19 185.35 334.00 180.65 334.00 176.00
C 334.00 165.33 334.00 154.67 334.00 144.00
C 334.00 138.71 334.36 133.28 334.00 128.00
C 333.39 149.09 332.99 172.10 333.00 194.00 Z"/>
</g>
<g fill="None" fill-opacity="0.0" stroke="#FFDFFF" stroke-opacity="0.03" stroke-width="0.3"><path d="
M 816.00 139.00 
C 816.00 136.33 816.00 133.67 816.00 131.00
C 816.00 131.00 815.00 130.96 815.00 131.00
C 815.00 133.77 815.80 136.90 816.00 139.00 Z"/>
</g>
<g fill="None" fill-opacity="0.0" stroke="#EBEBEA" stroke-opacity="0.43" stroke-width="0.3"><path d="
M 0.00 144.00 
C 1.17 144.05 0.89 145.31 1.00 146.00
C 3.17 146.51 0.85 150.82 4.00 150.00
C 2.44 145.78 2.99 141.13 1.00 137.00
C 1.00 137.00 0.50 137.00 0.00 137.00
L 0.00 144.00 Z"/>
</g>
<g fill="None" fill-opacity="0.0" stroke="#EEEEEE" stroke-opacity="0.42" stroke-width="0.3"><path d="
M 424.00 137.00 
C 417.16 137.63 409.09 135.71 403.00 138.00
C 409.84 137.37 417.91 139.29 424.00 137.00 Z"/>
</g>
<g fill="None" fill-opacity="0.0" stroke="#EDEDED" stroke-opacity="0.64" stroke-width="0.3"><path d="
M 480.00 137.00 
C 476.82 137.53 472.43 135.87 470.00 138.00
C 473.18 137.47 477.57 139.13 480.00 137.00 Z"/>
</g>
<g fill="None" fill-opacity="0.0" stroke="#000000" stroke-opacity="0.00" stroke-width="0.3"><path d="
M 396.00 164.00 
C 403.56 167.78 416.61 164.14 425.00 165.00 C 433.39 165.86 447.11 165.06 455.00 165.00 C 462.89 164.94 476.87 168.31 479.00 159.00
C 479.00 152.33 479.00 145.67 479.00 139.00
C 465.92 139.10 451.99 138.87 439.00 139.00 C 426.01 139.13 412.39 138.31 400.01 140.01 C 387.62 141.71 387.93 157.25 396.00 164.00 Z"/>
</g>
<g fill="None" fill-opacity="0.0" stroke="#EEEDEF" stroke-opacity="0.36" stroke-width="0.3"><path d="
M 356.00 142.00 
C 354.21 149.21 354.63 157.79 356.00 165.00
C 356.11 163.42 356.48 154.83 357.07 151.07 C 357.67 147.32 356.00 141.34 356.00 142.00 Z"/>
</g>
<g fill="None" fill-opacity="0.0" stroke="#E9E2FF" stroke-opacity="0.04" stroke-width="0.3"><path d="
M 334.00 176.00 
C 334.00 175.96 335.00 176.00 335.00 176.00
C 335.00 165.33 335.00 154.67 335.00 144.00
C 335.00 144.00 334.00 143.96 334.00 144.00
C 334.00 154.67 334.00 165.33 334.00 176.00 Z"/>
</g>
<g fill="None" fill-opacity="0.0" stroke="#FDFDFF" stroke-opacity="0.02" stroke-width="0.3"><path d="
M 680.00 161.00 
C 680.00 168.36 680.36 176.40 681.00 183.00
C 681.00 170.05 681.18 156.24 680.00 144.00
C 680.00 149.67 680.00 155.33 680.00 161.00 Z"/>
</g>
<g fill="None" fill-opacity="0.0" stroke="#EEEEF3" stroke-opacity="0.42" stroke-width="0.3"><path d="
M 919.00 147.00 
C 918.71 146.05 918.21 144.66 918.00 144.00
C 918.07 144.64 916.74 145.13 917.08 146.87 C 917.43 148.61 918.80 146.71 919.00 147.00 Z"/>
</g>
<g fill="None" fill-opacity="0.0" stroke="#F0E1FF" stroke-opacity="0.04" stroke-width="0.3"><path d="
M 816.00 160.00 
C 816.00 155.00 816.00 150.00 816.00 145.00
C 815.55 149.65 815.54 155.28 816.00 160.00 Z"/>
</g>
<g fill="None" fill-opacity="0.0" stroke="#EDF0EE" stroke-opacity="0.37" stroke-width="0.3"><path d="
M 45.00 158.00 
C 43.98 157.16 42.83 155.14 42.00 154.00
C 40.86 153.97 40.28 152.47 39.00 153.00
C 39.40 157.71 45.12 158.03 45.00 158.00 Z"/>
</g>
<g fill="None" fill-opacity="0.0" stroke="#F4F4F4" stroke-opacity="0.20" stroke-width="0.3"><path d="
M 396.00 164.00 
C 401.34 168.46 414.75 166.78 424.00 167.00 C 433.25 167.22 448.02 166.89 457.00 167.00 C 465.98 167.11 478.86 168.11 479.00 159.00
C 476.87 168.31 462.89 164.94 455.00 165.00 C 447.11 165.06 433.39 165.86 425.00 165.00 C 416.61 164.14 403.56 167.78 396.00 164.00 Z"/>
</g>
<g fill="None" fill-opacity="0.0" stroke="#F4F2F5" stroke-opacity="0.28" stroke-width="0.3"><path d="
M 681.00 192.00 
C 681.41 189.13 681.00 185.90 681.00 183.00
C 680.36 176.40 680.00 168.36 680.00 161.00
C 677.67 171.34 679.67 183.83 679.00 195.00
C 679.73 194.58 680.85 192.61 681.00 192.00 Z"/>
</g>
<g fill="None" fill-opacity="0.0" stroke="#EEEEEE" stroke-opacity="0.57" stroke-width="0.3"><path d="
M 95.00 167.00 
C 86.48 165.32 74.59 165.35 66.00 167.00
C 74.62 168.78 85.96 168.50 95.00 167.00 Z"/>
</g>
<g fill="None" fill-opacity="0.0" stroke="#E2E2F7" stroke-opacity="0.04" stroke-width="0.3"><path d="
M 702.00 185.00 
C 702.00 185.00 703.00 185.04 703.00 185.00
C 703.00 178.62 702.55 171.70 702.00 166.00
C 702.00 172.33 702.00 178.67 702.00 185.00 Z"/>
</g>
<g fill="None" fill-opacity="0.0" stroke="#FFFFFF" stroke-opacity="0.03" stroke-width="0.3"><path d="
M 334.00 190.00 
C 334.00 190.00 335.00 190.04 335.00 190.00
C 335.25 185.36 335.00 180.64 335.00 176.00
C 335.00 176.00 334.00 175.96 334.00 176.00
C 334.00 180.65 334.19 185.35 334.00 190.00 Z"/>
</g>
<g fill="None" fill-opacity="0.0" stroke="#EDEDFF" stroke-opacity="0.05" stroke-width="0.3"><path d="
M 299.00 189.00 
C 299.00 189.00 300.00 189.01 300.00 189.00
C 299.94 185.94 299.23 182.40 299.00 180.00
C 299.00 183.00 298.94 186.00 299.00 189.00 Z"/>
</g>
<g fill="None" fill-opacity="0.0" stroke="#F9F9F9" stroke-opacity="0.03" stroke-width="0.3"><path d="
M 647.00 196.00 
C 645.83 191.64 646.39 184.03 646.00 180.00
C 646.00 184.96 644.95 191.87 647.00 196.00 Z"/>
</g>
<g fill="None" fill-opacity="0.0" stroke="#F3F2F3" stroke-opacity="0.29" stroke-width="0.3"><path d="
M 364.00 182.00 
C 366.04 184.66 367.33 185.95 370.00 188.00
C 370.12 188.19 366.09 183.47 364.00 182.00 Z"/>
</g>
<g fill="None" fill-opacity="0.0" stroke="#FFE1FF" stroke-opacity="0.04" stroke-width="0.3"><path d="
M 815.00 192.00 
C 815.04 191.87 816.00 192.00 816.00 192.00
C 816.24 189.38 816.00 186.63 816.00 184.00
C 815.80 186.10 814.74 189.12 815.00 192.00 Z"/>
</g>
<g fill="None" fill-opacity="0.0" stroke="#EDEDED" stroke-opacity="0.58" stroke-width="0.3"><path d="
M 29.00 189.00 
C 29.14 186.53 26.37 184.45 24.00 185.00
C 24.83 187.17 27.45 187.45 29.00 189.00 Z"/>
</g>
<g fill="None" fill-opacity="0.0" stroke="#EEEEEF" stroke-opacity="0.40" stroke-width="0.3"><path d="
M 918.00 190.00 
C 918.17 190.06 920.82 190.89 921.00 191.00
C 923.11 191.40 921.02 194.53 923.00 195.00
C 926.09 188.58 921.22 190.25 918.00 190.00 Z"/>
</g>
<g fill="None" fill-opacity="0.0" stroke="#F0EFF0" stroke-opacity="0.24" stroke-width="0.3"><path d="
M 376.00 192.00 
C 379.36 193.81 382.14 194.94 386.00 196.00
C 385.73 195.85 385.25 195.25 385.00 195.00
C 382.63 192.59 378.93 192.73 376.00 192.00 Z"/>
</g>
<g fill="None" fill-opacity="0.0" stroke="#EDEFEE" stroke-opacity="0.10" stroke-width="0.3"><path d="
M 801.00 198.00 
C 801.00 198.00 800.96 199.00 801.00 199.00
C 806.82 199.00 816.60 200.69 816.00 192.00
C 816.00 192.00 815.04 191.87 815.00 192.00
C 814.59 194.10 813.97 196.09 813.00 198.00
C 809.53 197.51 805.08 198.00 801.00 198.00 Z"/>
</g>
<g fill="None" fill-opacity="0.0" stroke="#EBEBEB" stroke-opacity="0.54" stroke-width="0.3"><path d="
M 333.00 195.00 
C 333.00 195.00 333.00 194.50 333.00 194.00
C 333.00 194.00 332.31 193.76 332.00 194.00
C 331.75 195.53 329.45 196.18 330.00 198.00
C 332.15 198.37 332.73 196.59 333.00 195.00 Z"/>
</g>
<g fill="None" fill-opacity="0.0" stroke="#F0EEEF" stroke-opacity="0.43" stroke-width="0.3"><path d="
M 385.00 195.00 
C 385.25 195.25 385.73 195.85 386.00 196.00
C 389.84 197.06 392.96 197.44 397.00 198.00
C 396.76 197.80 397.00 197.00 397.00 197.00
C 395.54 195.62 386.64 192.15 385.00 195.00 Z"/>
</g>
<g fill="None" fill-opacity="0.0" stroke="#ECECEC" stroke-opacity="0.46" stroke-width="0.3"><path d="
M 109.00 198.00 
C 110.46 197.69 111.63 197.37 113.00 197.00
C 113.55 197.03 110.50 193.70 109.26 195.25 C 108.03 196.79 107.81 197.65 109.00 198.00 Z"/>
</g>
<g fill="None" fill-opacity="0.0" stroke="#ECECEC" stroke-opacity="0.28" stroke-width="0.3"><path d="
M 397.00 198.00 
C 411.97 200.09 428.57 199.20 444.00 199.00 C 459.43 198.80 476.06 200.63 491.00 198.00
C 461.77 199.46 427.85 194.22 397.00 197.00
C 397.00 197.00 396.76 197.80 397.00 198.00 Z"/>
</g>
<g fill="None" fill-opacity="0.0" stroke="#EBECED" stroke-opacity="0.24" stroke-width="0.3"><path d="
M 61.00 199.00 
C 72.87 200.15 87.06 200.16 99.00 199.00
C 86.68 197.84 73.01 197.84 61.00 199.00 Z"/>
</g>
<g fill="None" fill-opacity="0.0" stroke="#EDEDED" stroke-opacity="0.58" stroke-width="0.3"><path d="
M 901.00 222.00 
C 901.00 222.00 900.50 222.00 900.00 222.00
C 899.60 224.11 896.47 222.02 896.00 224.00
C 898.63 223.56 902.79 225.29 904.00 222.00
C 903.00 221.96 902.00 222.05 901.00 222.00 Z"/>
</g>
<g fill="None" fill-opacity="0.0" stroke="#EEEFF2" stroke-opacity="0.32" stroke-width="0.3"><path d="
M 875.00 226.00 
C 872.33 234.12 877.00 244.66 875.00 253.00
L 877.00 253.00
C 878.32 242.99 873.92 232.65 879.00 224.00
C 878.01 223.95 875.42 225.01 875.00 226.00 Z"/>
</g>
<g fill="#000000" fill-opacity="0.00" stroke="None">
<path d="
M 0.00 114.00 
C 1.08 113.96 0.83 112.67 1.00 112.00
C 8.27 83.47 23.76 62.59 54.00 56.00
C 64.68 53.67 75.17 53.59 86.00 54.00
C 100.54 54.56 113.32 58.93 125.00 67.00
C 125.00 66.00 125.00 65.00 125.00 64.00
C 127.51 54.13 125.00 40.24 125.00 30.00
C 125.00 19.55 124.39 10.05 125.00 0.00
L 0.00 0.00
L 0.00 114.00 Z"/>
</g>
<g fill="#F1F1F4" fill-opacity="0.42" stroke="None">
<path d="
M 125.00 30.00 
C 125.00 29.96 126.00 30.00 126.00 30.00
C 126.66 20.33 126.75 9.58 128.00 0.00
L 125.00 0.00
C 124.39 10.05 125.00 19.55 125.00 30.00 Z"/>
</g>
<g fill="#F0EFF0" fill-opacity="0.95" stroke="None">
<path d="
M 126.00 30.00 
C 125.31 40.16 128.92 55.10 125.00 64.00
C 125.00 65.00 125.00 66.00 125.00 67.00
C 113.32 58.93 100.54 54.56 86.00 54.00
C 81.20 54.98 72.80 56.42 67.00 56.00 C 61.20 55.58 57.40 55.96 54.00 56.00
C 23.76 62.59 8.27 83.47 1.00 112.00
C 0.72 115.01 3.03 119.25 1.07 123.07 C -0.89 126.90 3.44 133.94 1.00 137.00
C 2.99 141.13 2.44 145.78 4.00 150.00
C 0.85 150.82 3.17 146.51 1.00 146.00
C 5.60 173.69 29.67 202.03 61.00 199.00
C 73.01 197.84 86.68 197.84 99.00 199.00
C 102.60 199.34 105.69 198.70 109.00 198.00
C 107.81 197.65 108.03 196.79 109.26 195.25 C 110.50 193.70 113.55 197.03 113.00 197.00
C 137.41 190.41 157.84 171.96 159.00 145.00
C 157.50 135.49 156.39 122.94 157.00 111.00 C 157.61 99.06 156.72 86.15 157.00 74.00 C 157.28 61.85 156.85 49.24 157.00 37.00 C 157.15 24.76 156.89 12.26 157.00 0.00
L 128.00 0.00
C 126.75 9.58 126.66 20.33 126.00 30.00
M 125.00 71.00 
C 126.07 68.46 125.57 65.45 127.00 63.00
C 128.73 64.83 129.02 71.30 125.00 71.00
M 45.00 158.00 
C 45.12 158.03 39.40 157.71 39.00 153.00
C 40.28 152.47 40.86 153.97 42.00 154.00
C 38.05 148.53 35.53 141.70 35.00 135.00
C 33.69 132.17 31.27 130.70 32.00 126.00 C 32.73 121.30 33.37 120.60 35.00 117.00
C 38.03 95.29 58.66 90.20 77.00 89.00 C 95.34 87.80 117.60 95.14 122.93 113.07 C 128.25 131.00 123.82 156.83 105.98 161.98 C 88.13 167.12 59.73 170.16 45.00 158.00
M 95.00 167.00 
C 85.96 168.50 74.62 168.78 66.00 167.00
C 74.59 165.35 86.48 165.32 95.00 167.00
M 29.00 189.00 
C 27.45 187.45 24.83 187.17 24.00 185.00
C 26.37 184.45 29.14 186.53 29.00 189.00 Z"/>
</g>
<g fill="#EEECED" fill-opacity="0.57" stroke="None">
<path d="
M 159.00 145.00 
C 159.09 143.01 159.00 140.99 159.00 139.00
C 159.00 135.20 157.89 128.85 160.00 126.00
C 160.00 125.50 160.00 125.00 160.00 125.00
C 155.10 118.38 160.55 105.67 159.00 97.00 C 157.45 88.33 159.82 76.23 159.00 67.00 C 158.18 57.77 159.60 47.42 159.00 38.00 C 158.40 28.58 159.33 17.67 160.00 9.00
C 159.94 5.83 159.36 2.63 160.00 0.00
L 157.00 0.00
C 156.89 12.26 157.15 24.76 157.00 37.00 C 156.85 49.24 157.28 61.85 157.00 74.00 C 156.72 86.15 157.61 99.06 157.00 111.00 C 156.39 122.94 157.50 135.49 159.00 145.00 Z"/>
</g>
<g fill="#000000" fill-opacity="0.00" stroke="None">
<path d="
M 160.00 9.00 
C 160.77 47.63 160.00 86.36 160.00 125.00
C 160.00 125.00 160.00 125.50 160.00 126.00
C 160.00 130.41 159.36 135.34 159.00 139.00
C 159.00 140.99 159.09 143.01 159.00 145.00
C 157.84 171.96 137.41 190.41 113.00 197.00
C 111.63 197.37 110.46 197.69 109.00 198.00
C 105.69 198.70 102.60 199.34 99.00 199.00
C 87.06 200.16 72.87 200.15 61.00 199.00
C 29.67 202.03 5.60 173.69 1.00 146.00
C 0.89 145.31 1.17 144.05 0.00 144.00
L 0.00 253.00
L 875.00 253.00
C 877.00 244.66 872.33 234.12 875.00 226.00
C 877.31 218.97 894.33 222.00 900.00 222.00
C 900.50 222.00 901.00 222.00 901.00 222.00
C 912.88 215.78 918.45 204.19 921.00 191.00
C 920.82 190.89 918.17 190.06 918.00 190.00
C 910.16 187.40 902.55 182.51 900.22 173.78 C 897.90 165.05 895.76 154.90 892.68 146.32 C 889.59 137.74 886.56 130.72 882.70 122.31 C 878.83 113.89 876.39 106.47 872.23 97.77 C 868.06 89.07 867.95 82.34 863.07 72.93 C 858.19 63.51 856.07 54.86 870.00 55.00 C 883.93 55.14 889.35 55.09 891.98 67.02 C 894.60 78.96 897.78 82.77 900.98 93.02 C 904.18 103.27 907.11 109.02 910.00 119.00
C 910.21 119.72 910.74 120.28 911.00 121.00
C 913.77 128.49 915.58 136.39 918.00 144.00
C 918.21 144.66 918.71 146.05 919.00 147.00
C 922.82 159.43 931.60 155.20 932.93 144.93 C 934.26 134.66 938.98 128.26 940.78 118.78 C 942.57 109.30 946.64 101.81 948.78 92.78 C 950.92 83.74 956.54 76.92 957.77 67.77 C 959.01 58.62 969.07 48.67 979.00 56.00
C 979.50 56.04 980.00 56.00 980.00 56.00
C 981.33 56.00 982.67 56.00 984.00 56.00
L 984.00 0.00
L 853.00 0.00
C 850.47 7.54 858.07 23.80 849.00 28.00
C 842.35 31.07 834.68 27.50 828.00 28.00
C 814.64 29.01 809.75 42.49 812.00 55.00
C 813.67 55.00 815.33 55.00 817.00 55.00
C 817.49 54.92 818.50 55.00 819.00 55.00
C 827.22 55.00 836.93 53.55 845.00 55.00
C 851.13 56.10 850.25 59.73 850.00 64.00
C 849.59 70.99 851.48 79.18 850.00 86.00
C 849.62 87.73 849.50 88.05 848.00 89.00
C 839.98 94.07 825.20 87.28 816.00 90.00
C 816.00 97.67 816.00 105.33 816.00 113.00
C 816.00 116.33 816.00 119.67 816.00 123.00
C 816.00 125.67 816.00 128.33 816.00 131.00
C 816.00 133.67 816.00 136.33 816.00 139.00
C 816.00 141.00 816.00 143.00 816.00 145.00
C 816.00 150.00 816.00 155.00 816.00 160.00
C 816.00 168.00 816.00 176.00 816.00 184.00
C 816.00 186.63 816.24 189.38 816.00 192.00
C 816.60 200.69 806.82 199.00 801.00 199.00
C 790.01 199.00 779.37 200.00 781.00 187.00 C 782.63 174.00 780.25 166.80 781.00 155.00 C 781.75 143.20 780.62 134.35 781.00 123.00 C 781.38 111.65 780.71 101.26 781.00 90.00
C 779.00 90.00 777.00 90.00 775.00 90.00
C 774.51 90.06 773.50 90.00 773.00 90.00
C 759.74 90.00 753.80 89.03 755.00 76.00 C 756.20 62.97 751.97 52.68 767.00 55.00 C 782.03 57.32 776.26 43.52 778.00 34.00 C 779.74 24.48 782.44 18.48 788.00 11.00
C 789.91 7.79 791.01 7.05 794.00 5.00
C 795.98 3.64 798.34 1.76 800.00 0.00
L 735.00 0.00
C 734.34 8.77 735.88 19.42 735.00 28.00 C 734.12 36.58 718.44 33.00 712.00 33.00
C 711.50 33.00 711.00 33.00 711.00 33.00
C 707.14 33.00 703.16 33.29 700.00 32.00
C 690.41 28.10 698.88 8.32 696.00 0.00
L 217.00 0.00
C 219.20 21.86 217.43 44.73 218.00 67.00
C 221.14 66.82 222.58 62.70 226.00 63.00
C 235.54 57.51 243.55 54.91 255.00 54.00
C 260.02 53.60 263.91 53.65 269.00 54.00
C 288.25 55.31 306.53 60.98 319.00 77.00
C 319.21 77.27 319.75 77.74 320.00 78.00
C 330.18 88.58 332.72 105.92 334.00 120.00
C 334.71 127.84 335.00 135.84 335.00 144.00
C 335.00 154.67 335.00 165.33 335.00 176.00
C 335.00 180.64 335.25 185.36 335.00 190.00
C 334.38 201.34 326.96 198.91 317.00 199.00 C 307.04 199.09 299.24 201.23 299.00 189.00
C 298.94 186.00 299.00 183.00 299.00 180.00
C 299.00 158.99 302.35 134.29 298.00 114.00
C 295.02 100.11 285.02 96.02 274.00 90.00
C 273.62 89.79 273.00 90.00 273.00 90.00
C 265.27 89.82 258.89 87.69 251.00 89.00
C 236.68 91.37 222.47 100.09 219.00 115.00
C 217.14 123.00 218.18 130.44 218.00 139.00 C 217.82 147.56 217.89 156.12 218.00 165.00 C 218.11 173.88 217.52 181.66 218.00 191.00 C 218.48 200.34 208.18 199.44 201.00 199.00 C 193.82 198.56 181.48 201.70 182.00 192.00 C 182.52 182.29 181.80 175.21 182.00 166.00 C 182.20 156.79 182.00 149.07 182.00 140.00
C 182.00 139.50 182.00 138.50 182.00 138.00
C 182.00 115.78 180.83 92.07 182.00 70.00 C 183.17 47.93 178.42 23.86 183.00 3.00
C 182.75 2.07 183.20 0.94 183.00 0.00
L 160.00 0.00
C 159.36 2.63 159.94 5.83 160.00 9.00
M 623.00 55.00 
C 642.95 58.17 657.01 65.78 668.92 83.08 C 680.84 100.37 680.00 123.12 680.00 144.00
C 681.18 156.24 681.00 170.05 681.00 183.00
C 681.00 185.90 681.41 189.13 681.00 192.00
C 679.58 201.91 656.16 201.56 649.00 198.00
C 647.10 197.06 647.98 197.97 647.00 196.00
C 644.95 191.87 646.00 184.96 646.00 180.00
C 646.00 161.14 648.26 140.71 646.00 122.00
C 644.93 113.15 641.49 104.19 634.75 97.25 C 628.01 90.30 615.48 89.86 607.00 88.00
C 606.07 88.03 604.90 87.80 604.00 88.00
C 596.75 89.59 589.60 90.58 582.77 94.77 C 575.94 98.96 574.57 106.89 572.00 113.00
C 570.83 121.21 572.18 129.63 572.00 138.00 C 571.82 146.37 571.31 154.44 572.00 163.00 C 572.69 171.56 569.97 179.11 572.00 188.00 C 574.03 196.89 564.38 201.12 558.00 199.00 C 551.62 196.88 537.25 203.09 537.00 195.00
C 534.65 169.15 536.01 140.95 537.00 115.00
C 537.63 98.40 542.73 82.95 554.75 70.75 C 566.77 58.55 584.53 55.45 601.00 54.00
C 608.61 53.33 615.39 53.79 623.00 55.00
M 460.00 56.00 
C 488.25 58.57 507.97 73.40 513.00 102.00
C 516.84 123.84 517.54 153.22 514.00 175.00
C 511.65 189.46 505.49 195.45 491.00 198.00
C 476.06 200.63 459.43 198.80 444.00 199.00 C 428.57 199.20 411.97 200.09 397.00 198.00
C 392.96 197.44 389.84 197.06 386.00 196.00
C 382.14 194.94 379.36 193.81 376.00 192.00
C 373.62 190.72 372.12 189.62 370.00 188.00
C 367.33 185.95 366.04 184.66 364.00 182.00
C 359.73 176.43 357.35 172.13 356.00 165.00
C 354.63 157.79 354.21 149.21 356.00 142.00
C 360.72 122.95 378.63 116.32 396.00 114.00
C 398.68 113.64 401.08 113.11 404.00 113.00
C 428.96 112.05 454.03 113.71 479.00 113.00
C 479.00 111.67 479.00 110.33 479.00 109.00
C 474.41 98.22 470.58 91.52 458.00 90.00
C 449.09 88.92 441.15 90.09 432.00 90.00 C 422.85 89.91 414.56 89.26 405.00 90.00 C 395.44 90.74 389.53 87.82 379.00 90.00 C 368.47 92.18 366.63 82.52 368.00 74.00 C 369.37 65.48 364.93 55.65 375.01 55.01 C 385.08 54.36 392.44 55.24 402.00 55.00 C 411.56 54.76 419.58 55.00 429.00 55.00
C 435.66 55.00 442.34 54.87 449.00 55.00
C 452.95 55.08 456.18 55.65 460.00 56.00
M 736.00 57.00 
C 741.44 64.32 735.12 78.44 737.00 88.00 C 738.88 97.56 735.95 109.55 737.00 120.00 C 738.05 130.45 736.09 140.80 737.00 152.00 C 737.91 163.20 735.62 171.69 737.00 184.00 C 738.38 196.31 733.44 200.52 720.00 199.00 C 706.56 197.48 702.00 201.04 702.00 185.00
C 702.00 178.67 702.00 172.33 702.00 166.00
C 702.00 144.67 702.00 123.33 702.00 102.00
C 702.00 97.33 702.00 92.67 702.00 88.00
C 702.00 79.91 703.39 73.22 702.00 65.00 C 700.61 56.78 707.81 52.73 715.00 55.00 C 722.19 57.27 731.49 50.93 736.00 57.00 Z"/>
</g>
<g fill="#F0EFEF" fill-opacity="0.97" stroke="None">
<path d="
M 183.00 3.00 
C 183.15 3.53 183.88 4.00 184.00 5.00
C 184.95 12.70 183.58 20.19 184.00 28.00 C 184.42 35.81 183.79 44.11 184.00 52.00 C 184.21 59.89 183.86 68.11 184.00 76.00 C 184.14 83.89 183.83 92.17 184.00 100.00 C 184.17 107.83 183.67 115.25 184.00 123.00 C 184.33 130.75 183.32 139.39 184.00 147.00 C 184.68 154.61 182.52 163.78 184.00 171.00 C 185.48 178.22 180.74 188.70 184.00 195.00
C 189.34 202.11 197.52 193.81 206.00 197.00 C 214.48 200.19 216.40 189.53 215.00 182.00 C 213.60 174.47 215.74 165.58 215.00 158.00 C 214.26 150.42 215.57 141.36 215.00 134.00 C 214.43 126.64 217.32 119.13 219.00 115.00
C 222.47 100.09 236.68 91.37 251.00 89.00
C 258.98 85.27 263.72 85.90 272.00 89.00
C 273.64 87.08 278.00 88.60 274.00 90.00
C 285.02 96.02 295.02 100.11 298.00 114.00
C 299.95 117.57 301.74 127.41 301.00 137.00 C 300.26 146.59 301.05 158.30 301.00 168.00 C 300.95 177.70 299.48 188.44 303.00 197.00
C 298.69 197.14 300.30 191.72 300.00 189.00
C 300.00 189.01 299.00 189.00 299.00 189.00
C 299.24 201.23 307.04 199.09 317.00 199.00 C 326.96 198.91 334.38 201.34 335.00 190.00
C 335.00 190.04 334.00 190.00 334.00 190.00
C 333.94 191.43 334.73 194.42 333.00 195.00
C 332.73 196.59 332.15 198.37 330.00 198.00
C 329.45 196.18 331.75 195.53 332.00 194.00
C 331.46 188.04 332.34 180.87 332.00 175.00 C 331.66 169.13 332.36 161.48 332.00 156.00 C 331.64 150.52 332.61 141.51 332.00 137.00 C 331.39 132.49 332.79 119.86 333.00 120.00
C 333.35 120.23 334.00 120.00 334.00 120.00
C 332.72 105.92 330.18 88.58 320.00 78.00
C 320.13 78.98 319.90 80.01 320.00 81.00
C 317.56 80.80 315.41 74.90 319.00 77.00
C 306.53 60.98 288.25 55.31 269.00 54.00
C 270.21 54.29 272.99 55.08 274.00 56.00
C 266.67 56.00 259.33 56.00 252.00 56.00
C 252.24 54.33 254.85 55.83 255.00 54.00
C 243.55 54.91 235.54 57.51 226.00 63.00
C 224.53 64.45 220.48 70.78 216.00 71.00
C 213.67 47.83 215.66 23.58 215.00 0.00
L 183.00 0.00
C 183.20 0.94 182.75 2.07 183.00 3.00 Z"/>
</g>
<g fill="#F0F1F2" fill-opacity="0.42" stroke="None">
<path d="
M 226.00 63.00 
C 222.58 62.70 221.14 66.82 218.00 67.00
C 217.43 44.73 219.20 21.86 217.00 0.00
L 215.00 0.00
C 215.66 23.58 213.67 47.83 216.00 71.00
C 220.48 70.78 224.53 64.45 226.00 63.00 Z"/>
</g>
<g fill="#4FB15E" fill-opacity="0.20" stroke="None">
<path d="
M 700.00 32.00 
C 696.02 29.81 698.68 21.23 698.00 17.00 C 697.32 12.77 698.51 4.59 698.00 0.00
L 696.00 0.00
C 698.88 8.32 690.41 28.10 700.00 32.00 Z"/>
</g>
<g fill="#3BC74B" fill-opacity="0.96" stroke="None">
<path d="
M 700.00 32.00 
C 703.15 33.74 707.95 30.75 711.00 33.00
C 711.00 33.00 711.50 33.00 712.00 33.00
C 717.11 29.22 731.67 36.58 733.77 27.77 C 735.87 18.96 732.67 8.94 734.00 0.00
L 698.00 0.00
C 698.51 4.59 697.32 12.77 698.00 17.00 C 698.68 21.23 696.02 29.81 700.00 32.00 Z"/>
</g>
<g fill="#5DA765" fill-opacity="0.08" stroke="None">
<path d="
M 712.00 33.00 
C 718.44 33.00 734.12 36.58 735.00 28.00 C 735.88 19.42 734.34 8.77 735.00 0.00
L 734.00 0.00
C 732.67 8.94 735.87 18.96 733.77 27.77 C 731.67 36.58 717.11 29.22 712.00 33.00 Z"/>
</g>
<g fill="#F0EFF0" fill-opacity="0.96" stroke="None">
<path d="
M 794.00 5.00 
C 795.01 4.64 795.76 3.67 797.00 4.00
C 792.01 6.84 789.51 13.51 785.00 16.00
C 786.11 14.33 787.30 12.87 788.00 11.00
C 782.44 18.48 779.74 24.48 778.00 34.00 C 776.26 43.52 782.03 57.32 767.00 55.00 C 751.97 52.68 756.20 62.97 755.00 76.00 C 753.80 89.03 759.74 90.00 773.00 90.00
C 774.41 89.70 779.41 86.06 783.00 88.00
C 783.00 90.00 783.00 92.00 783.00 94.00
C 783.85 103.59 782.36 113.39 783.00 123.00
C 780.69 114.24 782.65 103.51 782.00 94.00
C 782.57 88.67 778.67 88.26 775.00 90.00
C 777.00 90.00 779.00 90.00 781.00 90.00
C 780.71 101.26 781.38 111.65 781.00 123.00 C 780.62 134.35 781.75 143.20 781.00 155.00 C 780.25 166.80 782.63 174.00 781.00 187.00 C 779.37 200.00 790.01 199.00 801.00 199.00
C 800.96 199.00 801.00 198.00 801.00 198.00
C 794.92 198.00 785.88 200.07 782.00 195.00
C 789.30 196.23 800.91 199.92 809.00 197.00 C 817.09 194.08 811.82 178.94 813.00 171.00 C 814.18 163.06 812.19 149.51 813.00 141.00 C 813.81 132.49 812.02 120.21 813.00 112.00 C 813.98 103.79 808.71 87.94 819.00 88.00 C 829.29 88.06 838.33 87.14 848.00 89.00
C 849.50 88.05 849.62 87.73 850.00 86.00
C 850.00 85.71 847.45 82.76 848.00 80.00 C 848.55 77.24 848.69 74.02 848.00 71.00 C 847.31 67.98 849.60 65.26 850.00 64.00
C 850.25 59.73 851.13 56.10 845.00 55.00
C 844.93 55.00 841.39 58.11 839.00 57.00 C 836.61 55.89 833.51 57.22 831.00 57.00
C 824.96 57.58 805.22 62.30 810.00 50.00
C 810.48 53.47 812.46 58.84 817.00 55.00
C 815.33 55.00 813.67 55.00 812.00 55.00
C 809.75 42.49 814.64 29.01 828.00 28.00
C 826.76 27.57 824.44 28.50 825.00 26.00
C 833.26 25.39 842.18 27.26 850.00 25.00
C 851.71 17.41 852.32 6.96 849.00 0.00
L 800.00 0.00
C 798.34 1.76 795.98 3.64 794.00 5.00
M 779.00 47.00 
C 784.48 65.19 762.29 53.12 756.00 61.00
C 756.84 54.92 762.67 54.88 769.00 56.00 C 775.33 57.12 779.70 53.75 779.00 47.00 Z"/>
</g>
<g fill="#EEEEEF" fill-opacity="0.31" stroke="None">
<path d="
M 850.00 25.00 
C 849.92 25.35 850.34 27.05 849.00 28.00
C 858.07 23.80 850.47 7.54 853.00 0.00
L 849.00 0.00
C 852.32 6.96 851.71 17.41 850.00 25.00 Z"/>
</g>
<g fill="#EEEEEE" fill-opacity="0.07" stroke="None">
<path d="
M 182.00 138.00 
C 187.30 125.54 181.34 108.05 183.00 94.00 C 184.66 79.95 182.41 63.40 183.00 49.00 C 183.59 34.60 182.64 18.69 184.00 5.00
C 183.88 4.00 183.15 3.53 183.00 3.00
C 178.42 23.86 183.17 47.93 182.00 70.00 C 180.83 92.07 182.00 115.78 182.00 138.00 Z"/>
</g>
<g fill="#EFEFEF" fill-opacity="0.37" stroke="None">
<path d="
M 794.00 5.00 
C 791.01 7.05 789.91 7.79 788.00 11.00
C 787.30 12.87 786.11 14.33 785.00 16.00
C 789.51 13.51 792.01 6.84 797.00 4.00
C 795.76 3.67 795.01 4.64 794.00 5.00 Z"/>
</g>
<g fill="#ECEDED" fill-opacity="0.55" stroke="None">
<path d="
M 182.00 138.00 
C 182.00 138.50 182.00 139.50 182.00 140.00
C 185.19 147.51 181.06 158.97 183.00 167.00 C 184.94 175.03 179.22 188.63 184.00 195.00
C 180.74 188.70 185.48 178.22 184.00 171.00 C 182.52 163.78 184.68 154.61 184.00 147.00 C 183.32 139.39 184.33 130.75 184.00 123.00 C 183.67 115.25 184.17 107.83 184.00 100.00 C 183.83 92.17 184.14 83.89 184.00 76.00 C 183.86 68.11 184.21 59.89 184.00 52.00 C 183.79 44.11 184.42 35.81 184.00 28.00 C 183.58 20.19 184.95 12.70 184.00 5.00
C 182.64 18.69 183.59 34.60 183.00 49.00 C 182.41 63.40 184.66 79.95 183.00 94.00 C 181.34 108.05 187.30 125.54 182.00 138.00 Z"/>
</g>
<g fill="#FFFFFF" fill-opacity="0.02" stroke="None">
<path d="
M 160.00 125.00 
C 160.00 86.36 160.77 47.63 160.00 9.00
C 159.33 17.67 158.40 28.58 159.00 38.00 C 159.60 47.42 158.18 57.77 159.00 67.00 C 159.82 76.23 157.45 88.33 159.00 97.00 C 160.55 105.67 155.10 118.38 160.00 125.00 Z"/>
</g>
<g fill="#F0F0F0" fill-opacity="0.44" stroke="None">
<path d="
M 828.00 28.00 
C 834.68 27.50 842.35 31.07 849.00 28.00
C 850.34 27.05 849.92 25.35 850.00 25.00
C 842.18 27.26 833.26 25.39 825.00 26.00
C 824.44 28.50 826.76 27.57 828.00 28.00 Z"/>
</g>
<g fill="#EFEFF1" fill-opacity="0.07" stroke="None">
<path d="
M 125.00 64.00 
C 128.92 55.10 125.31 40.16 126.00 30.00
C 126.00 30.00 125.00 29.96 125.00 30.00
C 125.00 40.24 127.51 54.13 125.00 64.00 Z"/>
</g>
<g fill="#62A16F" fill-opacity="0.02" stroke="None">
<path d="
M 711.00 33.00 
C 707.95 30.75 703.15 33.74 700.00 32.00
C 703.16 33.29 707.14 33.00 711.00 33.00 Z"/>
</g>
<g fill="#EFEFF0" fill-opacity="0.67" stroke="None">
<path d="
M 779.00 47.00 
C 779.70 53.75 775.33 57.12 769.00 56.00 C 762.67 54.88 756.84 54.92 756.00 61.00
C 762.29 53.12 784.48 65.19 779.00 47.00 Z"/>
</g>
<g fill="#EEEFF0" fill-opacity="0.65" stroke="None">
<path d="
M 831.00 57.00 
C 827.44 56.69 821.98 56.27 819.00 55.00
C 818.50 55.00 817.49 54.92 817.00 55.00
C 812.46 58.84 810.48 53.47 810.00 50.00
C 805.22 62.30 824.96 57.58 831.00 57.00 Z"/>
</g>
<g fill="#F1F2F3" fill-opacity="0.32" stroke="None">
<path d="
M 54.00 56.00 
C 57.40 55.96 61.20 55.58 67.00 56.00 C 72.80 56.42 81.20 54.98 86.00 54.00
C 75.17 53.59 64.68 53.67 54.00 56.00 Z"/>
</g>
<g fill="#F3F4F4" fill-opacity="0.39" stroke="None">
<path d="
M 255.00 54.00 
C 254.85 55.83 252.24 54.33 252.00 56.00
C 259.33 56.00 266.67 56.00 274.00 56.00
C 272.99 55.08 270.21 54.29 269.00 54.00
C 263.91 53.65 260.02 53.60 255.00 54.00 Z"/>
</g>
<g fill="#F3F4F3" fill-opacity="0.34" stroke="None">
<path d="
M 601.00 54.00 
C 608.62 55.47 615.77 56.01 623.00 55.00
C 615.39 53.79 608.61 53.33 601.00 54.00 Z"/>
</g>
<g fill="#F0EFF0" fill-opacity="0.95" stroke="None">
<path d="
M 537.00 115.00 
C 538.48 140.21 540.34 169.12 538.00 195.00
C 544.22 201.35 551.33 194.42 560.00 197.00 C 568.67 199.58 570.24 189.50 569.00 182.00 C 567.76 174.50 569.76 165.74 569.00 158.00 C 568.24 150.26 569.78 141.80 569.00 134.00 C 568.22 126.20 569.27 119.47 572.00 113.00
C 574.57 106.89 575.94 98.96 582.77 94.77 C 589.60 90.58 596.75 89.59 604.00 88.00
C 603.01 87.92 602.00 88.06 601.00 88.00
C 603.43 85.87 607.82 87.53 611.00 87.00
C 610.47 88.60 608.25 87.72 607.00 88.00
C 615.48 89.86 628.01 90.30 634.75 97.25 C 641.49 104.19 644.93 113.15 646.00 122.00
C 646.23 120.43 645.25 117.55 648.00 118.00
C 648.07 143.54 647.11 173.43 649.00 198.00
C 656.16 201.56 679.58 201.91 681.00 192.00
C 680.85 192.61 679.73 194.58 679.00 195.00
C 679.67 183.83 677.67 171.34 680.00 161.00
C 680.00 155.33 680.00 149.67 680.00 144.00
C 680.00 123.12 680.84 100.37 668.92 83.08 C 657.01 65.78 642.95 58.17 623.00 55.00
C 615.77 56.01 608.62 55.47 601.00 54.00
C 584.53 55.45 566.77 58.55 554.75 70.75 C 542.73 82.95 537.63 98.40 537.00 115.00 Z"/>
</g>
<g fill="#EEF0F1" fill-opacity="0.32" stroke="None">
<path d="
M 458.00 90.00 
C 458.87 89.72 459.84 88.93 460.00 88.00
C 430.42 88.66 400.13 86.67 371.00 89.00
C 368.98 79.29 363.25 56.31 378.00 57.00 C 392.75 57.69 406.53 56.61 421.00 57.00 C 435.47 57.39 448.98 56.28 463.00 58.00
C 462.76 56.33 460.15 57.83 460.00 56.00
C 456.18 55.65 452.95 55.08 449.00 55.00
C 442.75 55.48 435.20 55.60 429.00 55.00
C 419.58 55.00 411.56 54.76 402.00 55.00 C 392.44 55.24 385.08 54.36 375.01 55.01 C 364.93 55.65 369.37 65.48 368.00 74.00 C 366.63 82.52 368.47 92.18 379.00 90.00 C 389.53 87.82 395.44 90.74 405.00 90.00 C 414.56 89.26 422.85 89.91 432.00 90.00 C 441.15 90.09 449.09 88.92 458.00 90.00 Z"/>
</g>
<g fill="#E0FFFF" fill-opacity="0.03" stroke="None">
<path d="
M 449.00 55.00 
C 442.34 54.87 435.66 55.00 429.00 55.00
C 435.20 55.60 442.75 55.48 449.00 55.00 Z"/>
</g>
<g fill="#F2F2F3" fill-opacity="0.25" stroke="None">
<path d="
M 702.00 88.00 
C 702.43 92.40 702.42 97.66 702.00 102.00
C 702.00 123.33 702.00 144.67 702.00 166.00
C 702.55 171.70 703.00 178.62 703.00 185.00
C 703.00 188.67 703.00 192.33 703.00 196.00
C 704.97 182.25 703.81 167.62 704.00 153.00 C 704.19 138.38 704.02 123.85 704.00 109.00 C 703.98 94.15 704.25 80.21 704.00 65.00 C 703.75 49.79 729.35 60.37 736.00 57.00
C 731.49 50.93 722.19 57.27 715.00 55.00 C 707.81 52.73 700.61 56.78 702.00 65.00 C 703.39 73.22 702.00 79.91 702.00 88.00 Z"/>
</g>
<g fill="#EDEEEF" fill-opacity="0.25" stroke="None">
<path d="
M 831.00 57.00 
C 833.51 57.22 836.61 55.89 839.00 57.00 C 841.39 58.11 844.93 55.00 845.00 55.00
C 836.93 53.55 827.22 55.00 819.00 55.00
C 821.98 56.27 827.44 56.69 831.00 57.00 Z"/>
</g>
<g fill="#F0EFEF" fill-opacity="0.91" stroke="None">
<path d="
M 918.00 190.00 
C 921.22 190.25 926.09 188.58 923.00 195.00
C 921.02 194.53 923.11 191.40 921.00 191.00
C 918.45 204.19 912.88 215.78 901.00 222.00
C 902.00 222.05 903.00 221.96 904.00 222.00
C 902.79 225.29 898.63 223.56 896.00 224.00
C 896.47 222.02 899.60 224.11 900.00 222.00
C 894.33 222.00 877.31 218.97 875.00 226.00
C 875.42 225.01 878.01 223.95 879.00 224.00
C 873.92 232.65 878.32 242.99 877.00 253.00
L 924.00 253.00
C 937.24 243.87 940.02 232.60 944.32 218.32 C 948.62 204.04 956.00 189.32 957.98 173.98 C 959.95 158.63 963.64 141.31 968.78 126.78 C 973.92 112.25 977.49 97.55 984.00 84.00
L 984.00 60.00
C 982.38 59.25 980.90 58.42 980.00 57.00
C 978.01 58.05 975.31 57.99 973.00 58.00
C 974.26 56.20 976.79 55.79 979.00 56.00
C 969.07 48.67 959.01 58.62 957.77 67.77 C 956.54 76.92 950.92 83.74 948.78 92.78 C 946.64 101.81 942.57 109.30 940.78 118.78 C 938.98 128.26 934.26 134.66 932.93 144.93 C 931.60 155.20 922.82 159.43 919.00 147.00
C 918.80 146.71 917.43 148.61 917.08 146.87 C 916.74 145.13 918.07 144.64 918.00 144.00
C 915.58 136.39 913.77 128.49 911.00 121.00
C 910.60 122.14 909.72 122.06 908.25 120.74 C 906.78 119.41 910.11 117.48 910.00 119.00
C 907.11 109.02 904.18 103.27 900.98 93.02 C 897.78 82.77 894.60 78.96 891.98 67.02 C 889.35 55.09 883.93 55.14 870.00 55.00 C 856.07 54.86 858.19 63.51 863.07 72.93 C 867.95 82.34 868.06 89.07 872.23 97.77 C 876.39 106.47 878.83 113.89 882.70 122.31 C 886.56 130.72 889.59 137.74 892.68 146.32 C 895.76 154.90 897.90 165.05 900.22 173.78 C 902.55 182.51 910.16 187.40 918.00 190.00
M 889.00 60.00 
C 885.96 59.82 884.61 55.64 881.00 57.00
C 883.19 54.61 889.22 56.08 889.00 60.00 Z"/>
</g>
<g fill="#F0EFEF" fill-opacity="0.96" stroke="None">
<path d="
M 458.00 90.00 
C 470.58 91.52 474.41 98.22 479.00 109.00
C 482.93 118.23 469.44 114.79 461.00 115.00 C 452.56 115.21 440.97 115.34 432.00 115.00 C 423.03 114.66 412.04 116.11 403.00 115.00
C 400.90 115.20 398.20 117.28 396.00 115.00
C 395.75 114.74 396.00 114.00 396.00 114.00
C 378.63 116.32 360.72 122.95 356.00 142.00
C 356.00 141.34 357.67 147.32 357.07 151.07 C 356.48 154.83 356.11 163.42 356.00 165.00
C 357.35 172.13 359.73 176.43 364.00 182.00
C 366.09 183.47 370.12 188.19 370.00 188.00
C 372.12 189.62 373.62 190.72 376.00 192.00
C 378.93 192.73 382.63 192.59 385.00 195.00
C 386.64 192.15 395.54 195.62 397.00 197.00
C 427.85 194.22 461.77 199.46 491.00 198.00
C 505.49 195.45 511.65 189.46 514.00 175.00
C 513.01 151.74 514.10 124.00 513.00 102.00
C 507.97 73.40 488.25 58.57 460.00 56.00
C 460.15 57.83 462.76 56.33 463.00 58.00
C 448.98 56.28 435.47 57.39 421.00 57.00 C 406.53 56.61 392.75 57.69 378.00 57.00 C 363.25 56.31 368.98 79.29 371.00 89.00
C 400.13 86.67 430.42 88.66 460.00 88.00
C 459.84 88.93 458.87 89.72 458.00 90.00
M 424.00 137.00 
C 417.91 139.29 409.84 137.37 403.00 138.00
C 409.09 135.71 417.16 137.63 424.00 137.00
M 480.00 137.00 
C 477.57 139.13 473.18 137.47 470.00 138.00
C 472.43 135.87 476.82 137.53 480.00 137.00
M 479.00 159.00 
C 478.86 168.11 465.98 167.11 457.00 167.00 C 448.02 166.89 433.25 167.22 424.00 167.00 C 414.75 166.78 401.34 168.46 396.00 164.00
C 387.93 157.25 387.62 141.71 400.01 140.01 C 412.39 138.31 426.01 139.13 439.00 139.00 C 451.99 138.87 465.92 139.10 479.00 139.00
C 479.00 145.67 479.00 152.33 479.00 159.00 Z"/>
</g>
<g fill="#EEEEEE" fill-opacity="0.54" stroke="None">
<path d="
M 889.00 60.00 
C 889.22 56.08 883.19 54.61 881.00 57.00
C 884.61 55.64 885.96 59.82 889.00 60.00 Z"/>
</g>
<g fill="#EEEDEE" fill-opacity="0.63" stroke="None">
<path d="
M 980.00 57.00 
C 979.77 56.64 980.00 56.00 980.00 56.00
C 980.00 56.00 979.50 56.04 979.00 56.00
C 976.79 55.79 974.26 56.20 973.00 58.00
C 975.31 57.99 978.01 58.05 980.00 57.00 Z"/>
</g>
<g fill="#E8E5E6" fill-opacity="0.44" stroke="None">
<path d="
M 980.00 57.00 
C 980.90 58.42 982.38 59.25 984.00 60.00
L 984.00 56.00
C 982.67 56.00 981.33 56.00 980.00 56.00
C 980.00 56.00 979.77 56.64 980.00 57.00 Z"/>
</g>
<g fill="#F0EEEF" fill-opacity="0.95" stroke="None">
<path d="
M 703.00 185.00 
C 703.00 185.04 702.00 185.00 702.00 185.00
C 702.00 201.04 706.56 197.48 720.00 199.00 C 733.44 200.52 738.38 196.31 737.00 184.00 C 735.62 171.69 737.91 163.20 737.00 152.00 C 736.09 140.80 738.05 130.45 737.00 120.00 C 735.95 109.55 738.88 97.56 737.00 88.00 C 735.12 78.44 741.44 64.32 736.00 57.00
C 729.35 60.37 703.75 49.79 704.00 65.00 C 704.25 80.21 703.98 94.15 704.00 109.00 C 704.02 123.85 704.19 138.38 704.00 153.00 C 703.81 167.62 704.97 182.25 703.00 196.00
C 703.00 192.33 703.00 188.67 703.00 185.00 Z"/>
</g>
<g fill="#EFEFEF" fill-opacity="0.66" stroke="None">
<path d="
M 125.00 71.00 
C 129.02 71.30 128.73 64.83 127.00 63.00
C 125.57 65.45 126.07 68.46 125.00 71.00 Z"/>
</g>
<g fill="#F0F0F2" fill-opacity="0.42" stroke="None">
<path d="
M 850.00 86.00 
C 851.48 79.18 849.59 70.99 850.00 64.00
C 849.60 65.26 847.31 67.98 848.00 71.00 C 848.69 74.02 848.55 77.24 848.00 80.00 C 847.45 82.76 850.00 85.71 850.00 86.00 Z"/>
</g>
<g fill="#EBEEF1" fill-opacity="0.51" stroke="None">
<path d="
M 320.00 78.00 
C 319.75 77.74 319.21 77.27 319.00 77.00
C 315.41 74.90 317.56 80.80 320.00 81.00
C 319.90 80.01 320.13 78.98 320.00 78.00 Z"/>
</g>
<g fill="#000000" fill-opacity="0.00" stroke="None">
<path d="
M 924.00 253.00 
L 984.00 253.00
L 984.00 84.00
C 977.49 97.55 973.92 112.25 968.78 126.78 C 963.64 141.31 959.95 158.63 957.98 173.98 C 956.00 189.32 948.62 204.04 944.32 218.32 C 940.02 232.60 937.24 243.87 924.00 253.00 Z"/>
</g>
<g fill="#F1F2F4" fill-opacity="0.41" stroke="None">
<path d="
M 251.00 89.00 
C 258.89 87.69 265.27 89.82 273.00 90.00
C 272.74 89.88 272.35 89.13 272.00 89.00
C 263.72 85.90 258.98 85.27 251.00 89.00 Z"/>
</g>
<g fill="#F0F0F3" fill-opacity="0.30" stroke="None">
<path d="
M 604.00 88.00 
C 604.90 87.80 606.07 88.03 607.00 88.00
C 608.25 87.72 610.47 88.60 611.00 87.00
C 607.82 87.53 603.43 85.87 601.00 88.00
C 602.00 88.06 603.01 87.92 604.00 88.00 Z"/>
</g>
<g fill="#EEEEEE" fill-opacity="0.60" stroke="None">
<path d="
M 272.00 89.00 
C 272.35 89.13 272.74 89.88 273.00 90.00
C 273.00 90.00 273.62 89.79 274.00 90.00
C 278.00 88.60 273.64 87.08 272.00 89.00 Z"/>
</g>
<g fill="#E3E3FB" fill-opacity="0.04" stroke="None">
<path d="
M 702.00 102.00 
C 702.42 97.66 702.43 92.40 702.00 88.00
C 702.00 92.67 702.00 97.33 702.00 102.00 Z"/>
</g>
<g fill="#EEEEF1" fill-opacity="0.40" stroke="None">
<path d="
M 773.00 90.00 
C 773.50 90.00 774.51 90.06 775.00 90.00
C 778.67 88.26 782.57 88.67 782.00 94.00
C 782.01 93.95 783.00 94.00 783.00 94.00
C 783.00 92.00 783.00 90.00 783.00 88.00
C 779.41 86.06 774.41 89.70 773.00 90.00 Z"/>
</g>
<g fill="#EFEFF0" fill-opacity="0.50" stroke="None">
<path d="
M 801.00 198.00 
C 805.08 198.00 809.53 197.51 813.00 198.00
C 813.97 196.09 814.59 194.10 815.00 192.00
C 814.74 189.12 815.80 186.10 816.00 184.00
C 816.00 176.00 816.00 168.00 816.00 160.00
C 815.54 155.28 815.55 149.65 816.00 145.00
C 816.00 143.00 816.00 141.00 816.00 139.00
C 815.80 136.90 815.00 133.77 815.00 131.00
C 815.00 128.33 815.00 125.67 815.00 123.00
C 815.00 119.57 815.74 115.69 816.00 113.00
C 816.00 105.33 816.00 97.67 816.00 90.00
C 825.20 87.28 839.98 94.07 848.00 89.00
C 838.33 87.14 829.29 88.06 819.00 88.00 C 808.71 87.94 813.98 103.79 813.00 112.00 C 812.02 120.21 813.81 132.49 813.00 141.00 C 812.19 149.51 814.18 163.06 813.00 171.00 C 811.82 178.94 817.09 194.08 809.00 197.00 C 800.91 199.92 789.30 196.23 782.00 195.00
C 785.88 200.07 794.92 198.00 801.00 198.00 Z"/>
</g>
<g fill="#000000" fill-opacity="0.00" stroke="None">
<path d="
M 35.00 117.00 
C 34.23 122.51 34.56 129.45 35.00 135.00
C 35.53 141.70 38.05 148.53 42.00 154.00
C 42.83 155.14 43.98 157.16 45.00 158.00
C 59.73 170.16 88.13 167.12 105.98 161.98 C 123.82 156.83 128.25 131.00 122.93 113.07 C 117.60 95.14 95.34 87.80 77.00 89.00 C 58.66 90.20 38.03 95.29 35.00 117.00 Z"/>
</g>
<g fill="#EFEFEF" fill-opacity="0.62" stroke="None">
<path d="
M 783.00 94.00 
C 783.00 94.00 782.01 93.95 782.00 94.00
C 782.65 103.51 780.69 114.24 783.00 123.00
C 782.36 113.39 783.85 103.59 783.00 94.00 Z"/>
</g>
<g fill="#EDEDF0" fill-opacity="0.36" stroke="None">
<path d="
M 514.00 175.00 
C 517.54 153.22 516.84 123.84 513.00 102.00
C 514.10 124.00 513.01 151.74 514.00 175.00 Z"/>
</g>
<g fill="#ECECED" fill-opacity="0.30" stroke="None">
<path d="
M 404.00 113.00 
C 403.43 113.13 402.00 113.80 401.00 114.00
C 401.39 114.08 402.13 114.89 403.00 115.00
C 412.04 116.11 423.03 114.66 432.00 115.00 C 440.97 115.34 452.56 115.21 461.00 115.00 C 469.44 114.79 482.93 118.23 479.00 109.00
C 479.00 110.33 479.00 111.67 479.00 113.00
C 454.03 113.71 428.96 112.05 404.00 113.00 Z"/>
</g>
<g fill="#E9E6E8" fill-opacity="0.57" stroke="None">
<path d="
M 0.00 114.00 
L 0.00 137.00
C 0.50 137.00 1.00 137.00 1.00 137.00
C 3.44 133.94 -0.89 126.90 1.07 123.07 C 3.03 119.25 0.72 115.01 1.00 112.00
C 0.83 112.67 1.08 113.96 0.00 114.00 Z"/>
</g>
<g fill="#F4F4F5" fill-opacity="0.41" stroke="None">
<path d="
M 298.00 114.00 
C 302.35 134.29 299.00 158.99 299.00 180.00
C 299.23 182.40 299.94 185.94 300.00 189.00
C 300.30 191.72 298.69 197.14 303.00 197.00
C 299.48 188.44 300.95 177.70 301.00 168.00 C 301.05 158.30 300.26 146.59 301.00 137.00 C 301.74 127.41 299.95 117.57 298.00 114.00 Z"/>
</g>
<g fill="#F2F2FA" fill-opacity="0.08" stroke="None">
<path d="
M 396.00 114.00 
C 396.00 114.00 395.75 114.74 396.00 115.00
C 397.74 115.33 399.35 114.33 401.00 114.00
C 402.00 113.80 403.43 113.13 404.00 113.00
C 401.08 113.11 398.68 113.64 396.00 114.00 Z"/>
</g>
<g fill="#F2F1F3" fill-opacity="0.38" stroke="None">
<path d="
M 538.00 195.00 
C 537.75 194.75 537.00 195.00 537.00 195.00
C 537.25 203.09 551.62 196.88 558.00 199.00 C 564.38 201.12 574.03 196.89 572.00 188.00 C 569.97 179.11 572.69 171.56 572.00 163.00 C 571.31 154.44 571.82 146.37 572.00 138.00 C 572.18 129.63 570.83 121.21 572.00 113.00
C 569.27 119.47 568.22 126.20 569.00 134.00 C 569.78 141.80 568.24 150.26 569.00 158.00 C 569.76 165.74 567.76 174.50 569.00 182.00 C 570.24 189.50 568.67 199.58 560.00 197.00 C 551.33 194.42 544.22 201.35 538.00 195.00 Z"/>
</g>
<g fill="#DFDFFF" fill-opacity="0.03" stroke="None">
<path d="
M 815.00 123.00 
C 815.00 122.96 816.00 123.00 816.00 123.00
C 816.00 119.67 816.00 116.33 816.00 113.00
C 815.74 115.69 815.00 119.57 815.00 123.00 Z"/>
</g>
<g fill="#F0F1F1" fill-opacity="0.33" stroke="None">
<path d="
M 184.00 195.00 
C 179.22 188.63 184.94 175.03 183.00 167.00 C 181.06 158.97 185.19 147.51 182.00 140.00
C 182.00 149.07 182.20 156.79 182.00 166.00 C 181.80 175.21 182.52 182.29 182.00 192.00 C 181.48 201.70 193.82 198.56 201.00 199.00 C 208.18 199.44 218.48 200.34 218.00 191.00 C 217.52 181.66 218.11 173.88 218.00 165.00 C 217.89 156.12 217.82 147.56 218.00 139.00 C 218.18 130.44 217.14 123.00 219.00 115.00
C 217.32 119.13 214.43 126.64 215.00 134.00 C 215.57 141.36 214.26 150.42 215.00 158.00 C 215.74 165.58 213.60 174.47 215.00 182.00 C 216.40 189.53 214.48 200.19 206.00 197.00 C 197.52 193.81 189.34 202.11 184.00 195.00 Z"/>
</g>
<g fill="#EEEFF1" fill-opacity="0.70" stroke="None">
<path d="
M 396.00 115.00 
C 398.20 117.28 400.90 115.20 403.00 115.00
C 402.13 114.89 401.39 114.08 401.00 114.00
C 399.35 114.33 397.74 115.33 396.00 115.00 Z"/>
</g>
<g fill="#F2F3F3" fill-opacity="0.20" stroke="None">
<path d="
M 537.00 195.00 
C 537.00 195.00 537.75 194.75 538.00 195.00
C 540.34 169.12 538.48 140.21 537.00 115.00
C 536.01 140.95 534.65 169.15 537.00 195.00 Z"/>
</g>
<g fill="#ECECED" fill-opacity="0.43" stroke="None">
<path d="
M 35.00 135.00 
C 34.56 129.45 34.23 122.51 35.00 117.00
C 33.37 120.60 32.73 121.30 32.00 126.00 C 31.27 130.70 33.69 132.17 35.00 135.00 Z"/>
</g>
<g fill="#EDEFEE" fill-opacity="0.27" stroke="None">
<path d="
M 646.00 122.00 
C 648.26 140.71 646.00 161.14 646.00 180.00
C 646.39 184.03 645.83 191.64 647.00 196.00
C 647.98 197.97 647.10 197.06 649.00 198.00
C 647.11 173.43 648.07 143.54 648.00 118.00
C 645.25 117.55 646.23 120.43 646.00 122.00 Z"/>
</g>
<g fill="#EBEBF0" fill-opacity="0.50" stroke="None">
<path d="
M 911.00 121.00 
C 910.74 120.28 910.21 119.72 910.00 119.00
C 910.11 117.48 906.78 119.41 908.25 120.74 C 909.72 122.06 910.60 122.14 911.00 121.00 Z"/>
</g>
<g fill="#EDEDEF" fill-opacity="0.82" stroke="None">
<path d="
M 332.00 194.00 
C 332.31 193.76 333.00 194.00 333.00 194.00
C 332.99 172.10 333.39 149.09 334.00 128.00
C 333.81 125.20 332.81 122.84 333.00 120.00
C 332.79 119.86 331.39 132.49 332.00 137.00 C 332.61 141.51 331.64 150.52 332.00 156.00 C 332.36 161.48 331.66 169.13 332.00 175.00 C 332.34 180.87 331.46 188.04 332.00 194.00 Z"/>
</g>
<g fill="#FBFBFC" fill-opacity="0.05" stroke="None">
<path d="
M 334.00 128.00 
C 334.36 133.28 334.00 138.71 334.00 144.00
C 334.00 143.96 335.00 144.00 335.00 144.00
C 335.00 135.84 334.71 127.84 334.00 120.00
C 334.00 120.00 333.35 120.23 333.00 120.00
C 332.81 122.84 333.81 125.20 334.00 128.00 Z"/>
</g>
<g fill="#FFFFFF" fill-opacity="0.03" stroke="None">
<path d="
M 815.00 131.00 
C 815.00 130.96 816.00 131.00 816.00 131.00
C 816.00 128.33 816.00 125.67 816.00 123.00
C 816.00 123.00 815.00 122.96 815.00 123.00
C 815.00 125.67 815.00 128.33 815.00 131.00 Z"/>
</g>
<g fill="#FFFFFF" fill-opacity="0.02" stroke="None">
<path d="
M 159.00 139.00 
C 159.36 135.34 160.00 130.41 160.00 126.00
C 157.89 128.85 159.00 135.20 159.00 139.00 Z"/>
</g>
<g fill="#EFEFF0" fill-opacity="0.33" stroke="None">
<path d="
M 333.00 194.00 
C 333.00 194.50 333.00 195.00 333.00 195.00
C 334.73 194.42 333.94 191.43 334.00 190.00
C 334.19 185.35 334.00 180.65 334.00 176.00
C 334.00 165.33 334.00 154.67 334.00 144.00
C 334.00 138.71 334.36 133.28 334.00 128.00
C 333.39 149.09 332.99 172.10 333.00 194.00 Z"/>
</g>
<g fill="#FFDFFF" fill-opacity="0.03" stroke="None">
<path d="
M 816.00 139.00 
C 816.00 136.33 816.00 133.67 816.00 131.00
C 816.00 131.00 815.00 130.96 815.00 131.00
C 815.00 133.77 815.80 136.90 816.00 139.00 Z"/>
</g>
<g fill="#EBEBEA" fill-opacity="0.43" stroke="None">
<path d="
M 0.00 144.00 
C 1.17 144.05 0.89 145.31 1.00 146.00
C 3.17 146.51 0.85 150.82 4.00 150.00
C 2.44 145.78 2.99 141.13 1.00 137.00
C 1.00 137.00 0.50 137.00 0.00 137.00
L 0.00 144.00 Z"/>
</g>
<g fill="#EEEEEE" fill-opacity="0.42" stroke="None">
<path d="
M 424.00 137.00 
C 417.16 137.63 409.09 135.71 403.00 138.00
C 409.84 137.37 417.91 139.29 424.00 137.00 Z"/>
</g>
<g fill="#EDEDED" fill-opacity="0.64" stroke="None">
<path d="
M 480.00 137.00 
C 476.82 137.53 472.43 135.87 470.00 138.00
C 473.18 137.47 477.57 139.13 480.00 137.00 Z"/>
</g>
<g fill="#000000" fill-opacity="0.00" stroke="None">
<path d="
M 396.00 164.00 
C 403.56 167.78 416.61 164.14 425.00 165.00 C 433.39 165.86 447.11 165.06 455.00 165.00 C 462.89 164.94 476.87 168.31 479.00 159.00
C 479.00 152.33 479.00 145.67 479.00 139.00
C 465.92 139.10 451.99 138.87 439.00 139.00 C 426.01 139.13 412.39 138.31 400.01 140.01 C 387.62 141.71 387.93 157.25 396.00 164.00 Z"/>
</g>
<g fill="#EEEDEF" fill-opacity="0.36" stroke="None">
<path d="
M 356.00 142.00 
C 354.21 149.21 354.63 157.79 356.00 165.00
C 356.11 163.42 356.48 154.83 357.07 151.07 C 357.67 147.32 356.00 141.34 356.00 142.00 Z"/>
</g>
<g fill="#E9E2FF" fill-opacity="0.04" stroke="None">
<path d="
M 334.00 176.00 
C 334.00 175.96 335.00 176.00 335.00 176.00
C 335.00 165.33 335.00 154.67 335.00 144.00
C 335.00 144.00 334.00 143.96 334.00 144.00
C 334.00 154.67 334.00 165.33 334.00 176.00 Z"/>
</g>
<g fill="#FDFDFF" fill-opacity="0.02" stroke="None">
<path d="
M 680.00 161.00 
C 680.00 168.36 680.36 176.40 681.00 183.00
C 681.00 170.05 681.18 156.24 680.00 144.00
C 680.00 149.67 680.00 155.33 680.00 161.00 Z"/>
</g>
<g fill="#EEEEF3" fill-opacity="0.42" stroke="None">
<path d="
M 919.00 147.00 
C 918.71 146.05 918.21 144.66 918.00 144.00
C 918.07 144.64 916.74 145.13 917.08 146.87 C 917.43 148.61 918.80 146.71 919.00 147.00 Z"/>
</g>
<g fill="#F0E1FF" fill-opacity="0.04" stroke="None">
<path d="
M 816.00 160.00 
C 816.00 155.00 816.00 150.00 816.00 145.00
C 815.55 149.65 815.54 155.28 816.00 160.00 Z"/>
</g>
<g fill="#EDF0EE" fill-opacity="0.37" stroke="None">
<path d="
M 45.00 158.00 
C 43.98 157.16 42.83 155.14 42.00 154.00
C 40.86 153.97 40.28 152.47 39.00 153.00
C 39.40 157.71 45.12 158.03 45.00 158.00 Z"/>
</g>
<g fill="#F4F4F4" fill-opacity="0.20" stroke="None">
<path d="
M 396.00 164.00 
C 401.34 168.46 414.75 166.78 424.00 167.00 C 433.25 167.22 448.02 166.89 457.00 167.00 C 465.98 167.11 478.86 168.11 479.00 159.00
C 476.87 168.31 462.89 164.94 455.00 165.00 C 447.11 165.06 433.39 165.86 425.00 165.00 C 416.61 164.14 403.56 167.78 396.00 164.00 Z"/>
</g>
<g fill="#F4F2F5" fill-opacity="0.28" stroke="None">
<path d="
M 681.00 192.00 
C 681.41 189.13 681.00 185.90 681.00 183.00
C 680.36 176.40 680.00 168.36 680.00 161.00
C 677.67 171.34 679.67 183.83 679.00 195.00
C 679.73 194.58 680.85 192.61 681.00 192.00 Z"/>
</g>
<g fill="#EEEEEE" fill-opacity="0.57" stroke="None">
<path d="
M 95.00 167.00 
C 86.48 165.32 74.59 165.35 66.00 167.00
C 74.62 168.78 85.96 168.50 95.00 167.00 Z"/>
</g>
<g fill="#E2E2F7" fill-opacity="0.04" stroke="None">
<path d="
M 702.00 185.00 
C 702.00 185.00 703.00 185.04 703.00 185.00
C 703.00 178.62 702.55 171.70 702.00 166.00
C 702.00 172.33 702.00 178.67 702.00 185.00 Z"/>
</g>
<g fill="#FFFFFF" fill-opacity="0.03" stroke="None">
<path d="
M 334.00 190.00 
C 334.00 190.00 335.00 190.04 335.00 190.00
C 335.25 185.36 335.00 180.64 335.00 176.00
C 335.00 176.00 334.00 175.96 334.00 176.00
C 334.00 180.65 334.19 185.35 334.00 190.00 Z"/>
</g>
<g fill="#EDEDFF" fill-opacity="0.05" stroke="None">
<path d="
M 299.00 189.00 
C 299.00 189.00 300.00 189.01 300.00 189.00
C 299.94 185.94 299.23 182.40 299.00 180.00
C 299.00 183.00 298.94 186.00 299.00 189.00 Z"/>
</g>
<g fill="#F9F9F9" fill-opacity="0.03" stroke="None">
<path d="
M 647.00 196.00 
C 645.83 191.64 646.39 184.03 646.00 180.00
C 646.00 184.96 644.95 191.87 647.00 196.00 Z"/>
</g>
<g fill="#F3F2F3" fill-opacity="0.29" stroke="None">
<path d="
M 364.00 182.00 
C 366.04 184.66 367.33 185.95 370.00 188.00
C 370.12 188.19 366.09 183.47 364.00 182.00 Z"/>
</g>
<g fill="#FFE1FF" fill-opacity="0.04" stroke="None">
<path d="
M 815.00 192.00 
C 815.04 191.87 816.00 192.00 816.00 192.00
C 816.24 189.38 816.00 186.63 816.00 184.00
C 815.80 186.10 814.74 189.12 815.00 192.00 Z"/>
</g>
<g fill="#EDEDED" fill-opacity="0.58" stroke="None">
<path d="
M 29.00 189.00 
C 29.14 186.53 26.37 184.45 24.00 185.00
C 24.83 187.17 27.45 187.45 29.00 189.00 Z"/>
</g>
<g fill="#EEEEEF" fill-opacity="0.40" stroke="None">
<path d="
M 918.00 190.00 
C 918.17 190.06 920.82 190.89 921.00 191.00
C 923.11 191.40 921.02 194.53 923.00 195.00
C 926.09 188.58 921.22 190.25 918.00 190.00 Z"/>
</g>
<g fill="#F0EFF0" fill-opacity="0.24" stroke="None">
<path d="
M 376.00 192.00 
C 379.36 193.81 382.14 194.94 386.00 196.00
C 385.73 195.85 385.25 195.25 385.00 195.00
C 382.63 192.59 378.93 192.73 376.00 192.00 Z"/>
</g>
<g fill="#EDEFEE" fill-opacity="0.10" stroke="None">
<path d="
M 801.00 198.00 
C 801.00 198.00 800.96 199.00 801.00 199.00
C 806.82 199.00 816.60 200.69 816.00 192.00
C 816.00 192.00 815.04 191.87 815.00 192.00
C 814.59 194.10 813.97 196.09 813.00 198.00
C 809.53 197.51 805.08 198.00 801.00 198.00 Z"/>
</g>
<g fill="#EBEBEB" fill-opacity="0.54" stroke="None">
<path d="
M 333.00 195.00 
C 333.00 195.00 333.00 194.50 333.00 194.00
C 333.00 194.00 332.31 193.76 332.00 194.00
C 331.75 195.53 329.45 196.18 330.00 198.00
C 332.15 198.37 332.73 196.59 333.00 195.00 Z"/>
</g>
<g fill="#F0EEEF" fill-opacity="0.43" stroke="None">
<path d="
M 385.00 195.00 
C 385.25 195.25 385.73 195.85 386.00 196.00
C 389.84 197.06 392.96 197.44 397.00 198.00
C 396.76 197.80 397.00 197.00 397.00 197.00
C 395.54 195.62 386.64 192.15 385.00 195.00 Z"/>
</g>
<g fill="#ECECEC" fill-opacity="0.46" stroke="None">
<path d="
M 109.00 198.00 
C 110.46 197.69 111.63 197.37 113.00 197.00
C 113.55 197.03 110.50 193.70 109.26 195.25 C 108.03 196.79 107.81 197.65 109.00 198.00 Z"/>
</g>
<g fill="#ECECEC" fill-opacity="0.28" stroke="None">
<path d="
M 397.00 198.00 
C 411.97 200.09 428.57 199.20 444.00 199.00 C 459.43 198.80 476.06 200.63 491.00 198.00
C 461.77 199.46 427.85 194.22 397.00 197.00
C 397.00 197.00 396.76 197.80 397.00 198.00 Z"/>
</g>
<g fill="#EBECED" fill-opacity="0.24" stroke="None">
<path d="
M 61.00 199.00 
C 72.87 200.15 87.06 200.16 99.00 199.00
C 86.68 197.84 73.01 197.84 61.00 199.00 Z"/>
</g>
<g fill="#EDEDED" fill-opacity="0.58" stroke="None">
<path d="
M 901.00 222.00 
C 901.00 222.00 900.50 222.00 900.00 222.00
C 899.60 224.11 896.47 222.02 896.00 224.00
C 898.63 223.56 902.79 225.29 904.00 222.00
C 903.00 221.96 902.00 222.05 901.00 222.00 Z"/>
</g>
<g fill="#EEEFF2" fill-opacity="0.32" stroke="None">
<path d="
M 875.00 226.00 
C 872.33 234.12 877.00 244.66 875.00 253.00
L 877.00 253.00
C 878.32 242.99 873.92 232.65 879.00 224.00
C 878.01 223.95 875.42 225.01 875.00 226.00 Z"/>
</g>
</svg>